<svg width="16" height="16" viewBox="0 0 16 16" version="1.1" xmlns="http://www.w3.org/2000/svg" xmlns:xlink="http://www.w3.org/1999/xlink" xml:space="preserve" xmlns:serif="http://www.serif.com/" style="fill-rule:evenodd;clip-rule:evenodd;stroke-linejoin:round;stroke-miterlimit:2;">
    <g transform="matrix(1.06677,0,0,1.06677,-0.533456,-0.53835)">
        <path d="M7.749,4.25L7.749,6L8.249,6L8.249,4.25C8.852,4.27 9.437,4.363 9.995,4.519L9.732,5.349L10.208,5.5L10.472,4.67C11.166,4.916 11.813,5.263 12.396,5.693L11.401,6.971L11.796,7.278L12.789,6.003C13.349,6.476 13.84,7.031 14.245,7.649L13.361,8.161L13.611,8.594L14.505,8.076C14.883,8.744 15.165,9.477 15.33,10.254L13.465,10.551L13.544,11.045L15.418,10.746C15.471,11.112 15.498,11.486 15.499,11.867L12,11.869C11.998,9.623 10.207,7.804 7.998,7.805C5.789,7.806 4,9.628 4,11.873L0.5,11.875C0.5,11.491 0.528,11.114 0.581,10.746L2.456,11.045L2.535,10.551L0.669,10.254C0.834,9.477 1.115,8.744 1.494,8.075L2.389,8.594L2.639,8.161L1.754,7.648C2.159,7.03 2.651,6.476 3.211,6.003L4.204,7.278L4.599,6.971L3.603,5.693C4.187,5.262 4.834,4.916 5.528,4.67L5.792,5.5L6.268,5.349L6.005,4.519C6.563,4.362 7.147,4.27 7.749,4.25Z" style="fill:white;"/>
    </g>
</svg>
