<svg width="16" height="16" viewBox="0 0 16 16" version="1.1" xmlns="http://www.w3.org/2000/svg" xmlns:xlink="http://www.w3.org/1999/xlink" xml:space="preserve" xmlns:serif="http://www.serif.com/" style="fill-rule:evenodd;clip-rule:evenodd;stroke-linejoin:round;stroke-miterlimit:2;">
    <g id="boolean" transform="matrix(1.22122,0,0,1.22122,-2.20881,-0.0850822)">
        <g id="exclamation">
            <g id="path2" transform="matrix(1,0,0,1,-0.0671209,0)">
                <path d="M4.984,3.948C4.843,2.636 7.011,2.641 6.87,3.953L6.55,8.618C6.481,9.268 5.519,9.268 5.45,8.618L4.984,3.948Z" style="fill-rule:nonzero; fill: white"/>
            </g>
            <g id="path439" transform="matrix(1,0,0,1,-0.0671209,0)" style="fill: white;">
                <circle cx="5.996" cy="11.005" r="0.941"/>
            </g>
        </g>
        <g id="question">
            <g id="path10" transform="matrix(1,0,0,1,0.932879,0)">
                <path d="M7.745,5.233C7.74,5.37 7.837,5.484 7.957,5.481L8.682,5.481C8.804,5.481 8.9,5.367 8.916,5.23C8.995,4.57 9.391,4.089 10.096,4.089C10.7,4.089 11.252,4.434 11.252,5.264C11.252,5.903 10.923,6.196 10.403,6.643C9.811,7.135 9.343,7.709 9.376,8.642L9.379,8.86C9.381,8.997 9.478,9.108 9.599,9.108L10.312,9.108C10.433,9.108 10.532,8.995 10.532,8.856L10.532,8.751C10.532,8.028 10.772,7.818 11.42,7.256C11.955,6.79 12.514,6.273 12.514,5.187C12.514,3.667 11.392,2.933 10.163,2.933C9.049,2.933 7.828,3.527 7.745,5.233" style="fill-rule:nonzero; fill: white"/>
            </g>
            <g id="path439-4" transform="matrix(1,0,0,1,0.932879,0)" style="fill: white;">
                <circle cx="9.982" cy="11.005" r="0.941"/>
            </g>
        </g>
    </g>
</svg>
