<?xml version="1.0" encoding="UTF-8" standalone="no"?>
<!DOCTYPE svg PUBLIC "-//W3C//DTD SVG 1.1//EN" "http://www.w3.org/Graphics/SVG/1.1/DTD/svg11.dtd">
<svg width="100%" height="100%" viewBox="0 0 15 15" version="1.1" xmlns="http://www.w3.org/2000/svg" xmlns:xlink="http://www.w3.org/1999/xlink" xml:space="preserve" xmlns:serif="http://www.serif.com/" style="fill-rule:evenodd;clip-rule:evenodd;stroke-linejoin:round;stroke-miterlimit:2;">
    <g id="Artboard1" transform="matrix(0.927153,0,0,0.880275,0,0)">
        <rect x="0" y="0" width="16" height="16" style="fill:none;"/>
        <g transform="matrix(0.808928,0,0,0.852007,1.56334,1.32573)">
            <g id="Open">
                <path d="M8,5.5C6.629,5.5 5.5,6.629 5.5,8C5.5,9.371 6.629,10.5 8,10.5C9.371,10.5 10.5,9.371 10.5,8C10.5,6.629 9.371,5.5 8,5.5M4.5,8C4.5,6.08 6.08,4.5 8,4.5C9.92,4.5 11.5,6.08 11.5,8C11.5,9.92 9.92,11.5 8,11.5C6.08,11.5 4.5,9.92 4.5,8" style="fill:white;fill-rule:nonzero;"/>
            </g>
        </g>
    </g>
</svg>
