<svg width="16" height="16" viewBox="0 0 16 16" fill="white" version="1.1" xmlns="http://www.w3.org/2000/svg" xmlns:xlink="http://www.w3.org/1999/xlink" xml:space="preserve" xmlns:serif="http://www.serif.com/" fill-rule="evenodd" clip-rule="evenodd" stroke-linejoin="round" stroke-miterlimit="2">

    <g id="Layer1">

        <g transform="matrix(1.14286,0,0,1,-1.57143,2)">

            <path d="M14.5,6.5C14.5,6.224 14.304,6 14.063,6L11.438,6C11.196,6 11,6.224 11,6.5C11,6.776 11.196,7 11.438,7L14.063,7C14.304,7 14.5,6.776 14.5,6.5Z"/>

        </g>

        <g transform="matrix(6.99798e-17,-1.14286,1,6.12323e-17,6.5,23.0714)">

            <path d="M14.5,6.5C14.5,6.224 14.304,6 14.063,6L11.438,6C11.196,6 11,6.224 11,6.5C11,6.776 11.196,7 11.438,7L14.063,7C14.304,7 14.5,6.776 14.5,6.5Z"/>

        </g>

        <g transform="matrix(1.05723,0,0,1.05723,-0.736392,5.78979)">

            <path d="M11.937,-4.531L12.045,-1.23L11.586,-1.23C11.495,-1.952 11.291,-2.55 10.976,-3.022C10.66,-3.494 10.329,-3.788 9.984,-3.906C9.639,-4.023 9.057,-4.081 8.236,-4.081L5.648,-4.081L5.648,1.534L6.889,1.534C7.689,1.534 8.222,1.399 8.485,1.129C8.749,0.858 8.881,0.316 8.881,-0.497L9.369,-0.497L9.369,4.171L8.881,4.171C8.881,3.604 8.824,3.157 8.71,2.828C8.596,2.499 8.427,2.274 8.202,2.154C7.978,2.034 7.54,1.973 6.889,1.973L5.648,1.973L5.648,5.264C5.648,6.306 5.674,6.988 5.727,7.31C5.779,7.633 5.91,7.872 6.122,8.028C6.334,8.184 6.742,8.262 7.348,8.262L7.797,8.262L7.797,8.712L1.644,8.712L1.644,8.262L2.055,8.262C2.621,8.262 3.013,8.191 3.231,8.048C3.45,7.904 3.589,7.681 3.651,7.379C3.713,7.076 3.744,6.371 3.744,5.264L3.744,-1.23C3.744,-2.284 3.713,-2.965 3.651,-3.271C3.589,-3.577 3.459,-3.788 3.261,-3.906C3.062,-4.023 2.628,-4.081 1.957,-4.081L1.723,-4.081L1.723,-4.531L11.937,-4.531Z" fill-rule="nonzero"/>

        </g>

    </g>

</svg>
