<svg width="24" height="24" viewBox="0 0 16 16" version="1.1" xmlns="http://www.w3.org/2000/svg" xmlns:xlink="http://www.w3.org/1999/xlink" xml:space="preserve" xmlns:serif="http://www.serif.com/" fill-rule="evenodd" clip-rule="evenodd" stroke-linejoin="round" stroke-miterlimit="2">

    <g id="path24" transform="matrix(0.0353831,0,0,0.0353831,-2.01064,2.84418)">

        <path d="M69.899,251.246C62.023,247.144 59.993,238.164 65.705,232.685C70.732,227.863 82.629,228.063 85.726,233.022C87.549,235.941 87.379,240.145 85.314,243.187C83.56,245.772 83.522,246.017 84.736,246.905C85.791,247.677 86.508,247.658 88.552,246.804C94.848,244.173 101.795,232.583 103.842,221.294C104.753,216.271 104.861,215.85 107.794,205.919C110.23,197.669 111.764,192.36 117.763,171.419C119.24,166.262 121.475,158.669 122.729,154.544C123.983,150.419 125.53,145.019 126.166,142.544C126.802,140.069 128.658,133.506 130.291,127.96C131.925,122.414 133.324,117.446 133.401,116.919C133.479,116.393 133.777,115.727 134.064,115.44C134.35,115.153 134.585,114.3 134.585,113.544C134.585,112.307 133.869,112.169 127.46,112.169C123.541,112.169 120.347,111.915 120.362,111.606C120.376,111.297 120.909,109.019 121.546,106.544C122.182,104.069 122.884,101.284 123.106,100.356C123.362,99.287 124.096,98.648 125.11,98.613C130.275,98.433 135.856,96.595 138.153,94.319C140.093,92.395 144.335,86.394 144.335,85.573C144.335,85.257 149.101,77.026 150.919,74.203C153.303,70.5 159.721,62.612 164.027,58.092C176.877,44.605 200.293,38.25 214.166,44.485C218.398,46.386 220.689,48.919 221.884,53.016C224.378,61.573 220.167,69.086 212.385,69.964C207.634,70.499 203.973,69.098 202.067,66.015C199.894,62.499 199.991,59.585 202.451,54.439C203.604,52.026 204.345,49.526 204.098,48.883C202.712,45.271 195.566,47.578 189.717,53.526C185.522,57.791 178.968,68.657 175.841,76.53C173.697,81.925 169.835,95.418 169.835,97.511C169.835,98.18 171.459,98.402 175.648,98.308C184.382,98.111 184.165,97.828 182.088,106.707L180.822,112.121L165.134,112.543L163.47,117.822C162.554,120.724 161.376,124.943 160.851,127.197C159.881,131.358 156.886,141.723 153.707,151.918C152.743,155.012 151.212,160.243 150.306,163.543C147.049,175.404 145.01,182.32 144.335,183.793C143.957,184.618 142.798,187.825 141.759,190.918C140.118,195.805 137.93,201.883 135.236,209.041C129.613,223.978 116.722,240.527 105.71,246.945C97.957,251.464 93.69,252.566 82.835,252.853C74.067,253.084 73.23,252.98 69.899,251.246L69.899,251.246ZM286.022,248.735C275.378,242.316 270.685,238.685 263.369,231.211C248.728,216.252 236.475,192.821 232.051,171.326C230.226,162.458 229.47,140.132 230.589,128.151C231.172,121.909 234.098,108.819 235.754,105.044C236.116,104.219 238.182,99.256 240.345,94.015C242.508,88.774 244.744,83.88 245.314,83.14C245.884,82.399 248.5,78.546 251.127,74.577C257.503,64.942 263.833,57.847 271.969,51.215C275.592,48.262 289.287,39.591 291.898,38.598C293.443,38.01 293.585,38.171 293.585,40.508C293.585,42.836 293.173,43.31 288.898,45.9C286.32,47.462 281.672,51.283 278.569,54.392C271.792,61.181 269.099,65.128 263.201,76.919C262.372,78.575 258.73,88.912 257.915,91.919C252.386,112.329 250.812,134.617 252.804,164.303C253.745,178.326 254.94,186.174 257.93,197.96C260.599,208.482 266.355,220.746 272.254,228.48C277.344,235.155 283.599,241.29 289.353,245.253C293.067,247.811 293.585,248.474 293.585,250.668C293.585,252.043 293.501,253.146 293.398,253.119C293.295,253.09 289.976,251.118 286.023,248.735L286.022,248.735ZM439.092,250.356C439.097,248.616 439.909,247.794 444.284,245.095C454.532,238.773 466.019,224.648 470.923,212.338C474.193,204.132 478.304,186.943 479.903,174.794C482.078,158.27 481.766,128.356 479.278,114.794C479.051,113.556 478.652,110.687 478.391,108.419C478.13,106.15 477.605,103.703 477.225,102.981C476.844,102.259 476.685,101.669 476.871,101.669C477.057,101.669 476.059,97.231 474.654,91.808C472.079,81.871 468.909,74.582 463.477,66.111C460.18,60.969 449.592,50.133 443.378,45.543C440.17,43.173 439.085,41.903 439.085,40.52C439.085,39.502 439.434,38.669 439.86,38.669C441.973,38.669 456.846,47.563 460.308,50.897C461.249,51.802 463.789,54.062 465.953,55.919C471.057,60.298 481.528,72.792 484.676,78.26C493.341,93.309 499.213,109.248 502.002,125.294C503.141,131.844 503.393,136.402 503.225,147.419C503.109,155.05 502.805,162.137 502.551,163.169C502.296,164.2 501.882,166.562 501.63,168.419C501.378,170.275 500.815,172.469 500.377,173.294C499.94,174.119 499.664,174.884 499.765,174.994C500.159,175.422 498.852,180.379 496.405,187.735C490.053,206.831 477.462,225.562 462.239,238.563C459.443,240.951 448.702,248.276 444.811,250.448C440.258,252.99 439.084,252.971 439.092,250.356L439.092,250.356ZM309.288,205.247C302.173,203.791 298.676,197.528 300.256,189.07C301.366,183.129 306.504,179.032 313.152,178.788C316.136,178.678 317.977,179.199 323.514,181.722C328.289,183.898 331.409,184.047 335.138,182.278C339.193,180.353 345.59,173.926 352.282,165.051C352.596,164.635 353.862,162.982 355.094,161.378C357.652,158.05 357.712,157.647 356.306,153.257C355.739,151.49 353.333,143.8 350.959,136.169C343.354,111.723 339.015,103.91 332.391,102.733C329.111,102.15 324.948,102.216 322.648,102.887C321.728,103.155 321.335,102.849 321.335,101.863C321.335,98.616 322.815,98.038 337.085,95.703C366.011,90.97 363.343,91.24 364.882,92.892C368.199,96.452 376.718,115.944 379.125,125.481C379.672,127.647 380.308,129.4 380.54,129.378C380.771,129.355 384.166,124.715 388.085,119.066C392.405,112.838 398.015,105.955 402.335,101.584C410.34,93.485 413.856,91.722 422.232,91.606C431.458,91.479 436.085,95.799 436.085,104.54C436.085,109.66 434.364,113.402 430.985,115.631C428.368,117.356 420.985,117.655 415.704,116.249C411.098,115.024 404.77,114.851 402.071,115.877C397.932,117.45 390.924,125.736 384.787,136.311L382.745,139.829L388.028,155.811C390.933,164.602 394.447,174.156 395.836,177.044C398.303,182.173 402.388,187.075 404.353,187.262C409.188,187.724 410.795,187.156 413.871,183.898C417.341,180.225 418.263,179.089 419.471,176.996C421.746,173.056 422.387,172.655 424.806,173.656C426.06,174.176 427.085,174.831 427.085,175.113C427.085,175.992 422.589,182.763 419.364,186.741C415.893,191.021 406.192,200.669 405.359,200.669C405.06,200.669 404.035,201.345 403.082,202.172C400.621,204.306 396.04,205.459 389.96,205.475C380.557,205.5 374.324,200.713 368.674,189.13C367.042,185.782 364.863,180.681 363.833,177.794C360.873,169.496 359.529,166.671 358.881,167.382C358.55,167.746 355.294,171.756 351.645,176.294C338.569,192.552 331.553,199.364 323.96,203.174C319.89,205.216 313.529,206.115 309.288,205.247L309.288,205.247Z" fill="rgb(140, 215, 205)" fill-rule="nonzero" stroke="rgb(140, 215, 205)" stroke-width="10.3px"/>

    </g>

</svg>
