<svg width="100%" height="100%" viewBox="0 0 29 36" version="1.1" xmlns="http://www.w3.org/2000/svg" xmlns:xlink="http://www.w3.org/1999/xlink" xml:space="preserve" xmlns:serif="http://www.serif.com/" fill-rule="evenodd" clip-rule="evenodd" stroke-linejoin="round" stroke-miterlimit="2">

    <g transform="matrix(1,0,0,1,-3.99945,0)">

        <g transform="matrix(0.05,0,0,0.05,-2,-2)">

            <path d="M657.28,600C575.48,395.72 480,341.88 480,240L480,120L500,120C510.972,120 520,110.972 520,100L520,60C520,49.028 510.972,40 500,40L300,40C289.028,40 280,49.028 280,60L280,100C280,110.972 289.028,120 300,120L320,120L320,240C320,341.88 224.52,395.72 142.72,600C116.68,665 49.8,760 400,760C750.2,760 683.32,665 657.28,600ZM592.6,670.04C564.52,678.44 508.64,688 400,688C291.36,688 235.48,678.44 207.4,670.04C197.44,667.08 193.56,655.52 197.08,644.92C205.88,618.12 222.48,571.8 253.52,520.08C329.36,393.72 408.04,539.96 473.52,539.96C539,539.96 521.04,477.52 546.48,520.08C569.891,559.458 588.822,601.332 602.92,644.92C606.44,655.52 602.56,667.04 592.6,670.04Z" fill-rule="nonzero" />

        </g>

    </g>

</svg>
