<svg width="16" height="16" viewBox="0 0 16 16" version="1.1" xmlns="http://www.w3.org/2000/svg" xmlns:xlink="http://www.w3.org/1999/xlink" xml:space="preserve" xmlns:serif="http://www.serif.com/" style="fill-rule:evenodd;clip-rule:evenodd;stroke-linejoin:round;stroke-miterlimit:2;">
    <g transform="matrix(-1,0,0,1,16,0)">
        <path d="M1,0C0.451,0 -0,0.451 0,1L0,15C0,15.549 0.451,16 1,16L6,16L6,15L2,15L2,14L6,14L6,13L4,13L4,12L6,12L6,11L2,11L2,10L6,10L6,9L4,9L4,8L6,8L6,7L2,7L2,6L6,6L6,2L7,2L7,6L8,6L8,4L9,4L9,6L10,6L10,2L11,2L11,6L12,6L12,4L13,4L13,6L14,6L14,2L15,2L15,6L16,6L16,1C16,0.451 15.549,0 15,0L1,0Z" style="fill:white;fill-rule:nonzero;"/>
    </g>
</svg>
