<svg width="20%" height="20%" viewBox="0 0 128 128" version="1.1" xmlns='http://www.w3.org/2000/svg' fill-rule="evenodd" clip-rule="evenodd" stroke-linecap="round" stroke-linejoin="round" stroke-miterlimit="1">
    <path d="M93.934,44.544C94.323,44.024 94.664,43.537 94.952,43.089L99.553,38.488C104.275,41.663 108.337,45.725 111.512,50.447L106.911,55.048C109.125,58.589 110.734,62.474 111.672,66.544L118.18,66.544C119.273,72.128 119.273,77.872 118.18,83.456L111.672,83.456C110.734,87.526 109.125,91.411 106.911,94.952L111.512,99.553C108.337,104.275 104.275,108.337 99.553,111.512L94.952,106.911C91.411,109.125 87.526,110.734 83.456,111.672L83.456,118.18C77.872,119.273 72.128,119.273 66.544,118.18L66.544,111.672C62.474,110.734 58.589,109.125 55.048,106.911L50.447,111.512C45.725,108.337 41.663,104.275 38.488,99.553L43.089,94.952C41.759,92.824 40.647,90.573 39.768,88.232C41.323,88.816 42.919,89.298 44.544,89.672L44.544,96.18C50.128,97.273 55.872,97.273 61.456,96.18L61.456,89.672C62.309,89.476 63.154,89.25 63.989,88.994C67.02,91.383 70.845,92.809 75,92.809C84.829,92.809 92.809,84.829 92.809,75C92.809,70.845 91.383,67.02 88.994,63.989C89.25,63.154 89.476,62.309 89.672,61.456L96.18,61.456C97.273,55.872 97.273,50.128 96.18,44.544L93.934,44.544Z" fill="none" stroke="white" stroke-opacity="0.5" stroke-width="6.25" />
    <g transform="matrix(1,0,0,1,-11,-11)">
        <path d="M72.456,20.82C66.872,19.727 61.128,19.727 55.544,20.82L55.544,27.328C51.474,28.266 47.589,29.875 44.048,32.089L39.447,27.488C34.725,30.663 30.663,34.725 27.488,39.447L32.089,44.048C29.875,47.589 28.266,51.474 27.328,55.544L20.82,55.544C19.727,61.128 19.727,66.872 20.82,72.456L27.328,72.456C28.266,76.526 29.875,80.411 32.089,83.952L27.488,88.553C30.663,93.275 34.725,97.337 39.447,100.512L44.048,95.911C47.589,98.125 51.474,99.734 55.544,100.672L55.544,107.18C61.128,108.273 66.872,108.273 72.456,107.18L72.456,100.672C76.526,99.734 80.411,98.125 83.952,95.911L88.553,100.512C93.275,97.337 97.337,93.275 100.512,88.553L95.911,83.952C98.125,80.411 99.734,76.526 100.672,72.456L107.18,72.456C108.273,66.872 108.273,61.128 107.18,55.544L100.672,55.544C99.734,51.474 98.125,47.589 95.911,44.048L100.512,39.447C97.337,34.725 93.275,30.663 88.553,27.488L83.952,32.089C80.411,29.875 76.526,28.266 72.456,27.328L72.456,20.82ZM64,46.191C73.829,46.191 81.809,54.171 81.809,64C81.809,73.829 73.829,81.809 64,81.809C54.171,81.809 46.191,73.829 46.191,64C46.191,54.171 54.171,46.191 64,46.191Z" fill="none" stroke="white" stroke-width="6.25" />
    </g>
</svg>
