<svg width="20%" height="20%" viewBox="0 0 128 128" version="1.1" xmlns='http://www.w3.org/2000/svg' fill-rule="evenodd" clip-rule="evenodd" stroke-linejoin="round" stroke-miterlimit="2">
    <g transform="matrix(0.911443,0,0,0.971507,2.77114,2.07727)">
        <path d="M102.56,27.017C104.026,26.902 105.087,26.318 105.789,25.54C107.424,23.727 107.06,20.692 105.047,19.172C103.859,18.275 102.097,17.842 99.837,18.64C73.119,28.076 64.02,44.716 55.967,61.9C48.154,78.571 41.382,95.78 19.372,106.906C18.755,107.218 18.504,107.927 18.799,108.523C19.094,109.12 19.833,109.397 20.485,109.156C42.084,101.174 50.909,81.967 60.328,63.885C69.408,46.452 79.058,30.076 102.56,27.017Z" fill="white" />
    </g>
</svg>
