<?xml version="1.0" encoding="UTF-8" standalone="no"?>
<!DOCTYPE svg PUBLIC "-//W3C//DTD SVG 1.1//EN" "http://www.w3.org/Graphics/SVG/1.1/DTD/svg11.dtd">
<svg width="100%" height="100%" viewBox="0 0 91 101" version="1.1" xmlns="http://www.w3.org/2000/svg" xmlns:xlink="http://www.w3.org/1999/xlink" xml:space="preserve" xmlns:serif="http://www.serif.com/" style="fill-rule:evenodd;clip-rule:evenodd;stroke-linejoin:round;stroke-miterlimit:2;">
    <g transform="matrix(0.259627,0,0,0.259627,-17.0942,-19.8697)">
        <g transform="matrix(1.33333,0,0,1.33333,475.714,6.99998)">
            <path d="M-131.036,339.658C-126.704,338.869 -120.461,337.732 -117.161,337.131C-102.86,334.528 -86.732,327.821 -74.346,319.328C-71.176,317.154 -66.976,314.267 -65.014,312.914C-60.393,309.725 -52.053,300.829 -48.404,295.196C-43.076,286.97 -43.73,287.196 -61.286,299.632C-71.994,307.218 -76.296,309.145 -89.411,312.231C-109.075,316.858 -115.34,317.342 -134.036,315.678C-146.344,314.582 -155.708,311.707 -167.683,305.347C-175.419,301.238 -177.863,299.487 -182.436,294.774C-196.12,280.673 -202.039,269.843 -202.384,258.274C-202.548,252.772 -202.397,252.12 -200.148,248.579C-198.822,246.491 -197.532,243.518 -197.281,241.973C-196.88,239.5 -197.125,238.854 -199.328,236.582C-200.704,235.162 -201.433,234 -200.948,234C-199.864,234 -197.036,228.618 -197.036,226.555C-197.036,225.727 -198.522,223.376 -200.339,221.331C-202.156,219.285 -203.883,216.514 -204.178,215.173C-204.958,211.621 -203.335,210.75 -195.934,210.75C-188.931,210.75 -187.102,209.863 -185.769,205.824C-184.375,201.599 -185.347,198.747 -189.599,194.592C-194.952,189.361 -196.643,186.006 -198.454,177.031C-199.827,170.227 -200.374,168.834 -202.573,166.531C-203.967,165.07 -205.504,163.103 -205.989,162.159C-207.346,159.513 -206.211,153.847 -203.867,151.566C-199.363,147.185 -199.222,146.676 -199.758,136.724C-200.275,127.122 -199.693,123.182 -196.941,117.637C-194.716,113.157 -188.264,105.106 -180.603,97.251C-174.787,91.288 -171.761,88.902 -164.786,84.782C-154.22,78.541 -150.917,77.025 -141.658,74.164C-132.663,71.386 -120.471,69.258 -109.661,68.58C-100.94,68.033 -88.445,69.45 -81.633,71.759C-77.171,73.272 -76.171,72.049 -79.82,69.541C-81.382,68.468 -86.879,65.729 -92.036,63.455C-105.651,57.45 -121.045,53.863 -137.411,52.88C-147.275,52.288 -170.567,53.497 -177.911,54.982C-180.798,55.566 -185.692,56.443 -188.786,56.93C-191.879,57.418 -196.942,58.522 -200.036,59.385C-203.129,60.247 -207.348,61.366 -209.411,61.871C-215.651,63.398 -232.941,71.14 -240.911,75.975C-249.411,81.132 -251.523,82.691 -261.543,91.209C-277.474,104.752 -287.732,119.879 -297.933,144.873C-305.425,163.229 -306.938,172.208 -306.821,197.625C-306.732,216.942 -306.709,217.202 -304.438,225.375C-300.451,239.725 -297.832,247.759 -295.882,251.625C-294.842,253.688 -293.553,256.725 -293.018,258.375C-291.881,261.884 -288.974,267.3 -286.736,270.082C-285.869,271.158 -283.811,274.301 -282.161,277.065C-275.83,287.671 -262.787,302.28 -250.661,312.347C-245.35,316.756 -233.056,324.672 -227.151,327.485C-214.093,333.705 -191.886,339.096 -170.786,341.168C-160.757,342.153 -140.502,341.383 -131.036,339.658Z" style="fill:none;stroke:rgb(217,165,103);stroke-width:1.16px;"/>
        </g>
        <g transform="matrix(1.33333,0,0,1.33333,475.714,6.99998)">
            <path d="M-172.661,337.922C-188.964,336.292 -200.658,333.871 -212.786,329.616C-226.549,324.786 -233.265,321.483 -240.911,315.781C-242.561,314.551 -245.504,312.414 -247.451,311.032C-250.666,308.75 -267.946,292.302 -271.72,287.931C-272.578,286.938 -274.551,283.931 -276.104,281.25C-277.658,278.569 -279.707,275.345 -280.657,274.086C-283.602,270.186 -289.067,260.561 -290.064,257.52C-290.585,255.928 -291.97,252.6 -293.14,250.125C-294.311,247.65 -295.758,244.106 -296.356,242.25C-296.954,240.394 -298.128,236.915 -298.965,234.52C-302.962,223.083 -304.81,209.231 -304.689,191.625C-304.641,184.588 -304.157,176.522 -303.608,173.625C-302.246,166.428 -297.637,150.201 -296.046,147C-295.328,145.556 -294.14,142.519 -293.406,140.25C-290.101,130.044 -279.39,112.713 -270.191,102.688C-265.1,97.139 -253.895,87.556 -248.786,84.381C-246.929,83.227 -244.229,81.359 -242.786,80.229C-237.419,76.029 -224.022,69.603 -209.786,64.4C-204.362,62.418 -191.604,59.418 -183.161,58.14C-179.448,57.578 -173.879,56.704 -170.786,56.199C-167.659,55.688 -157.666,55.248 -148.286,55.209C-133.6,55.146 -130.146,55.367 -121.661,56.908C-116.298,57.883 -110.392,59.268 -108.536,59.987C-106.679,60.706 -103.979,61.517 -102.536,61.789C-101.092,62.061 -97.886,63.304 -95.411,64.553C-90.911,66.822 -90.911,66.822 -94.286,66.274C-98.837,65.534 -114.267,65.829 -121.661,66.798C-128.447,67.687 -143.393,71.485 -147.911,73.468C-156.564,77.267 -162.028,80.021 -167.77,83.479C-179.422,90.495 -196.498,110.093 -200.112,120.597C-201.688,125.178 -201.992,133.986 -200.759,139.333C-199.897,143.071 -200.774,145.315 -204.473,148.832C-206.935,151.173 -208.275,154.726 -208.281,158.934C-208.286,161.759 -205.358,167.339 -203.007,168.986C-201.539,170.014 -199.329,177.887 -199.299,182.201C-199.277,185.275 -196.282,190.449 -191.674,195.375C-186.567,200.835 -185.556,203.77 -187.958,206.172C-189.28,207.494 -190.443,207.75 -195.138,207.75C-199.368,207.75 -201.479,208.135 -203.76,209.324C-207.226,211.131 -211.382,211.476 -213.046,210.095C-213.675,209.573 -214.413,208.126 -214.687,206.88C-215.087,205.058 -214.802,204.214 -213.235,202.578C-211.033,200.28 -210.808,199.5 -212.344,199.5C-214.053,199.5 -217.286,203.916 -217.286,206.25C-217.286,207.443 -216.444,209.386 -215.377,210.653C-213.838,212.482 -212.792,212.965 -209.972,213.148C-206.508,213.373 -206.461,213.412 -205.154,217.125C-204.417,219.217 -202.828,221.728 -201.56,222.805C-198.697,225.234 -198.499,228.5 -201.068,230.913C-202.754,232.497 -210.437,235.098 -211.194,234.342C-211.388,234.148 -209.599,232.175 -207.217,229.959C-201.49,224.629 -203.085,223.796 -209.187,228.931C-216.281,234.9 -221.466,237.986 -223.69,237.561C-226.295,237.063 -226.711,238.187 -224.465,239.658C-222.405,241.008 -219.688,240.71 -215.633,238.687C-214.32,238.032 -212.046,237.242 -210.578,236.931C-209.111,236.62 -207.229,236.153 -206.397,235.891C-204.43,235.274 -199.74,238.378 -199.432,240.501C-199.307,241.367 -200.436,244.393 -201.942,247.225C-204.676,252.368 -204.679,252.386 -204.381,260.25C-204.112,267.332 -203.839,268.598 -201.666,272.825C-197.597,280.745 -192.505,287.556 -184.564,295.701C-177.645,302.798 -176.207,303.881 -168.439,307.839C-157.797,313.261 -148.687,316.251 -138.536,317.651C-127.877,319.121 -108.617,319.084 -101.192,317.577C-90.013,315.31 -79.806,312.683 -76.723,311.278C-75.01,310.498 -72.754,309.645 -71.708,309.383C-70.663,309.12 -68.105,307.616 -66.023,306.041C-60.358,301.753 -54.282,297.753 -53.946,298.09C-53.093,298.943 -65.782,310.122 -73.286,315.128C-89.705,326.081 -100.456,330.591 -120.161,334.789C-137.275,338.435 -156.216,339.565 -172.661,337.921L-172.661,337.922Z" style="fill:none;stroke:rgb(217,165,103);stroke-width:1.16px;"/>
        </g>
        <g transform="matrix(1.33333,0,0,1.33333,475.714,6.99998)">
            <path d="M-123.379,333.055C-109.297,330.298 -105.861,329.457 -103.328,328.147C-100.158,326.508 -101.643,325.211 -105.075,326.622C-106.359,327.15 -108.929,327.824 -110.786,328.119C-112.642,328.415 -116.017,329.132 -118.286,329.713C-125.997,331.688 -137.275,333 -146.543,333C-151.717,333 -155.786,333.306 -155.786,333.695C-155.786,334.774 -153.978,334.911 -142.129,334.733C-134.744,334.621 -128.546,334.066 -123.379,333.055Z" style="fill:none;stroke:rgb(217,165,103);stroke-width:1.16px;"/>
        </g>
        <g transform="matrix(1.33333,0,0,1.33333,475.714,6.99998)">
            <path d="M-161.036,333.795C-161.036,332.782 -162.403,332.08 -163.298,332.634C-163.717,332.893 -163.866,333.419 -163.629,333.803C-163.066,334.714 -161.036,334.708 -161.036,333.795Z" style="fill:none;stroke:rgb(217,165,103);stroke-width:1.16px;"/>
        </g>
        <g transform="matrix(1.33333,0,0,1.33333,475.714,6.99998)">
            <path d="M-166.657,333.746C-166.182,332.977 -167.031,332.499 -169.583,332.099C-171.424,331.81 -172.044,333.515 -170.265,333.976C-167.943,334.578 -167.14,334.527 -166.657,333.746L-166.657,333.746Z" style="fill:none;stroke:rgb(217,165,103);stroke-width:1.16px;"/>
        </g>
        <g transform="matrix(1.33333,0,0,1.33333,475.714,6.99998)">
            <path d="M-176.036,333.731C-176.036,332.661 -179.381,331.5 -182.468,331.5C-185.154,331.5 -202.801,327.281 -211.286,324.61C-218.059,322.477 -229.928,316.429 -237.674,311.163C-241.85,308.324 -244.372,307.032 -244.7,307.564C-246.168,309.938 -229.947,320.139 -215.438,325.967C-210.756,327.848 -188.812,333.49 -184.286,333.977C-178.867,334.561 -176.036,334.476 -176.036,333.731Z" style="fill:none;stroke:rgb(217,165,103);stroke-width:1.16px;"/>
        </g>
        <g transform="matrix(1.33333,0,0,1.33333,475.714,6.99998)">
            <path d="M-155.036,328.965C-155.036,328.191 -156.883,327.796 -162.348,327.401C-166.37,327.11 -173.036,326.386 -177.161,325.792C-181.286,325.199 -187.416,324.408 -190.783,324.035C-194.151,323.662 -197.863,322.868 -199.033,322.27C-200.203,321.673 -203.692,320.615 -206.786,319.92C-212.846,318.559 -225.164,313.915 -227.095,312.264C-227.746,311.707 -228.927,311.263 -229.72,311.278C-233.628,311.351 -221.812,318.04 -212.786,320.864C-196.394,325.993 -184.405,328.374 -170.786,329.206C-155.702,330.127 -155.036,330.117 -155.036,328.965Z" style="fill:none;stroke:rgb(217,165,103);stroke-width:1.16px;"/>
        </g>
        <g transform="matrix(1.33333,0,0,1.33333,475.714,6.99998)">
            <path d="M-131.036,328.971C-124.094,328.621 -108.815,325.16 -107.08,323.544C-104.866,321.48 -107.277,321.558 -115.477,323.813C-125.776,326.647 -127.578,326.922 -138.78,327.374C-143.657,327.571 -148.045,327.988 -148.53,328.299C-149.682,329.041 -145.168,329.731 -140.786,329.483C-138.929,329.378 -134.542,329.147 -131.036,328.971L-131.036,328.971Z" style="fill:none;stroke:rgb(217,165,103);stroke-width:1.16px;"/>
        </g>
        <g transform="matrix(1.33333,0,0,1.33333,475.714,6.99998)">
            <path d="M-94.986,324.725C-93.138,323.735 -93.114,322.501 -94.944,322.501C-96.509,322.501 -98.3,324.237 -97.529,325.008C-96.878,325.659 -96.692,325.638 -94.986,324.725L-94.986,324.725Z" style="fill:none;stroke:rgb(217,165,103);stroke-width:1.16px;"/>
        </g>
        <g transform="matrix(1.33333,0,0,1.33333,475.714,6.99998)">
            <path d="M-171.679,321.695C-171.827,321.252 -172.269,320.889 -172.661,320.889C-173.053,320.889 -173.494,321.252 -173.642,321.695C-173.79,322.139 -173.348,322.501 -172.661,322.501C-171.973,322.501 -171.532,322.139 -171.679,321.695Z" style="fill:none;stroke:rgb(217,165,103);stroke-width:1.16px;"/>
        </g>
        <g transform="matrix(1.33333,0,0,1.33333,475.714,6.99998)">
            <path d="M-177.536,320.626C-177.536,319.876 -178.286,319.501 -179.786,319.501C-181.936,319.501 -182.611,320.176 -181.536,321.251C-180.554,322.233 -177.536,321.762 -177.536,320.626Z" style="fill:none;stroke:rgb(217,165,103);stroke-width:1.16px;"/>
        </g>
        <g transform="matrix(1.33333,0,0,1.33333,475.714,6.99998)">
            <path d="M-86.021,319.858C-85.499,319.23 -85.274,318.513 -85.521,318.266C-86.29,317.498 -88.286,318.644 -88.286,319.853C-88.286,321.322 -87.237,321.324 -86.021,319.859L-86.021,319.858Z" style="fill:none;stroke:rgb(217,165,103);stroke-width:1.16px;"/>
        </g>
        <g transform="matrix(1.33333,0,0,1.33333,475.714,6.99998)">
            <path d="M-186.911,319.214C-186.911,318.849 -190.623,317.773 -195.161,316.822C-199.698,315.871 -204.17,314.864 -205.098,314.585C-207.171,313.96 -207.383,315.379 -205.377,316.453C-200.315,319.162 -186.911,321.166 -186.911,319.214Z" style="fill:none;stroke:rgb(217,165,103);stroke-width:1.16px;"/>
        </g>
        <g transform="matrix(1.33333,0,0,1.33333,475.714,6.99998)">
            <path d="M-210.536,314.278C-210.536,313.063 -213.598,311.764 -214.451,312.617C-214.866,313.031 -214.978,313.738 -214.701,314.186C-214.078,315.194 -210.536,315.272 -210.536,314.278L-210.536,314.278Z" style="fill:none;stroke:rgb(217,165,103);stroke-width:1.16px;"/>
        </g>
        <g transform="matrix(1.33333,0,0,1.33333,475.714,6.99998)">
            <path d="M-218.958,309.892C-218.794,309.402 -219.078,309.001 -219.588,309.001C-220.719,309.001 -235.35,299.63 -241.989,294.653C-244.645,292.662 -247.007,291.227 -247.239,291.465C-247.993,292.236 -239.942,299.058 -231.844,304.511C-221.77,311.295 -219.712,312.155 -218.958,309.892Z" style="fill:none;stroke:rgb(217,165,103);stroke-width:1.16px;"/>
        </g>
        <g transform="matrix(1.33333,0,0,1.33333,475.714,6.99998)">
            <path d="M-233.442,308.303C-233.205,307.918 -233.774,307.069 -234.707,306.416C-236.603,305.088 -237.502,306.109 -236.015,307.902C-234.966,309.165 -234.063,309.306 -233.442,308.303Z" style="fill:none;stroke:rgb(217,165,103);stroke-width:1.16px;"/>
        </g>
        <g transform="matrix(1.33333,0,0,1.33333,475.714,6.99998)">
            <path d="M-177.309,307.137C-177.227,306.73 -177.751,306.283 -178.473,306.144C-179.294,305.986 -179.786,306.354 -179.786,307.126C-179.786,308.431 -177.569,308.44 -177.309,307.138L-177.309,307.137Z" style="fill:none;stroke:rgb(217,165,103);stroke-width:1.16px;"/>
        </g>
        <g transform="matrix(1.33333,0,0,1.33333,475.714,6.99998)">
            <path d="M-239.161,303.85C-239.501,302.961 -247.743,295.502 -248.384,295.502C-249.732,295.502 -259.09,286.643 -264.097,280.626C-267.18,276.922 -270.059,273.671 -270.494,273.402C-272.132,272.39 -271.2,275.459 -269.063,278.114C-260.804,288.38 -258.836,290.505 -254.624,293.713C-252.031,295.687 -248.071,298.922 -245.823,300.902C-242.248,304.051 -238.437,305.737 -239.161,303.85Z" style="fill:none;stroke:rgb(217,165,103);stroke-width:1.16px;"/>
        </g>
        <g transform="matrix(1.33333,0,0,1.33333,475.714,6.99998)">
            <path d="M-248.955,303.617C-249.366,302.384 -251.606,301.072 -252.232,301.697C-252.945,302.411 -251.1,304.501 -249.756,304.501C-249.154,304.501 -248.793,304.104 -248.955,303.617Z" style="fill:none;stroke:rgb(217,165,103);stroke-width:1.16px;"/>
        </g>
        <g transform="matrix(1.33333,0,0,1.33333,475.714,6.99998)">
            <path d="M-183.268,301.868C-183.497,301.27 -184.827,300.076 -186.224,299.212C-187.62,298.349 -190.955,295.242 -193.634,292.307C-198.408,287.075 -199.937,286.266 -198.905,289.519C-198.239,291.618 -189.93,300.127 -186.589,302.131C-183.865,303.765 -182.579,303.663 -183.268,301.868L-183.268,301.868Z" style="fill:none;stroke:rgb(217,165,103);stroke-width:1.16px;"/>
        </g>
        <g transform="matrix(1.33333,0,0,1.33333,475.714,6.99998)">
            <path d="M-254.036,299.774C-254.036,299.236 -255.218,297.65 -256.662,296.25C-260.232,292.791 -261.638,294.125 -258.472,297.967C-256.179,300.748 -254.036,301.621 -254.036,299.774Z" style="fill:none;stroke:rgb(217,165,103);stroke-width:1.16px;"/>
        </g>
        <g transform="matrix(1.33333,0,0,1.33333,475.714,6.99998)">
            <path d="M-232.661,295.031C-234.707,293.542 -238.8,290.706 -242.411,288.275C-244.061,287.164 -245.781,285.753 -246.234,285.139C-246.705,284.502 -247.455,284.268 -247.983,284.594C-249.345,285.435 -245.801,288.906 -238.686,293.701C-234.483,296.532 -232.481,297.489 -231.936,296.924C-231.397,296.367 -231.619,295.788 -232.661,295.031Z" style="fill:none;stroke:rgb(217,165,103);stroke-width:1.16px;"/>
        </g>
        <g transform="matrix(1.33333,0,0,1.33333,475.714,6.99998)">
            <path d="M-265.419,287.839C-266.789,286.073 -269.137,283.191 -270.635,281.435C-272.133,279.678 -274.482,276.387 -275.856,274.121C-278.198,270.257 -280.286,268.773 -280.286,270.974C-280.286,272.749 -273.006,283.055 -268.257,288.002C-263.202,293.267 -261.29,293.157 -265.419,287.839L-265.419,287.839Z" style="fill:none;stroke:rgb(217,165,103);stroke-width:1.16px;"/>
        </g>
        <g transform="matrix(1.33333,0,0,1.33333,475.714,6.99998)">
            <path d="M-249.536,288.093C-249.536,287.731 -250.012,287.04 -250.594,286.557C-251.769,285.582 -252.971,286.69 -252.161,288.002C-251.59,288.926 -249.536,288.998 -249.536,288.093Z" style="fill:none;stroke:rgb(217,165,103);stroke-width:1.16px;"/>
        </g>
        <g transform="matrix(1.33333,0,0,1.33333,475.714,6.99998)">
            <path d="M-255.536,283.422C-255.536,282.966 -256.314,281.98 -257.265,281.232C-258.216,280.484 -260.455,277.735 -262.241,275.124C-264.026,272.513 -266.413,269.027 -267.545,267.377C-268.677,265.727 -271.198,261.391 -273.148,257.742C-275.702,252.962 -276.92,251.336 -277.508,251.924C-279.31,253.725 -265.15,277.585 -259.102,282.939C-257.432,284.418 -255.536,284.674 -255.536,283.422Z" style="fill:none;stroke:rgb(217,165,103);stroke-width:1.16px;"/>
        </g>
        <g transform="matrix(1.33333,0,0,1.33333,475.714,6.99998)">
            <path d="M-201.044,281.659C-201.289,281.022 -201.837,280.502 -202.262,280.502C-203.361,280.502 -203.224,282.559 -202.098,282.961C-200.824,283.416 -200.516,283.036 -201.045,281.659L-201.044,281.659Z" style="fill:none;stroke:rgb(217,165,103);stroke-width:1.16px;"/>
        </g>
        <g transform="matrix(1.33333,0,0,1.33333,475.714,6.99998)">
            <path d="M-251.57,279.667C-252.836,278.401 -254.34,279.606 -253.204,280.975C-252.576,281.731 -252.06,281.826 -251.517,281.283C-250.975,280.741 -250.991,280.246 -251.57,279.667Z" style="fill:none;stroke:rgb(217,165,103);stroke-width:1.16px;"/>
        </g>
        <g transform="matrix(1.33333,0,0,1.33333,475.714,6.99998)">
            <path d="M-204.633,274.545C-205.573,271.849 -207.536,269.949 -207.536,271.736C-207.536,273.907 -206.08,276.752 -204.968,276.752C-204.072,276.752 -204.008,276.336 -204.633,274.545Z" style="fill:none;stroke:rgb(217,165,103);stroke-width:1.16px;"/>
        </g>
        <g transform="matrix(1.33333,0,0,1.33333,475.714,6.99998)">
            <path d="M-258.536,270.942C-259.935,268.981 -262.195,265.689 -263.558,263.627C-266.756,258.788 -267.594,257.81 -268.104,258.32C-268.728,258.944 -266.037,264.63 -263.106,268.877C-259.168,274.582 -257.621,276.137 -256.749,275.265C-256.24,274.756 -256.825,273.34 -258.536,270.942Z" style="fill:none;stroke:rgb(217,165,103);stroke-width:1.16px;"/>
        </g>
        <g transform="matrix(1.33333,0,0,1.33333,475.714,6.99998)">
            <path d="M-274.675,266.503C-275.416,265.127 -276.306,264.002 -276.654,264.002C-277.814,264.002 -277.304,266.369 -275.642,268.704C-273.535,271.662 -272.799,269.986 -274.675,266.503Z" style="fill:none;stroke:rgb(217,165,103);stroke-width:1.16px;"/>
        </g>
        <g transform="matrix(1.33333,0,0,1.33333,475.714,6.99998)">
            <path d="M-281.504,265.848C-281.249,265.184 -281.546,264.508 -282.206,264.256C-283.673,263.692 -284.343,264.37 -283.777,265.844C-283.208,267.328 -282.072,267.33 -281.504,265.848L-281.504,265.848Z" style="fill:none;stroke:rgb(217,165,103);stroke-width:1.16px;"/>
        </g>
        <g transform="matrix(1.33333,0,0,1.33333,475.714,6.99998)">
            <path d="M-207.127,260.639C-207.52,257.491 -207.242,255.632 -205.729,251.301C-203.613,245.247 -204.578,244.329 -207.348,249.76C-209.061,253.12 -209.535,258.315 -208.569,263.146C-207.793,267.029 -206.589,264.939 -207.127,260.639Z" style="fill:none;stroke:rgb(217,165,103);stroke-width:1.16px;"/>
        </g>
        <g transform="matrix(1.33333,0,0,1.33333,475.714,6.99998)">
            <path d="M-211.453,256.689C-211.402,251.483 -211.508,251.028 -212.466,252.332C-214.088,254.541 -213.777,262.502 -212.067,262.502C-211.761,262.502 -211.484,259.886 -211.453,256.689Z" style="fill:none;stroke:rgb(217,165,103);stroke-width:1.16px;"/>
        </g>
        <g transform="matrix(1.33333,0,0,1.33333,475.714,6.99998)">
            <path d="M-285.917,255.287C-286.945,252.557 -287.786,250.194 -287.786,250.037C-287.786,249.88 -288.298,249.752 -288.925,249.752C-290.231,249.752 -289.842,252.328 -287.962,256.127C-284.98,262.152 -283.554,261.566 -285.917,255.287Z" style="fill:none;stroke:rgb(217,165,103);stroke-width:1.16px;"/>
        </g>
        <g transform="matrix(1.33333,0,0,1.33333,475.714,6.99998)">
            <path d="M-278.572,259.033C-278.661,258.672 -280.548,254.158 -282.765,249.002C-286.181,241.06 -290.707,226.371 -292.669,216.865C-292.981,215.355 -293.46,214.626 -293.87,215.036C-295.448,216.614 -290.238,238.621 -286.361,246.752C-285.083,249.433 -284.037,252.073 -284.036,252.618C-284.035,254.325 -280.148,260.332 -279.258,260.003C-278.792,259.83 -278.483,259.394 -278.572,259.033Z" style="fill:none;stroke:rgb(217,165,103);stroke-width:1.16px;"/>
        </g>
        <g transform="matrix(1.33333,0,0,1.33333,475.714,6.99998)">
            <path d="M-215.786,254.957C-215.786,254.157 -216.123,253.502 -216.536,253.502C-216.948,253.502 -217.286,254.365 -217.286,255.421C-217.286,256.509 -216.961,257.139 -216.536,256.877C-216.123,256.622 -215.786,255.758 -215.786,254.957Z" style="fill:none;stroke:rgb(217,165,103);stroke-width:1.16px;"/>
        </g>
        <g transform="matrix(1.33333,0,0,1.33333,475.714,6.99998)">
            <path d="M-269.421,253.519C-269.172,253.116 -269.872,251.175 -270.977,249.206C-275.346,241.422 -277.092,238.045 -277.641,236.315C-277.956,235.32 -278.713,233.313 -279.323,231.853C-280.204,229.744 -280.566,229.438 -281.083,230.363C-281.962,231.933 -278.803,240.51 -275.047,246.752C-273.433,249.433 -271.891,252.217 -271.619,252.939C-271.072,254.392 -270.117,254.644 -269.421,253.519Z" style="fill:none;stroke:rgb(217,165,103);stroke-width:1.16px;"/>
        </g>
        <g transform="matrix(1.33333,0,0,1.33333,475.714,6.99998)">
            <path d="M-210.536,247.502C-210.536,247.089 -211.906,246.752 -213.58,246.752C-215.418,246.752 -216.441,247.049 -216.161,247.502C-215.906,247.914 -214.536,248.252 -213.116,248.252C-211.697,248.252 -210.536,247.914 -210.536,247.502Z" style="fill:none;stroke:rgb(217,165,103);stroke-width:1.16px;"/>
        </g>
        <g transform="matrix(1.33333,0,0,1.33333,475.714,6.99998)">
            <path d="M-228.536,247.373C-228.536,246.326 -230.751,243.752 -231.652,243.752C-232.694,243.752 -232.371,245.414 -231.044,246.88C-229.627,248.446 -228.536,248.66 -228.536,247.373Z" style="fill:none;stroke:rgb(217,165,103);stroke-width:1.16px;"/>
        </g>
        <g transform="matrix(1.33333,0,0,1.33333,475.714,6.99998)">
            <path d="M-279.78,242.693C-280.883,240.44 -281.786,238.22 -281.786,237.762C-281.786,237.303 -282.317,235.9 -282.966,234.644C-283.616,233.389 -285.133,227.921 -286.339,222.494C-287.545,217.067 -288.708,211.867 -288.923,210.939C-289.533,208.308 -290.7,208.957 -290.438,211.781C-289.885,217.729 -289.081,222.643 -288.031,226.502C-284.574,239.192 -280.107,249.123 -278.554,247.57C-278.013,247.029 -278.39,245.531 -279.78,242.693Z" style="fill:none;stroke:rgb(217,165,103);stroke-width:1.16px;"/>
        </g>
        <g transform="matrix(1.33333,0,0,1.33333,475.714,6.99998)">
            <path d="M-290.411,245.252C-290.411,244.702 -290.833,244.111 -291.348,243.939C-291.906,243.753 -292.286,244.285 -292.286,245.252C-292.286,246.218 -291.906,246.75 -291.348,246.564C-290.833,246.392 -290.411,245.802 -290.411,245.252Z" style="fill:none;stroke:rgb(217,165,103);stroke-width:1.16px;"/>
        </g>
        <g transform="matrix(1.33333,0,0,1.33333,475.714,6.99998)">
            <path d="M-268.458,244.361C-268.921,242.97 -270.536,242.74 -270.536,244.064C-270.536,244.717 -270.001,245.252 -269.348,245.252C-268.695,245.252 -268.294,244.851 -268.458,244.361Z" style="fill:none;stroke:rgb(217,165,103);stroke-width:1.16px;"/>
        </g>
        <g transform="matrix(1.33333,0,0,1.33333,475.714,6.99998)">
            <path d="M-226.414,241.707C-227.043,240.975 -227.775,239.765 -228.041,239.017C-228.685,237.206 -230.036,238.128 -230.036,240.378C-230.036,242.448 -227.122,244.888 -225.996,243.762C-225.529,243.295 -225.678,242.563 -226.414,241.707Z" style="fill:none;stroke:rgb(217,165,103);stroke-width:1.16px;"/>
        </g>
        <g transform="matrix(1.33333,0,0,1.33333,475.714,6.99998)">
            <path d="M-292.571,238.386C-293.105,235.717 -294.402,233.831 -295.315,234.395C-295.903,234.758 -295.163,238.38 -294.176,239.977C-293.118,241.689 -292.111,240.689 -292.571,238.386Z" style="fill:none;stroke:rgb(217,165,103);stroke-width:1.16px;"/>
        </g>
        <g transform="matrix(1.33333,0,0,1.33333,475.714,6.99998)">
            <path d="M-272.036,237.787C-272.036,237.394 -272.343,236.297 -272.718,235.349C-274.011,232.088 -277.113,221.619 -278.007,217.502C-279.285,211.613 -279.479,211.145 -280.296,211.962C-282.009,213.675 -277.164,233.909 -274.179,237.505C-273.217,238.664 -272.036,238.82 -272.036,237.787Z" style="fill:none;stroke:rgb(217,165,103);stroke-width:1.16px;"/>
        </g>
        <g transform="matrix(1.33333,0,0,1.33333,475.714,6.99998)">
            <path d="M-296.783,221.358C-299.589,205.341 -299.854,202.055 -299.391,189.002C-299.027,178.759 -298.525,174.281 -297.105,168.613C-293.784,155.356 -295.407,154.402 -299.226,167.366C-301.48,175.014 -301.514,175.382 -301.57,192.752C-301.615,207.029 -301.393,211.16 -300.397,214.502C-299.721,216.77 -298.93,220.483 -298.64,222.752C-298.35,225.02 -297.737,227.552 -297.278,228.377C-296.47,229.829 -296.435,229.82 -296.177,228.108C-296.03,227.135 -296.303,224.097 -296.783,221.358L-296.783,221.358Z" style="fill:none;stroke:rgb(217,165,103);stroke-width:1.16px;"/>
        </g>
        <g transform="matrix(1.33333,0,0,1.33333,475.714,6.99998)">
            <path d="M-281.411,223.814C-281.411,223.023 -281.833,222.377 -282.348,222.377C-282.864,222.377 -283.286,222.63 -283.286,222.939L-283.286,224.689C-283.286,225.342 -282.864,225.736 -282.348,225.564C-281.833,225.392 -281.411,224.605 -281.411,223.814Z" style="fill:none;stroke:rgb(217,165,103);stroke-width:1.16px;"/>
        </g>
        <g transform="matrix(1.33333,0,0,1.33333,475.714,6.99998)">
            <path d="M-283.266,215.459C-283.909,214.107 -284.383,208.953 -284.618,200.761C-284.886,191.448 -285.2,188.366 -285.82,188.987C-286.371,189.538 -286.654,193.886 -286.642,201.602C-286.628,211.157 -286.376,213.932 -285.312,216.322C-284.324,218.541 -283.789,219.055 -283.139,218.405C-282.489,217.755 -282.52,217.029 -283.266,215.459L-283.266,215.459Z" style="fill:none;stroke:rgb(217,165,103);stroke-width:1.16px;"/>
        </g>
        <g transform="matrix(1.33333,0,0,1.33333,475.714,6.99998)">
            <path d="M-224.18,210.622C-224.485,206.48 -226.286,205.789 -226.286,209.814C-226.286,211.43 -226.061,212.977 -225.786,213.252C-224.558,214.48 -223.967,213.513 -224.18,210.622Z" style="fill:none;stroke:rgb(217,165,103);stroke-width:1.16px;"/>
        </g>
        <g transform="matrix(1.33333,0,0,1.33333,475.714,6.99998)">
            <path d="M-219.174,209.943C-219.983,206.26 -218.938,202.72 -216.316,200.263C-214.993,199.023 -213.469,198.007 -212.929,198.005C-212.389,198.003 -212.156,197.664 -212.411,197.252C-213.745,195.093 -219.507,198.857 -221.039,202.887C-222.532,206.812 -221.795,212.252 -219.771,212.252C-218.928,212.252 -218.786,211.705 -219.174,209.943Z" style="fill:none;stroke:rgb(217,165,103);stroke-width:1.16px;"/>
        </g>
        <g transform="matrix(1.33333,0,0,1.33333,475.714,6.99998)">
            <path d="M-294.084,203.554C-294.681,201.998 -296.036,202.274 -296.036,203.951C-296.036,204.749 -295.629,206.352 -295.133,207.514C-294.23,209.625 -294.23,209.625 -293.955,207.116C-293.804,205.736 -293.862,204.133 -294.084,203.554Z" style="fill:none;stroke:rgb(217,165,103);stroke-width:1.16px;"/>
        </g>
        <g transform="matrix(1.33333,0,0,1.33333,475.714,6.99998)">
            <path d="M-199.559,206.063C-196.934,205.565 -194.786,204.897 -194.786,204.579C-194.786,203.344 -201.947,204.027 -204.348,205.492C-206.911,207.054 -207.649,208.242 -205.559,207.44C-204.884,207.181 -202.184,206.561 -199.559,206.063Z" style="fill:none;stroke:rgb(217,165,103);stroke-width:1.16px;"/>
        </g>
        <g transform="matrix(1.33333,0,0,1.33333,475.714,6.99998)">
            <path d="M-279.819,198.188C-279.821,192.878 -279.317,186.882 -278.553,183.105C-277.067,175.751 -277.11,176.25 -277.955,176.25C-279.694,176.25 -282.536,190.956 -282.536,199.958C-282.536,206.257 -282.392,207 -281.176,207C-279.941,207 -279.817,206.197 -279.819,198.188Z" style="fill:none;stroke:rgb(217,165,103);stroke-width:1.16px;"/>
        </g>
        <g transform="matrix(1.33333,0,0,1.33333,475.714,6.99998)">
            <path d="M-189.476,205.053C-188.609,204.008 -188.708,203.889 -190.263,204.115C-191.242,204.258 -192.182,204.797 -192.352,205.313C-192.796,206.662 -190.65,206.468 -189.476,205.053L-189.476,205.053Z" style="fill:none;stroke:rgb(217,165,103);stroke-width:1.16px;"/>
        </g>
        <g transform="matrix(1.33333,0,0,1.33333,475.714,6.99998)">
            <path d="M-289.016,181.688C-288.546,178.718 -289.775,178.468 -290.858,181.313C-292.159,184.729 -292.607,201.007 -291.472,203.625C-290.59,205.661 -290.444,204.839 -289.949,195C-289.648,189.019 -289.228,183.028 -289.016,181.688Z" style="fill:none;stroke:rgb(217,165,103);stroke-width:1.16px;"/>
        </g>
        <g transform="matrix(1.33333,0,0,1.33333,475.714,6.99998)">
            <path d="M-204.911,197.108C-204.424,196.639 -204.931,196.471 -206.353,196.63C-207.559,196.765 -208.695,197.332 -208.879,197.891C-209.127,198.646 -208.756,198.769 -207.437,198.369C-206.46,198.074 -205.323,197.506 -204.911,197.108Z" style="fill:none;stroke:rgb(217,165,103);stroke-width:1.16px;"/>
        </g>
        <g transform="matrix(1.33333,0,0,1.33333,475.714,6.99998)">
            <path d="M-294.973,196.313C-294.785,195.384 -294.448,191.051 -294.223,186.683C-293.821,178.868 -292.19,170.486 -289.347,161.625C-287.199,154.933 -280.4,139.578 -277.98,135.958C-276.677,134.008 -276.162,132.606 -276.64,132.311C-277.067,132.047 -277.692,132.122 -278.029,132.478C-280.748,135.347 -291.142,157.004 -292.674,162.991C-293.326,165.54 -294.159,168.638 -294.526,169.875C-296.385,176.159 -298.009,193.348 -297.058,196.688C-296.534,198.529 -295.379,198.322 -294.973,196.313L-294.973,196.313Z" style="fill:none;stroke:rgb(217,165,103);stroke-width:1.16px;"/>
        </g>
        <g transform="matrix(1.33333,0,0,1.33333,475.714,6.99998)">
            <path d="M-274.286,196.169C-274.286,195.575 -274.623,194.88 -275.036,194.625C-275.448,194.37 -275.786,194.323 -275.786,194.519C-275.786,194.716 -275.991,195.411 -276.241,196.064C-276.54,196.842 -276.282,197.25 -275.491,197.25C-274.828,197.25 -274.286,196.764 -274.286,196.169L-274.286,196.169Z" style="fill:none;stroke:rgb(217,165,103);stroke-width:1.16px;"/>
        </g>
        <g transform="matrix(1.33333,0,0,1.33333,475.714,6.99998)">
            <path d="M-201.536,191.417C-201.536,191.096 -202.024,190.137 -202.62,189.286C-203.216,188.434 -204.1,186.166 -204.584,184.244C-205.653,180 -206.552,179.697 -206.35,183.649C-206.169,187.187 -203.994,192 -202.575,192C-202.003,192 -201.536,191.738 -201.536,191.417Z" style="fill:none;stroke:rgb(217,165,103);stroke-width:1.16px;"/>
        </g>
        <g transform="matrix(1.33333,0,0,1.33333,475.714,6.99998)">
            <path d="M-273.586,185.562C-272.515,179.478 -271.227,172.959 -270.818,171.563C-270.57,170.712 -270.844,170.25 -271.596,170.25C-272.253,170.25 -272.953,171.145 -273.209,172.313C-273.458,173.447 -273.833,174.881 -274.044,175.5C-274.887,177.975 -276.35,188.611 -275.981,189.573C-275.329,191.271 -274.282,189.516 -273.586,185.562Z" style="fill:none;stroke:rgb(217,165,103);stroke-width:1.16px;"/>
        </g>
        <g transform="matrix(1.33333,0,0,1.33333,475.714,6.99998)">
            <path d="M-283.43,181.441C-282.214,171.861 -271.265,144.928 -262.493,129.938C-260.743,126.947 -259.617,124.5 -259.99,124.5C-261.372,124.5 -265.965,130.764 -269.228,137.098C-271.077,140.688 -273.291,144.975 -274.148,146.625C-280.874,159.575 -288.007,184.69 -284.644,183.582C-284.103,183.403 -283.557,182.44 -283.43,181.441Z" style="fill:none;stroke:rgb(217,165,103);stroke-width:1.16px;"/>
        </g>
        <g transform="matrix(1.33333,0,0,1.33333,475.714,6.99998)">
            <path d="M-266.388,175.495C-265.931,173.229 -265.32,170.447 -265.032,169.313C-264.201,166.045 -265.941,166.837 -267.503,170.438C-268.264,172.191 -269.124,175.091 -269.414,176.882C-269.882,179.773 -269.788,180.11 -268.581,179.878C-267.597,179.688 -266.99,178.475 -266.388,175.495Z" style="fill:none;stroke:rgb(217,165,103);stroke-width:1.16px;"/>
        </g>
        <g transform="matrix(1.33333,0,0,1.33333,475.714,6.99998)">
            <path d="M-213.536,178.099C-213.536,177.18 -213.838,177.109 -215.036,177.75C-215.861,178.192 -216.536,178.71 -216.536,178.901C-216.536,179.093 -215.861,179.25 -215.036,179.25C-214.187,179.25 -213.536,178.75 -213.536,178.099Z" style="fill:none;stroke:rgb(217,165,103);stroke-width:1.16px;"/>
        </g>
        <g transform="matrix(1.33333,0,0,1.33333,475.714,6.99998)">
            <path d="M-216.638,175.555C-213.759,174.014 -215.782,172.987 -219.628,174.037C-221.433,174.53 -224.929,174.923 -227.397,174.912C-231.535,174.893 -231.767,174.978 -230.397,176.011C-228.613,177.354 -219.432,177.05 -216.638,175.555Z" style="fill:none;stroke:rgb(217,165,103);stroke-width:1.16px;"/>
        </g>
        <g transform="matrix(1.33333,0,0,1.33333,475.714,6.99998)">
            <path d="M-261.833,174.203C-262.595,173.441 -263.224,174.589 -262.598,175.601C-262.126,176.365 -261.949,176.366 -261.695,175.604C-261.522,175.083 -261.583,174.452 -261.833,174.203L-261.833,174.203Z" style="fill:none;stroke:rgb(217,165,103);stroke-width:1.16px;"/>
        </g>
        <g transform="matrix(1.33333,0,0,1.33333,475.714,6.99998)">
            <path d="M-286.661,172.875C-286.661,172.119 -287.083,171.359 -287.598,171.188C-288.192,170.99 -288.536,171.608 -288.536,172.875C-288.536,174.142 -288.192,174.76 -287.598,174.563C-287.083,174.391 -286.661,173.631 -286.661,172.875Z" style="fill:none;stroke:rgb(217,165,103);stroke-width:1.16px;"/>
        </g>
        <g transform="matrix(1.33333,0,0,1.33333,475.714,6.99998)">
            <path d="M-205.661,172.875C-205.661,172.119 -206.083,171.359 -206.598,171.188C-207.192,170.99 -207.536,171.608 -207.536,172.875C-207.536,174.142 -207.192,174.76 -206.598,174.563C-206.083,174.391 -205.661,173.631 -205.661,172.875Z" style="fill:none;stroke:rgb(217,165,103);stroke-width:1.16px;"/>
        </g>
        <g transform="matrix(1.33333,0,0,1.33333,475.714,6.99998)">
            <path d="M-217.826,171.364C-215.742,170.518 -217.633,165.75 -220.053,165.75C-220.859,165.75 -220.979,165.317 -220.524,164.063C-219.736,161.895 -219.769,155.267 -220.575,153.563C-221.02,152.623 -220.88,152.25 -220.083,152.25C-218.113,152.25 -217.068,150.308 -218.051,148.472C-218.797,147.078 -218.625,146.539 -216.838,144.674C-214.333,142.06 -215.033,141.962 -219.536,144.296C-232.788,151.166 -248.447,159.059 -248.63,158.962C-249.145,158.687 -253.286,160.734 -253.286,161.262C-253.286,161.856 -248.981,162.668 -244.286,162.961C-242.842,163.051 -240.623,163.694 -239.355,164.389C-236.589,165.905 -224.541,168.271 -222.032,167.792C-219.697,167.346 -218.922,168.69 -220.734,170.044C-222.355,171.256 -230.563,170.807 -236.916,169.159C-238.907,168.642 -240.536,168.467 -240.536,168.769C-240.536,169.266 -239.737,169.641 -234.911,171.409C-234.086,171.711 -231.048,172.174 -228.161,172.439C-223.229,172.89 -221.018,172.66 -217.826,171.364L-217.826,171.364Z" style="fill:none;stroke:rgb(217,165,103);stroke-width:1.16px;"/>
        </g>
        <g transform="matrix(1.33333,0,0,1.33333,475.714,6.99998)">
            <path d="M-275.786,170.581C-275.786,169.986 -276.123,169.5 -276.536,169.5C-276.948,169.5 -277.286,170.195 -277.286,171.044C-277.286,171.894 -276.948,172.38 -276.536,172.125C-276.123,171.87 -275.786,171.175 -275.786,170.581Z" style="fill:none;stroke:rgb(217,165,103);stroke-width:1.16px;"/>
        </g>
        <g transform="matrix(1.33333,0,0,1.33333,475.714,6.99998)">
            <path d="M-259.992,165.531C-259.533,163.795 -258.175,160.546 -256.975,158.31C-255.774,156.074 -254.899,154.137 -255.031,154.005C-255.162,153.873 -256.177,154.713 -257.286,155.87C-259.336,158.009 -262.286,165.182 -262.286,168.026C-262.286,170.494 -260.908,168.996 -259.992,165.531Z" style="fill:none;stroke:rgb(217,165,103);stroke-width:1.16px;"/>
        </g>
        <g transform="matrix(1.33333,0,0,1.33333,475.714,6.99998)">
            <path d="M-212.786,168.092C-212.786,167.729 -213.292,166.222 -213.911,164.741C-215.658,160.558 -215.346,155.063 -213.11,150.651C-212.051,148.561 -211.354,146.682 -211.56,146.475C-213.224,144.812 -217.286,153.519 -217.286,158.75C-217.286,163.26 -215.388,168.75 -213.829,168.75C-213.255,168.75 -212.786,168.454 -212.786,168.092Z" style="fill:none;stroke:rgb(217,165,103);stroke-width:1.16px;"/>
        </g>
        <g transform="matrix(1.33333,0,0,1.33333,475.714,6.99998)">
            <path d="M-285.241,166.814C-284.52,164.935 -284.711,162 -285.554,162C-286.547,162 -287.962,165.708 -287.465,167.004C-286.945,168.358 -285.796,168.259 -285.241,166.814L-285.241,166.814Z" style="fill:none;stroke:rgb(217,165,103);stroke-width:1.16px;"/>
        </g>
        <g transform="matrix(1.33333,0,0,1.33333,475.714,6.99998)">
            <path d="M-208.447,165.659C-208.977,164.783 -209.828,163.349 -210.337,162.471C-212.049,159.522 -211.476,154.446 -209.022,150.825C-206.726,147.436 -206.31,146.25 -207.419,146.25C-208.333,146.25 -210.155,148.48 -211.65,151.43C-213.562,155.201 -212.967,162.787 -210.558,165.351C-208.389,167.66 -207.123,167.845 -208.447,165.659Z" style="fill:none;stroke:rgb(217,165,103);stroke-width:1.16px;"/>
        </g>
        <g transform="matrix(1.33333,0,0,1.33333,475.714,6.99998)">
            <path d="M-267.82,162.149C-267.14,159.798 -265.111,154.885 -263.31,151.231C-259.667,143.838 -259.29,142.342 -261.596,144.429C-264.547,147.1 -271.804,164.067 -270.949,166.296C-270.254,168.108 -269.1,166.58 -267.82,162.149Z" style="fill:none;stroke:rgb(217,165,103);stroke-width:1.16px;"/>
        </g>
        <g transform="matrix(1.33333,0,0,1.33333,475.714,6.99998)">
            <path d="M-271.521,159.938C-270.251,156.741 -268.356,151.913 -267.311,149.21C-266.265,146.507 -263.731,141.782 -261.678,138.71C-259.232,135.05 -258.198,132.867 -258.677,132.375C-260.496,130.51 -268.053,143.394 -273.102,156.97C-275.605,163.697 -275.906,165.75 -274.389,165.75C-274.082,165.75 -272.792,163.134 -271.521,159.938Z" style="fill:none;stroke:rgb(217,165,103);stroke-width:1.16px;"/>
        </g>
        <g transform="matrix(1.33333,0,0,1.33333,475.714,6.99998)">
            <path d="M-226.286,161.333C-226.286,157.044 -223.934,153.202 -222.562,155.25C-220.904,157.725 -222.652,165 -224.904,165C-226.058,165 -226.286,164.395 -226.286,161.333Z" style="fill:none;stroke:rgb(217,165,103);stroke-width:1.16px;"/>
        </g>
        <g transform="matrix(1.33333,0,0,1.33333,475.714,6.99998)">
            <path d="M-262.386,159.476C-261.223,156.911 -259.186,153.314 -257.86,151.483C-255.102,147.676 -256.157,146.119 -259.065,149.705C-261.42,152.609 -266.036,161.84 -266.036,163.645C-266.036,166.028 -264.627,164.419 -262.386,159.476Z" style="fill:none;stroke:rgb(217,165,103);stroke-width:1.16px;"/>
        </g>
        <g transform="matrix(1.33333,0,0,1.33333,475.714,6.99998)">
            <path d="M-234.723,163.271C-236.683,162.846 -238.286,162.29 -238.286,162.035C-238.286,161.618 -228.974,156.75 -228.176,156.75C-227.994,156.75 -227.916,158.437 -228.003,160.5C-228.18,164.7 -228.163,164.693 -234.723,163.271L-234.723,163.271Z" style="fill:none;stroke:rgb(217,165,103);stroke-width:1.16px;"/>
        </g>
        <g transform="matrix(1.33333,0,0,1.33333,475.714,6.99998)">
            <path d="M-243.911,159.888C-243.284,159.215 -221.326,147.75 -220.663,147.75C-220.544,147.75 -220.244,148.276 -219.998,148.919C-219.663,149.791 -220.642,150.565 -223.855,151.963C-226.223,152.995 -230.861,155.151 -234.161,156.755C-240.426,159.8 -245.281,161.36 -243.911,159.888Z" style="fill:none;stroke:rgb(217,165,103);stroke-width:1.16px;"/>
        </g>
        <g transform="matrix(1.33333,0,0,1.33333,475.714,6.99998)">
            <path d="M-279.823,153.951C-278.462,149.624 -271.896,136.254 -270.148,134.25C-269.608,133.631 -267.457,130.158 -265.367,126.531C-263.278,122.905 -260.464,118.517 -259.114,116.781C-254.488,110.83 -244.54,101.623 -237.993,97.234C-234.391,94.818 -231.61,92.675 -231.814,92.471C-232.606,91.68 -238.103,94.13 -242.036,97.026C-256.026,107.331 -260.551,112.81 -273.373,134.973C-278.192,143.305 -284.25,157.359 -283.671,158.867C-282.97,160.696 -281.256,158.507 -279.823,153.951Z" style="fill:none;stroke:rgb(217,165,103);stroke-width:1.16px;"/>
        </g>
        <g transform="matrix(1.33333,0,0,1.33333,475.714,6.99998)">
            <path d="M-244.64,154.49C-240.32,152.422 -236.786,150.397 -236.786,149.99C-236.786,148.968 -236.966,149.006 -242.18,151.125C-244.718,152.156 -247.104,153 -247.483,153C-248.431,153 -254,156.993 -254.02,157.688C-254.051,158.772 -252.429,158.219 -244.64,154.49Z" style="fill:none;stroke:rgb(217,165,103);stroke-width:1.16px;"/>
        </g>
        <g transform="matrix(1.33333,0,0,1.33333,475.714,6.99998)">
            <path d="M-291.183,150.043C-290.348,148.428 -290.273,147.692 -290.902,147.303C-291.93,146.668 -293.786,148.979 -293.786,150.893C-293.786,152.951 -292.463,152.518 -291.183,150.043L-291.183,150.043Z" style="fill:none;stroke:rgb(217,165,103);stroke-width:1.16px;"/>
        </g>
        <g transform="matrix(1.33333,0,0,1.33333,475.714,6.99998)">
            <path d="M-250.426,150.047C-250.239,149.485 -250.52,149.203 -251.083,149.391C-251.624,149.571 -252.215,150.162 -252.395,150.703C-252.583,151.266 -252.301,151.547 -251.739,151.36C-251.197,151.179 -250.607,150.589 -250.426,150.047Z" style="fill:none;stroke:rgb(217,165,103);stroke-width:1.16px;"/>
        </g>
        <g transform="matrix(1.33333,0,0,1.33333,475.714,6.99998)">
            <path d="M-232.996,147.375C-233.055,146.262 -234.733,146.466 -235.122,147.634C-235.332,148.265 -234.989,148.546 -234.207,148.384C-233.519,148.242 -232.974,147.788 -232.996,147.375Z" style="fill:none;stroke:rgb(217,165,103);stroke-width:1.16px;"/>
        </g>
        <g transform="matrix(1.33333,0,0,1.33333,475.714,6.99998)">
            <path d="M-248.132,143.674C-244.593,141.88 -238.59,139.703 -232.661,138.063C-231.011,137.606 -226.454,136.899 -222.536,136.492C-214.704,135.678 -212.786,134.507 -212.786,130.537C-212.786,127.876 -215.233,126.706 -219.216,127.463C-233.13,130.107 -246.361,136.686 -251.073,143.302C-252.972,145.969 -252.724,146.001 -248.132,143.674Z" style="fill:none;stroke:rgb(217,165,103);stroke-width:1.16px;"/>
        </g>
        <g transform="matrix(1.33333,0,0,1.33333,475.714,6.99998)">
            <path d="M-287.786,140.167C-287.786,139.388 -288.09,138.75 -288.462,138.75C-289.144,138.75 -290.807,142.766 -290.761,144.299C-290.718,145.728 -287.786,141.656 -287.786,140.167Z" style="fill:none;stroke:rgb(217,165,103);stroke-width:1.16px;"/>
        </g>
        <g transform="matrix(1.33333,0,0,1.33333,475.714,6.99998)">
            <path d="M-258.536,142.125C-258.536,141.919 -258.704,141.75 -258.911,141.75C-259.117,141.75 -259.286,141.919 -259.286,142.125C-259.286,142.331 -259.117,142.5 -258.911,142.5C-258.704,142.5 -258.536,142.331 -258.536,142.125Z" style="fill:none;stroke:rgb(217,165,103);stroke-width:1.16px;"/>
        </g>
        <g transform="matrix(1.33333,0,0,1.33333,475.714,6.99998)">
            <path d="M-211.286,139.875C-211.286,139.256 -211.792,138.75 -212.411,138.75C-213.029,138.75 -213.536,139.256 -213.536,139.875C-213.536,140.494 -213.029,141 -212.411,141C-211.792,141 -211.286,140.494 -211.286,139.875Z" style="fill:none;stroke:rgb(217,165,103);stroke-width:1.16px;"/>
        </g>
        <g transform="matrix(1.33333,0,0,1.33333,475.714,6.99998)">
            <path d="M-240.327,137.519C-239.143,135.603 -221.895,129.75 -217.431,129.75C-215.896,129.75 -215.036,130.121 -215.036,130.783C-215.036,132.81 -217.411,133.713 -224.609,134.419C-228.624,134.813 -233.259,135.634 -234.91,136.243C-239.806,138.049 -240.799,138.282 -240.327,137.519Z" style="fill:none;stroke:rgb(217,165,103);stroke-width:1.16px;"/>
        </g>
        <g transform="matrix(1.33333,0,0,1.33333,475.714,6.99998)">
            <path d="M-280.968,128.761C-280.064,126.51 -276.865,121.34 -272.751,115.483C-268.938,110.054 -262.992,103.657 -256.037,97.499C-248.411,90.748 -247.673,88.803 -254.441,93.297C-260.069,97.034 -268.61,105.756 -274.024,113.297C-279.788,121.325 -286.466,133.449 -285.915,134.885C-285.414,136.189 -282.502,132.585 -280.968,128.761Z" style="fill:none;stroke:rgb(217,165,103);stroke-width:1.16px;"/>
        </g>
        <g transform="matrix(1.33333,0,0,1.33333,475.714,6.99998)">
            <path d="M-253.583,127.09C-252.2,125.276 -251.799,124.187 -252.323,123.663C-253.184,122.801 -257.997,128.052 -257.331,129.128C-256.611,130.294 -255.613,129.752 -253.583,127.09Z" style="fill:none;stroke:rgb(217,165,103);stroke-width:1.16px;"/>
        </g>
        <g transform="matrix(1.33333,0,0,1.33333,475.714,6.99998)">
            <path d="M-272.188,125.93C-267.614,117.626 -253.886,102.065 -246.965,97.341C-239.94,92.546 -229.479,86.454 -222.723,83.223C-219.32,81.595 -216.536,79.923 -216.536,79.507C-216.536,78.375 -216.728,78.441 -225.766,82.64C-233.711,86.332 -239.157,89.288 -243.693,92.369C-244.81,93.129 -245.928,93.75 -246.175,93.75C-247.449,93.75 -254.432,99.936 -260.441,106.386C-268.516,115.055 -274.11,122.685 -274.755,125.908C-275.373,128.998 -273.885,129.01 -272.188,125.93L-272.188,125.93Z" style="fill:none;stroke:rgb(217,165,103);stroke-width:1.16px;"/>
        </g>
        <g transform="matrix(1.33333,0,0,1.33333,475.714,6.99998)">
            <path d="M-254.497,119.651C-253.054,117.45 -252.998,117 -254.164,117C-255.409,117 -257.786,119.291 -257.786,120.491C-257.786,122.145 -255.798,121.637 -254.497,119.651Z" style="fill:none;stroke:rgb(217,165,103);stroke-width:1.16px;"/>
        </g>
        <g transform="matrix(1.33333,0,0,1.33333,475.714,6.99998)">
            <path d="M-201.197,114.244C-199.907,111.426 -199.5,109.736 -199.993,109.243C-200.902,108.333 -204.616,115.918 -204.021,117.469C-203.803,118.036 -203.517,118.5 -203.385,118.5C-203.254,118.5 -202.269,116.585 -201.197,114.244Z" style="fill:none;stroke:rgb(217,165,103);stroke-width:1.16px;"/>
        </g>
        <g transform="matrix(1.33333,0,0,1.33333,475.714,6.99998)">
            <path d="M-248.786,113.686C-248.786,113.514 -248.581,112.839 -248.33,112.186C-247.669,110.462 -249.338,110.73 -250.286,112.5C-250.926,113.697 -250.856,114 -249.937,114C-249.304,114 -248.786,113.859 -248.786,113.686Z" style="fill:none;stroke:rgb(217,165,103);stroke-width:1.16px;"/>
        </g>
        <g transform="matrix(1.33333,0,0,1.33333,475.714,6.99998)">
            <path d="M-242.927,107.057C-242.62,105.459 -244.7,106.044 -245.35,107.737C-245.647,108.51 -245.376,108.781 -244.479,108.608C-243.763,108.471 -243.065,107.772 -242.927,107.057Z" style="fill:none;stroke:rgb(217,165,103);stroke-width:1.16px;"/>
        </g>
        <g transform="matrix(1.33333,0,0,1.33333,475.714,6.99998)">
            <path d="M-196.251,104.936C-195.791,104.075 -195.602,103.184 -195.832,102.954C-196.451,102.334 -198.536,104.272 -198.536,105.467C-198.536,107.02 -197.2,106.709 -196.251,104.936Z" style="fill:none;stroke:rgb(217,165,103);stroke-width:1.16px;"/>
        </g>
        <g transform="matrix(1.33333,0,0,1.33333,475.714,6.99998)">
            <path d="M-184.99,93.438C-183.741,92.015 -179.65,88.566 -175.899,85.773C-167.444,79.478 -169.182,78.208 -177.911,84.304C-182.384,87.428 -193.506,98.787 -192.959,99.673C-192.365,100.634 -188.99,97.993 -184.99,93.438Z" style="fill:none;stroke:rgb(217,165,103);stroke-width:1.16px;"/>
        </g>
        <g transform="matrix(1.33333,0,0,1.33333,475.714,6.99998)">
            <path d="M-224.294,89.593C-224.05,88.956 -224.053,88.233 -224.3,87.986C-224.834,87.452 -227.036,89.146 -227.036,90.092C-227.036,91.224 -224.761,90.81 -224.294,89.593L-224.294,89.593Z" style="fill:none;stroke:rgb(217,165,103);stroke-width:1.16px;"/>
        </g>
        <g transform="matrix(1.33333,0,0,1.33333,475.714,6.99998)">
            <path d="M-245.411,89.25C-245.156,88.838 -245.493,88.5 -246.161,88.5C-246.828,88.5 -247.166,88.838 -246.911,89.25C-246.656,89.663 -246.318,90 -246.161,90C-246.003,90 -245.666,89.663 -245.411,89.25Z" style="fill:none;stroke:rgb(217,165,103);stroke-width:1.16px;"/>
        </g>
        <g transform="matrix(1.33333,0,0,1.33333,475.714,6.99998)">
            <path d="M-238.441,85.29C-237.84,84.808 -237.738,84.247 -238.174,83.812C-238.947,83.038 -242.786,85.181 -242.786,86.387C-242.786,87.195 -239.914,86.47 -238.441,85.29Z" style="fill:none;stroke:rgb(217,165,103);stroke-width:1.16px;"/>
        </g>
        <g transform="matrix(1.33333,0,0,1.33333,475.714,6.99998)">
            <path d="M-232.401,81.868C-228.039,78.84 -217.324,73.899 -210.161,71.611C-208.511,71.084 -204.798,69.807 -201.911,68.773C-199.023,67.739 -195.648,66.675 -194.411,66.409C-193.173,66.143 -189.461,65.112 -186.161,64.119C-182.861,63.126 -176.111,61.923 -171.161,61.447C-166.211,60.97 -161.148,60.471 -159.911,60.338C-158.673,60.205 -151.754,60.037 -144.536,59.965C-131.594,59.836 -131.468,59.819 -135.536,58.755C-140.237,57.526 -162.577,57.814 -173.786,59.248C-188.713,61.158 -214.869,69.22 -225.536,75.197C-232.112,78.882 -236.101,81.787 -235.632,82.547C-235.03,83.521 -234.676,83.447 -232.401,81.868Z" style="fill:none;stroke:rgb(217,165,103);stroke-width:1.16px;"/>
        </g>
        <g transform="matrix(1.33333,0,0,1.33333,475.714,6.99998)">
            <path d="M-210.622,77.705C-209.638,77.16 -209.158,76.513 -209.554,76.268C-210.71,75.553 -213.536,76.578 -213.536,77.712C-213.536,78.987 -212.931,78.985 -210.622,77.705L-210.622,77.705Z" style="fill:none;stroke:rgb(217,165,103);stroke-width:1.16px;"/>
        </g>
        <g transform="matrix(1.33333,0,0,1.33333,475.714,6.99998)">
            <path d="M-162.521,76.857C-161.284,75.367 -161.698,75.044 -164.223,75.529C-165.358,75.747 -166.286,76.392 -166.286,76.962C-166.286,78.357 -163.705,78.284 -162.521,76.857Z" style="fill:none;stroke:rgb(217,165,103);stroke-width:1.16px;"/>
        </g>
        <g transform="matrix(1.33333,0,0,1.33333,475.714,6.99998)">
            <path d="M-192.46,71.25C-191.115,71.25 -189.825,69.961 -190.497,69.288C-191.139,68.647 -200.531,71.141 -203.707,72.797C-208.779,75.44 -207.206,75.727 -200.291,73.418C-196.719,72.226 -193.195,71.25 -192.46,71.25Z" style="fill:none;stroke:rgb(217,165,103);stroke-width:1.16px;"/>
        </g>
        <g transform="matrix(1.33333,0,0,1.33333,475.714,6.99998)">
            <path d="M-155.973,72.938C-155.79,72.388 -156.307,72 -157.223,72C-158.144,72 -158.786,72.484 -158.786,73.18C-158.786,74.558 -156.445,74.357 -155.973,72.938L-155.973,72.938Z" style="fill:none;stroke:rgb(217,165,103);stroke-width:1.16px;"/>
        </g>
        <g transform="matrix(1.33333,0,0,1.33333,475.714,6.99998)">
            <path d="M-181.988,67.817C-181.122,66.774 -181.304,66.663 -183.525,66.88C-184.911,67.015 -186.184,67.547 -186.353,68.063C-186.806,69.442 -183.166,69.237 -181.988,67.817L-181.988,67.817Z" style="fill:none;stroke:rgb(217,165,103);stroke-width:1.16px;"/>
        </g>
        <g transform="matrix(1.33333,0,0,1.33333,475.714,6.99998)">
            <path d="M-176.38,66.7C-175.5,65.277 -176.783,64.926 -178.089,66.232C-179.258,67.401 -179.261,67.5 -178.116,67.5C-177.433,67.5 -176.652,67.14 -176.38,66.7L-176.38,66.7Z" style="fill:none;stroke:rgb(217,165,103);stroke-width:1.16px;"/>
        </g>
        <g transform="matrix(1.33333,0,0,1.33333,475.714,6.99998)">
            <path d="M-122.989,60.986C-122.7,60.118 -125.664,59.086 -126.666,59.705C-127.708,60.349 -127.358,61.371 -125.973,61.728C-124.227,62.179 -123.311,61.951 -122.989,60.986Z" style="fill:none;stroke:rgb(217,165,103);stroke-width:1.16px;"/>
        </g>
    </g>
</svg>
