<?xml version="1.0" encoding="UTF-8" standalone="no"?>
<!DOCTYPE svg PUBLIC "-//W3C//DTD SVG 1.1//EN" "http://www.w3.org/Graphics/SVG/1.1/DTD/svg11.dtd">
<svg width="100%" height="100%" viewBox="0 0 171 181" version="1.1" xmlns="http://www.w3.org/2000/svg" xmlns:xlink="http://www.w3.org/1999/xlink" xml:space="preserve" xmlns:serif="http://www.serif.com/" style="fill-rule:evenodd;clip-rule:evenodd;stroke-linejoin:round;stroke-miterlimit:2;">
    <g transform="matrix(0.312465,0,0,0.312465,-5.13956,-194.691)">
        <g transform="matrix(1.33333,0,0,1.33333,431.714,81.9302)">
            <path d="M-101.865,835.579C-97.158,830.872 -96.513,825.728 -99.268,814.867C-101.685,805.335 -99.995,796.538 -93.216,783.375C-89.527,776.213 -88.286,771.686 -88.286,765.4C-88.286,759.263 -89.995,753.678 -93.698,747.715C-96.052,743.924 -96.158,743.433 -96.096,736.562C-96.039,730.162 -95.738,728.635 -93.351,722.625C-90.675,715.886 -89.403,710.539 -88.625,702.75C-88.212,698.625 -88.212,698.625 -83.089,696.688C-77.965,694.75 -77.965,694.75 -77.533,698.396C-77.059,702.396 -73.652,709.333 -70.403,712.911C-68.1,715.448 -64.16,718.054 -59.005,720.452C-55.398,722.129 -51.574,726.025 -51.478,728.12C-51.446,728.81 -51.336,732.075 -51.233,735.375C-51.01,742.516 -49.223,749.068 -46.671,752.101C-45.652,753.312 -42.549,755.781 -39.775,757.589C-35.085,760.644 -34.319,760.894 -28.869,761.142C-24.974,761.32 -22.635,761.1 -21.896,760.488C-20.373,759.224 -20.496,758.658 -22.534,757.568C-27.28,755.028 -28.582,746.703 -26.052,735.074C-24.222,726.662 -24.331,724.969 -27.178,717.707C-29.335,712.201 -31.804,709.33 -36.536,706.821C-41.522,704.177 -43.484,702.177 -46.541,696.621C-48.603,692.872 -49.608,689.767 -50.547,684.246C-51.948,676.012 -51.66,673.764 -48.818,670.719C-47.742,669.567 -45.889,667.451 -44.699,666.016C-43.269,664.293 -42.536,663.822 -42.536,664.629C-42.536,666.302 -37.108,673.393 -34.521,675.099C-30.302,677.882 -25.258,678.78 -16.765,678.26C-7.907,677.718 -7.611,677.827 -4.495,682.762C-1.455,687.578 3.095,692.04 7.506,694.529C15.274,698.912 27.232,698.373 33.221,693.369C35.562,691.414 35.97,690.731 35.188,690.082C34.645,689.631 34.013,689.451 33.784,689.681C33.554,689.911 32.023,689.737 30.382,689.295C27.205,688.439 21.214,682.766 21.214,680.612C21.214,679.967 20.587,678.188 19.82,676.657C19.053,675.127 17.848,671.48 17.142,668.553C14.154,656.157 7.992,651.677 -6.086,651.666C-18.28,651.657 -22.036,650.129 -29.354,642.209C-33.048,638.212 -33.048,638.212 -31.792,634.228C-31.101,632.036 -30.525,629.598 -30.512,628.809C-30.468,626.201 -28.704,624.965 -23.254,623.726C-13.603,621.53 -7.699,622.252 2.089,626.823C7.649,629.419 8.68,629.643 16.135,629.878C25.908,630.186 28.933,629.325 37.793,623.715C46.271,618.346 50.067,617.48 58.033,619.094C71.278,621.777 80.646,620.153 88.782,613.761C92.431,610.894 96.215,606.516 96.214,605.161C96.214,605.004 93.43,604.815 90.027,604.742C82.201,604.574 75.902,602.626 68.089,597.959C62.37,594.543 61.844,594.379 56.839,594.47C50.887,594.578 42.949,596.443 39.546,598.535C35.978,600.727 29.055,602.265 25.085,601.746C20.917,601.201 18.99,600.292 11.089,595.145C2.478,589.535 1.592,589.283 -8.201,589.674C-14.516,589.926 -18.43,590.538 -23.64,592.089C-27.479,593.231 -30.715,594.044 -30.83,593.895C-31.106,593.541 -36.536,577.629 -36.536,577.176C-36.536,576.067 -28.512,567.461 -25.626,565.476C-21.368,562.547 -19.217,561.913 -10.365,560.981C-4.479,560.361 -2.458,559.777 1.913,557.432C8.295,554.008 11.472,550.344 15.964,541.225C19.339,534.375 19.339,534.375 25.71,531.06C29.403,529.138 34.42,527.248 37.649,526.56C40.713,525.908 43.34,525.008 43.488,524.559C43.639,524.103 41.189,523.001 37.924,522.058C34.715,521.13 30.908,519.81 29.464,519.123C27.584,518.229 24.817,517.876 19.714,517.88C13.182,517.885 12.215,518.08 8.089,520.244C5.614,521.542 1.733,524.409 -0.536,526.614C-7.508,533.393 -6.92,533.128 -18.322,534.644C-27.468,535.861 -29.461,536.381 -33.268,538.546C-37.595,541.006 -47.559,550.246 -50.589,554.608C-52.141,556.841 -52.141,556.841 -55.83,553.483C-57.859,551.636 -60.287,549.509 -61.225,548.757C-62.477,547.754 -62.794,546.955 -62.414,545.757C-62.13,544.859 -61.286,541.149 -60.539,537.511C-58.998,530.01 -56.579,525.792 -49.874,518.916C-43.852,512.74 -42.22,508.925 -42.773,502.319C-43.325,495.742 -42.438,493.43 -37.439,488.404C-30.826,481.757 -28.611,472.53 -30.92,461.25C-31.638,457.744 -32.184,453.797 -32.134,452.479C-31.899,446.276 -35.631,451.951 -36.347,458.884C-36.701,462.319 -37.233,463.412 -39.95,466.288C-43.104,469.627 -44.176,470.393 -49.286,472.958C-53.054,474.849 -58.919,479.849 -60.14,482.21C-60.715,483.321 -61.905,487.052 -62.786,490.5C-65.212,500.005 -65.711,500.729 -76.076,509.81C-82.316,515.276 -84.765,519.809 -86.269,528.67C-87.225,534.303 -87.265,534.374 -89.449,534.282C-90.665,534.231 -93.549,533.796 -95.856,533.316C-99.76,532.503 -100.115,532.248 -100.966,529.658C-101.469,528.127 -102.062,522.487 -102.284,517.125C-102.656,508.155 -102.532,506.843 -100.737,500.728C-97.739,490.516 -98.013,486.815 -102.484,477.133C-106.708,467.986 -106.809,466.045 -103.566,456.243C-101.035,448.591 -101.17,441.954 -104.065,431.642C-106.849,421.727 -110.423,413.925 -114.121,409.687C-115.651,407.934 -117.129,406.502 -117.407,406.504C-117.684,406.506 -117.984,411.95 -118.073,418.601C-118.253,431.939 -119.188,436.708 -122.773,442.573C-126.798,449.157 -129.593,456.614 -130.275,462.591C-130.913,468.174 -130.846,468.595 -128.361,474.724C-125.026,482.946 -125.041,486.126 -128.464,496.364C-133.64,511.841 -134.562,521.243 -131.776,530.129C-130.956,532.744 -130.286,535.153 -130.286,535.483C-130.286,535.813 -131.541,536.318 -133.076,536.606C-134.61,536.894 -137.32,537.624 -139.098,538.227C-142.33,539.324 -142.33,539.324 -145.353,536.271C-149.681,531.899 -150.658,528.972 -151.242,518.625C-151.805,508.649 -152.704,506.076 -156.758,502.841C-158.113,501.76 -160.933,500.296 -163.025,499.588C-168.338,497.789 -170.777,494.971 -170.819,490.578C-170.887,483.556 -171.388,480.176 -172.842,476.941C-174.767,472.657 -176.706,470.943 -183.327,467.674C-188.39,465.175 -189.211,465 -195.89,465C-201.478,465 -203.036,465.226 -203.036,466.039C-203.036,466.61 -202.267,467.581 -201.328,468.196C-197.849,470.475 -194.285,474.711 -193.422,477.59C-191.45,484.172 -191.491,487.13 -193.65,493.91C-195.203,498.785 -195.627,501.384 -195.373,504.453C-194.907,510.075 -191.785,514.331 -186.595,516.417C-180.884,518.712 -180.637,519.141 -180.35,527.25C-180.153,532.785 -179.617,535.682 -177.949,540.234C-176.003,545.541 -175.388,546.411 -171.418,549.465C-169.008,551.32 -167.036,553.081 -167.036,553.38C-167.036,553.678 -169.058,555.923 -171.529,558.368C-175.043,561.845 -176.219,562.616 -176.929,561.907C-177.428,561.408 -178.963,561 -180.341,561C-185.91,561 -196.067,553.337 -199.661,546.425C-202.651,540.674 -204.227,539.217 -211.401,535.577C-218.881,531.781 -222.967,531.569 -232.764,534.464C-248.051,538.982 -259.005,537.148 -268.011,528.564C-269.988,526.68 -271.298,525.913 -271.628,526.447C-272.36,527.631 -270.123,534.095 -266.549,541.125C-263.129,547.851 -255.1,556.461 -250.389,558.454C-246.655,560.034 -236.019,561.72 -229.661,561.741C-226.773,561.749 -223.212,562.091 -221.746,562.498C-218.392,563.43 -214.679,567.024 -212.376,571.568C-209.336,577.568 -200.01,584.236 -194.623,584.261C-190.394,584.281 -189.995,584.931 -191.121,589.964C-192.349,595.451 -195.129,598.287 -203.036,602.119C-207.347,604.209 -209.826,604.912 -213.652,605.128C-219.188,605.442 -222.222,604.541 -233.362,599.273C-238.876,596.666 -240.456,596.25 -244.854,596.25C-250.806,596.25 -254.713,597.903 -269.411,606.643C-278.411,611.995 -278.411,611.995 -286.346,611.997C-294.236,612 -294.319,611.98 -301.11,608.632C-304.866,606.779 -308.149,604.923 -308.406,604.507C-308.664,604.09 -309.387,603.75 -310.015,603.75C-311.417,603.75 -311.005,606.034 -308.449,612.433C-305.927,618.75 -301.625,623.264 -293.934,627.665C-287.115,631.567 -283.979,632.552 -275.786,633.363C-271.856,633.752 -269.482,633.47 -263.547,631.912C-259.497,630.848 -254.87,629.308 -253.264,628.489C-251.175,627.423 -248.853,627 -245.093,627C-239.955,627 -236.635,627.911 -228.911,631.441C-224.299,633.548 -218.656,634.5 -210.768,634.5C-203.234,634.5 -199.207,633.259 -195.483,629.79C-194.633,628.998 -193.751,628.535 -193.523,628.762C-193.296,628.989 -192.337,632.758 -191.391,637.137C-190.153,642.873 -189.915,645.181 -190.541,645.393C-191.019,645.555 -193.519,646.054 -196.097,646.501C-208.201,648.604 -210.677,650.563 -218.85,664.5C-223.735,672.83 -225.605,674.013 -237.679,676.416C-246.96,678.263 -253.247,681.377 -259.75,687.348C-265.303,692.446 -268.549,697.909 -272.466,708.75C-273.584,711.844 -274.957,714.908 -275.517,715.559C-276.632,716.855 -276.875,718.5 -275.952,718.5C-275.63,718.5 -272.171,716.423 -268.264,713.885C-254.723,705.089 -247.785,702.82 -234.293,702.776C-227.721,702.754 -225.135,702.401 -220.714,700.917C-208.566,696.839 -203.984,693.504 -192.984,680.737C-188.097,675.065 -184.901,673.275 -178.29,672.506C-174.169,672.027 -174.169,672.027 -168.803,677.357C-163.438,682.686 -163.438,682.686 -166.046,686.156C-167.48,688.064 -169.069,689.962 -169.576,690.375C-170.814,691.383 -173.499,697.171 -174.445,700.875C-174.867,702.525 -175.364,707.081 -175.549,711C-175.952,719.5 -176.627,721.451 -180.762,726.07C-189.77,736.131 -191.548,739.003 -194.415,748.125C-195.379,751.19 -195.82,754.777 -195.799,759.375C-195.769,766.227 -194.245,775.5 -193.15,775.5C-192.82,775.5 -190.869,772.151 -188.815,768.058C-183.83,758.124 -179.935,754.289 -169.316,748.857C-155.437,741.758 -149.374,734.471 -148.695,724.075C-147.721,709.151 -147.347,706.92 -145.166,703.043C-141.398,696.342 -141.116,696.219 -133.058,697.787C-129.264,698.525 -125.564,699.293 -124.835,699.494C-123.136,699.962 -121.401,704.127 -120.81,709.159C-120.249,713.931 -122.401,721.771 -126.027,728.17C-128.196,731.995 -128.409,732.95 -128.391,738.75C-128.372,744.838 -128.224,745.395 -125.106,751.125C-123.311,754.425 -120.522,758.861 -118.909,760.982C-113.391,768.241 -113.326,771.021 -118.397,782.718C-121.716,790.375 -122.305,792.467 -122.595,797.625C-122.906,803.162 -122.762,803.943 -120.729,807.75C-119.517,810.019 -116.317,814.79 -113.617,818.354C-108.271,825.408 -106.891,828.581 -106.657,834.353C-106.573,836.428 -106.455,838.209 -106.395,838.312C-105.967,839.047 -104.369,838.083 -101.865,835.579Z" style="fill:none;stroke:rgb(217,165,103);stroke-width:1.28px;"/>
        </g>
        <g transform="matrix(1.33333,0,0,1.33333,431.714,81.9302)">
            <path d="M-104.724,829.462C-105.8,824.445 -107.335,821.574 -111.125,817.489C-114.464,813.889 -120.536,802.621 -120.536,800.023C-120.536,796.934 -118.057,788.512 -115.637,783.375C-111.779,775.188 -111.172,772.489 -112.236,768.241C-112.742,766.222 -115.564,760.814 -118.625,756C-125.902,744.553 -125.786,744.828 -125.786,739.153C-125.786,735.097 -125.361,733.367 -123.429,729.541C-117.662,718.125 -116.8,712.633 -119.486,704.411C-120.776,700.462 -120.776,700.5 -119.471,700.5C-117.846,700.5 -115.976,707.165 -115.862,713.364C-115.772,718.233 -116.069,719.53 -118.418,724.5C-122.233,732.573 -123.001,735.398 -122.621,739.972C-122.368,743.021 -121.697,744.812 -119.913,747.2C-115.718,752.813 -110.816,762.042 -109.66,766.503C-108.087,772.572 -108.276,775.929 -110.482,781.125C-113.686,788.673 -116.786,798.162 -116.786,800.421C-116.786,802.933 -113.779,807.453 -112.974,806.15C-112.684,805.681 -112.927,804.148 -113.514,802.743C-114.492,800.403 -114.423,799.686 -112.695,794.217C-111.658,790.933 -109.994,786.638 -108.998,784.673C-105.75,778.263 -105.341,775.471 -106.644,768.605C-107.832,762.342 -111.682,754.103 -116.039,748.5C-121.581,741.373 -121.656,738.605 -116.624,727.021C-113.555,719.956 -113.416,719.318 -113.534,712.774C-113.616,708.198 -114.052,705.16 -114.847,703.624C-116.351,700.716 -116.338,700.561 -114.628,701.008C-113.307,701.354 -111.486,706.508 -110.237,713.44C-109.815,715.782 -111.266,720.669 -114.449,727.621C-116.965,733.116 -118.015,737.25 -116.896,737.25C-116.478,737.25 -115.913,736.49 -115.639,735.562C-115.365,734.634 -113.651,730.837 -111.832,727.125C-107.596,718.483 -107.169,715.265 -109.197,707.246C-110.067,703.807 -110.634,700.848 -110.457,700.671C-109.576,699.79 -108.673,701.721 -107.438,707.128C-105.449,715.839 -106.625,722.787 -111.522,731.238C-112.354,732.675 -113.036,734.942 -113.036,736.275C-113.036,738.732 -110.95,744 -109.977,744C-109.054,744 -108.647,742.032 -109.344,740.932C-110.801,738.63 -110.046,733.43 -107.47,728.016C-104.274,721.299 -103.245,711.518 -105.094,705.434C-106.325,701.385 -106.172,700.539 -104.256,700.82C-102.385,701.095 -101.648,704.433 -101.556,713.062C-101.51,717.29 -101.244,720.75 -100.964,720.75C-100.684,720.75 -100.036,718.525 -99.523,715.806C-98.633,711.09 -98.82,704.627 -99.929,701.812C-100.282,700.916 -100.09,700.5 -99.322,700.5C-98.129,700.5 -97.707,701.703 -96.874,707.472C-96.178,712.296 -95.491,711.283 -95.036,704.759C-94.733,700.42 -94.409,699.341 -93.348,699.139C-92.21,698.923 -92.036,699.522 -92.036,703.657C-92.036,707.443 -92.807,710.635 -95.786,719.175C-99.283,729.204 -99.536,730.414 -99.536,737.163C-99.536,743.49 -99.3,744.82 -97.657,747.761C-92.444,757.091 -91.808,758.711 -91.46,763.526C-91.163,767.656 -91.482,769.52 -93.492,775.372C-94.803,779.192 -96.7,783.531 -97.707,785.014C-100.276,788.801 -103.329,798.887 -103.822,805.22C-104.148,809.413 -103.893,811.7 -102.637,815.836C-100.77,821.983 -100.596,826.995 -102.122,830.649C-102.72,832.079 -103.367,833.25 -103.56,833.25C-103.753,833.25 -104.277,831.545 -104.724,829.462L-104.724,829.462Z" style="fill:none;stroke:rgb(217,165,103);stroke-width:1.28px;"/>
        </g>
        <g transform="matrix(1.33333,0,0,1.33333,431.714,81.9302)">
            <path d="M-109.286,812.717C-109.286,811.324 -111.272,809.717 -111.846,810.646C-112.512,811.723 -111.522,813.75 -110.33,813.75C-109.756,813.75 -109.286,813.285 -109.286,812.717Z" style="fill:none;stroke:rgb(217,165,103);stroke-width:1.28px;"/>
        </g>
        <g transform="matrix(1.33333,0,0,1.33333,431.714,81.9302)">
            <path d="M-101.786,778.5C-101.786,777.724 -102.126,776.878 -102.541,776.622C-103.505,776.026 -104.337,778.133 -103.746,779.672C-103.17,781.175 -101.786,780.348 -101.786,778.5Z" style="fill:none;stroke:rgb(217,165,103);stroke-width:1.28px;"/>
        </g>
        <g transform="matrix(1.33333,0,0,1.33333,431.714,81.9302)">
            <path d="M-101.644,767.923C-102.034,761.156 -106.518,751.603 -111.085,747.813C-113.027,746.201 -113.021,748.229 -111.076,750.825C-107.48,755.625 -104.667,762.083 -104.283,766.42C-103.81,771.77 -103.504,772.701 -102.348,772.298C-101.713,772.077 -101.486,770.665 -101.644,767.923L-101.644,767.923Z" style="fill:none;stroke:rgb(217,165,103);stroke-width:1.28px;"/>
        </g>
        <g transform="matrix(1.33333,0,0,1.33333,431.714,81.9302)">
            <path d="M-193.522,765.676C-194.099,763.47 -191.945,749.667 -190.288,744.953C-188.833,740.813 -180.877,729.206 -178.523,727.79C-177.761,727.332 -176.143,725.138 -174.928,722.915C-172.914,719.231 -172.698,718.126 -172.476,710.375C-172.181,700.093 -171.124,696.928 -165.491,689.465C-161.915,684.728 -161.275,684.195 -160.315,685.152C-159.354,686.11 -159.605,686.639 -162.352,689.438C-164.076,691.194 -166.57,694.823 -167.896,697.503C-170.07,701.897 -170.352,703.257 -170.774,711.375C-171.35,722.471 -172.606,725.362 -179.854,732.283C-185.39,737.569 -189.518,743.927 -189.529,747.187C-189.54,750.399 -188.364,749.629 -186.592,745.265C-185.424,742.385 -183.302,739.628 -178.948,735.327C-170.342,726.829 -169.079,724.09 -168.57,712.836C-168.182,704.278 -168.011,703.499 -165.356,698.211C-162.408,692.34 -157.73,686.637 -156.49,687.403C-156.088,687.651 -157.284,689.639 -159.147,691.821C-161.011,694.002 -162.536,696.186 -162.536,696.673C-162.536,697.161 -163.211,698.883 -164.036,700.5C-165.159,702.702 -165.536,704.92 -165.536,709.333C-165.536,716.31 -167.513,724.499 -170.379,729.389C-172.516,733.035 -172.551,733.842 -170.538,733.07C-167.337,731.842 -163.286,718.145 -163.286,708.552C-163.286,704.834 -162.791,702.987 -160.623,698.597C-157.884,693.054 -154.063,688.541 -153.238,689.875C-152.984,690.286 -153.623,691.63 -154.658,692.86C-158.3,697.188 -161.031,705.75 -158.77,705.75C-157.987,705.75 -157.577,704.908 -155.484,699C-154.004,694.821 -151.097,691.065 -149.91,691.798C-149.307,692.17 -149.736,693.209 -151.289,695.142C-155.177,699.98 -157.648,709.48 -156.08,713.564C-155.263,715.693 -154.286,714.813 -154.274,711.937C-154.248,705.803 -152.065,699.907 -147.448,693.501C-147.193,693.147 -145.918,693.41 -144.614,694.085C-142.243,695.311 -142.243,695.311 -144.363,697.094C-147.202,699.483 -150.482,706.367 -150.888,710.789C-151.069,712.761 -151.528,717.979 -151.908,722.384C-152.669,731.224 -153.587,733.391 -158.551,738.071C-162.3,741.606 -167.184,744.756 -172.286,746.931C-179.695,750.089 -187.293,757.111 -190.34,763.616C-192.209,767.607 -192.9,768.054 -193.522,765.676L-193.522,765.676Z" style="fill:none;stroke:rgb(217,165,103);stroke-width:1.28px;"/>
        </g>
        <g transform="matrix(1.33333,0,0,1.33333,431.714,81.9302)">
            <path d="M-36.161,756.012C-45.328,751.531 -47.952,746.994 -48.527,734.625C-49.045,723.496 -49.672,722.499 -60.086,716.25C-66.074,712.657 -68.804,710.515 -70.47,708.106C-73.093,704.313 -76.053,693.967 -74.858,692.772C-73.999,691.913 -73.338,693.331 -71.357,700.286C-69.309,707.476 -66.958,710.472 -60.57,714.036C-53.077,718.217 -48.061,722.485 -47.135,725.467C-46.725,726.791 -46.155,731.081 -45.87,735C-45.585,738.919 -44.95,742.7 -44.459,743.404C-43.09,745.365 -43.8,728.003 -45.254,723.961C-46.484,720.541 -52.361,715.507 -59.128,712.078C-65.669,708.764 -69.418,702.542 -70.756,692.781C-71.088,690.355 -70.936,689.372 -70.185,689.085C-69.403,688.785 -69.152,689.616 -69.123,692.594C-69.05,700.304 -63.394,708.521 -55.451,712.459C-46.795,716.75 -42.536,722.991 -42.536,731.383C-42.536,734.935 -41.638,736.151 -40.741,733.814C-40.491,733.161 -40.286,730.845 -40.286,728.667C-40.286,722.195 -45.174,714.397 -50.885,711.759C-59.968,707.563 -63.685,704.12 -65.757,697.985C-67.712,692.198 -67.737,688.391 -65.833,686.668C-64.425,685.393 -64.367,685.44 -63.92,688.239C-62.325,698.218 -60.275,702.463 -55.278,706.13C-50.515,709.627 -49.519,709.026 -53.766,705.218C-57.612,701.769 -58.984,699.267 -60.259,693.375C-61.492,687.676 -61.543,683.058 -60.386,681.9C-58.958,680.472 -58.288,680.839 -58.26,683.062C-58.246,684.197 -57.633,687.659 -56.898,690.757C-55.11,698.295 -50.746,705.006 -44.592,709.682C-37.222,715.283 -37.017,713.809 -44.224,707.04C-51.648,700.067 -53.027,697.569 -55.282,687.019C-56.631,680.704 -56.647,678 -55.335,678C-55.038,678 -54.39,680.278 -53.895,683.062C-51.375,697.245 -46.638,705.121 -37.458,710.391C-32.692,713.127 -30.169,717.044 -28.724,723.951C-27.71,728.795 -27.91,731.473 -29.716,737.245C-31.121,741.735 -30.75,751.14 -29.036,754.5C-28.211,756.117 -27.536,757.622 -27.536,757.845C-27.536,758.951 -32.159,757.968 -36.161,756.012L-36.161,756.012Z" style="fill:none;stroke:rgb(217,165,103);stroke-width:1.28px;"/>
        </g>
        <g transform="matrix(1.33333,0,0,1.33333,431.714,81.9302)">
            <path d="M-100.286,755.018C-100.286,753.431 -102.236,751.226 -103.144,751.787C-103.757,752.166 -103.755,752.795 -103.137,754.152C-102.251,756.097 -100.285,756.694 -100.285,755.018L-100.286,755.018Z" style="fill:none;stroke:rgb(217,165,103);stroke-width:1.28px;"/>
        </g>
        <g transform="matrix(1.33333,0,0,1.33333,431.714,81.9302)">
            <path d="M-188.362,753.238C-188.859,751.945 -188.925,751.943 -189.627,753.194C-190.531,754.804 -189.732,756.496 -188.601,755.366C-188.181,754.945 -188.073,753.988 -188.362,753.238L-188.362,753.238Z" style="fill:none;stroke:rgb(217,165,103);stroke-width:1.28px;"/>
        </g>
        <g transform="matrix(1.33333,0,0,1.33333,431.714,81.9302)">
            <path d="M-38.036,750.769C-38.036,750.367 -39.048,749.515 -40.286,748.875C-42.069,747.953 -42.536,747.918 -42.536,748.706C-42.536,749.252 -42.131,750.105 -41.636,750.6C-40.556,751.68 -38.036,751.798 -38.036,750.769Z" style="fill:none;stroke:rgb(217,165,103);stroke-width:1.28px;"/>
        </g>
        <g transform="matrix(1.33333,0,0,1.33333,431.714,81.9302)">
            <path d="M-105.063,747.36C-105.317,746.697 -105.881,746.375 -106.317,746.644C-106.861,746.98 -106.829,747.471 -106.215,748.21C-105.125,749.523 -104.43,749.01 -105.063,747.36L-105.063,747.36Z" style="fill:none;stroke:rgb(217,165,103);stroke-width:1.28px;"/>
        </g>
        <g transform="matrix(1.33333,0,0,1.33333,431.714,81.9302)">
            <path d="M-176.949,740.724C-174.797,738.509 -173.036,736.484 -173.036,736.224C-173.036,735.085 -175.152,735.907 -176.645,737.625C-177.542,738.656 -178.543,739.5 -178.869,739.5C-179.45,739.5 -182.036,743.422 -182.036,744.303C-182.036,745.47 -180.537,744.416 -176.949,740.724Z" style="fill:none;stroke:rgb(217,165,103);stroke-width:1.28px;"/>
        </g>
        <g transform="matrix(1.33333,0,0,1.33333,431.714,81.9302)">
            <path d="M-114.273,741.924C-114.795,739.928 -116.786,739.671 -116.786,741.6C-116.786,743.249 -115.202,744.966 -114.41,744.174C-114.094,743.858 -114.032,742.845 -114.273,741.924L-114.273,741.924Z" style="fill:none;stroke:rgb(217,165,103);stroke-width:1.28px;"/>
        </g>
        <g transform="matrix(1.33333,0,0,1.33333,431.714,81.9302)">
            <path d="M-39.536,741C-39.536,739.478 -39.908,738.75 -40.686,738.75C-41.524,738.75 -41.745,739.311 -41.498,740.812C-41.067,743.435 -41.159,743.25 -40.286,743.25C-39.873,743.25 -39.536,742.237 -39.536,741Z" style="fill:none;stroke:rgb(217,165,103);stroke-width:1.28px;"/>
        </g>
        <g transform="matrix(1.33333,0,0,1.33333,431.714,81.9302)">
            <path d="M-104.694,734.565C-104.438,732.536 -103.853,729.716 -103.395,728.3C-102.936,726.883 -102.706,725.579 -102.883,725.402C-103.527,724.759 -106.28,730.178 -106.283,732.094C-106.284,733.176 -106.506,735.162 -106.775,736.507C-107.155,738.411 -107.031,738.874 -106.212,738.603C-105.596,738.4 -104.968,736.729 -104.694,734.565Z" style="fill:none;stroke:rgb(217,165,103);stroke-width:1.28px;"/>
        </g>
        <g transform="matrix(1.33333,0,0,1.33333,431.714,81.9302)">
            <path d="M-160.742,723.735C-159.232,719.959 -159.153,716.25 -160.584,716.25C-161.284,716.25 -161.906,717.827 -162.459,720.999C-163.456,726.725 -163.456,726.75 -162.617,726.75C-162.249,726.75 -161.406,725.393 -160.742,723.735Z" style="fill:none;stroke:rgb(217,165,103);stroke-width:1.28px;"/>
        </g>
        <g transform="matrix(1.33333,0,0,1.33333,431.714,81.9302)">
            <path d="M-33.668,716.75C-33.505,715.907 -33.932,715.5 -34.981,715.5C-36.694,715.5 -36.744,715.584 -36.068,717.345C-35.497,718.834 -34,718.462 -33.668,716.75Z" style="fill:none;stroke:rgb(217,165,103);stroke-width:1.28px;"/>
        </g>
        <g transform="matrix(1.33333,0,0,1.33333,431.714,81.9302)">
            <path d="M-159.038,710.675C-159.286,710.029 -159.837,709.5 -160.262,709.5C-161.125,709.5 -161.322,711.963 -160.523,712.762C-159.7,713.586 -158.544,711.962 -159.038,710.675L-159.038,710.675Z" style="fill:none;stroke:rgb(217,165,103);stroke-width:1.28px;"/>
        </g>
        <g transform="matrix(1.33333,0,0,1.33333,431.714,81.9302)">
            <path d="M-271.286,711.839C-271.286,710.281 -267.337,701.661 -264.17,696.305C-261.987,692.613 -255.609,686.163 -252.28,684.279C-247.635,681.651 -243.386,680.03 -238.661,679.083C-229.751,677.298 -225.548,675.938 -223.056,674.033C-221.739,673.026 -218.155,668.252 -215.093,663.423C-208.864,653.599 -206.23,651.301 -198.911,649.302C-192.011,647.417 -188.786,647.137 -188.786,648.422C-188.786,649.118 -189.577,649.5 -191.02,649.5C-195.104,649.5 -202.942,652.603 -206.281,655.542C-208.151,657.189 -210.848,660.901 -212.774,664.478C-218.349,674.837 -222.672,678.135 -233.495,680.287C-241.487,681.877 -245.036,683.046 -245.036,684.091C-245.036,684.902 -245.73,684.954 -238.764,683.621C-221.444,680.307 -216.552,677.093 -210.571,665.097C-209.192,662.331 -207.186,659.227 -206.112,658.199C-202.741,654.97 -197.507,652.67 -192.252,652.107C-186.497,651.491 -185.24,652.767 -190.848,653.532C-198.637,654.594 -206.475,660.508 -208.214,666.636C-209.513,671.21 -208.795,671.263 -206.351,666.773C-203.489,661.514 -197.427,657.483 -190.592,656.293C-187.171,655.697 -185.323,655.663 -184.801,656.184C-183.963,657.023 -183.946,657.016 -189.802,658.416C-194.367,659.507 -198.978,662.645 -202.833,667.284C-208.693,674.336 -215.086,683.608 -214.274,683.879C-213.033,684.292 -210.905,682.091 -205.142,674.429C-197.952,664.87 -195.545,662.772 -189.482,660.785C-186.671,659.863 -184.014,659.329 -183.578,659.599C-181.996,660.577 -182.855,661.524 -186.114,662.396C-193.299,664.318 -205.564,675.022 -203.242,677.344C-202.641,677.945 -202.041,677.687 -201.038,676.397C-195.775,669.627 -187.051,663.75 -182.263,663.75C-178.481,663.75 -179.059,665.722 -182.973,666.168C-184.726,666.368 -187.733,667.25 -189.654,668.128C-193.604,669.933 -198.658,675.308 -198.005,677.009C-197.689,677.834 -196.585,677.138 -193.721,674.31C-191.6,672.214 -189.351,670.5 -188.725,670.5C-188.098,670.5 -187.204,670.119 -186.738,669.653C-186.272,669.187 -185.057,668.714 -184.038,668.602C-183.019,668.49 -181.489,668.178 -180.639,667.908C-178.984,667.383 -176.036,668.58 -176.036,669.776C-176.036,670.174 -177.639,670.503 -179.598,670.507C-183.817,670.516 -189.66,673.05 -192.911,676.281C-194.148,677.511 -197.138,680.924 -199.556,683.866C-204.15,689.456 -208.914,693.084 -215.814,696.246C-222.127,699.138 -224.388,699.588 -235.286,700.112C-240.854,700.38 -246.877,700.923 -248.669,701.318C-253.224,702.325 -263.475,707.037 -267.723,710.078C-269.683,711.48 -271.286,712.273 -271.286,711.839Z" style="fill:none;stroke:rgb(217,165,103);stroke-width:1.28px;"/>
        </g>
        <g transform="matrix(1.33333,0,0,1.33333,431.714,81.9302)">
            <path d="M-260.697,699.873C-258.864,697.054 -255.686,693.257 -253.636,691.436C-249.779,688.01 -248.939,686.824 -250.1,686.437C-252.336,685.692 -266.393,701.696 -265.514,703.987C-264.838,705.748 -264.116,705.132 -260.697,699.873Z" style="fill:none;stroke:rgb(217,165,103);stroke-width:1.28px;"/>
        </g>
        <g transform="matrix(1.33333,0,0,1.33333,431.714,81.9302)">
            <path d="M-117.536,698.436C-121.892,698.192 -136.326,694.772 -141.161,692.838C-143.223,692.013 -145.598,691.18 -146.437,690.987C-149.562,690.27 -159.801,682.533 -167.156,675.332C-181.025,661.751 -185.112,654.508 -189.346,636C-191.08,628.419 -191.325,625.696 -191.365,613.5C-191.428,594.407 -190.915,592.256 -182.668,577.05C-179.765,571.696 -171.467,561.378 -166.482,556.922C-160.783,551.828 -153.105,546.084 -150.845,545.225C-149.85,544.847 -149.036,544.212 -149.036,543.815C-149.036,543.418 -148.445,543.114 -147.723,543.139C-147.001,543.164 -144.892,542.609 -143.036,541.906C-139.088,540.41 -127.379,537.263 -121.881,536.221C-114.839,534.885 -98.344,535.259 -91.263,536.914C-84.207,538.564 -74.698,541.87 -71.786,543.688C-67.749,546.206 -56.858,555.999 -50.994,562.382C-44.717,569.215 -37.603,580.735 -36.795,585.375C-36.58,586.613 -35.897,588.971 -35.279,590.616C-33.385,595.655 -32.067,606.039 -31.965,616.724C-31.875,626.148 -32.046,627.505 -34.273,635.014C-41.374,658.96 -47.034,667.725 -64.286,681.497C-76.509,691.255 -84.443,695.356 -94.286,697.005C-101.389,698.195 -111.131,698.795 -117.536,698.436Z" style="fill:none;stroke:rgb(217,165,103);stroke-width:1.28px;"/>
        </g>
        <g transform="matrix(1.33333,0,0,1.33333,431.714,81.9302)">
            <path d="M-252.557,696.779C-251.951,696.396 -251.683,695.853 -251.963,695.573C-252.649,694.887 -254.786,695.76 -254.786,696.726C-254.786,697.679 -254.009,697.697 -252.557,696.779L-252.557,696.779Z" style="fill:none;stroke:rgb(217,165,103);stroke-width:1.28px;"/>
        </g>
        <g transform="matrix(1.33333,0,0,1.33333,431.714,81.9302)">
            <path d="M-113.786,694.191C-113.786,693.518 -114.948,692.962 -116.973,692.667C-118.726,692.411 -122.285,691.834 -124.882,691.384C-133.468,689.899 -131.103,692.144 -122.036,694.086C-115.61,695.463 -113.786,695.486 -113.786,694.191Z" style="fill:none;stroke:rgb(217,165,103);stroke-width:1.28px;"/>
        </g>
        <g transform="matrix(1.33333,0,0,1.33333,431.714,81.9302)">
            <path d="M-106.286,693.75C-106.286,692.773 -108.225,692.342 -109.354,693.069C-110.263,693.655 -110.263,693.845 -109.354,694.431C-108.225,695.158 -106.286,694.727 -106.286,693.75Z" style="fill:none;stroke:rgb(217,165,103);stroke-width:1.28px;"/>
        </g>
        <g transform="matrix(1.33333,0,0,1.33333,431.714,81.9302)">
            <path d="M-91.093,692.576C-86.919,691.518 -82.421,690.2 -81.098,689.647C-76.848,687.872 -65.552,679.66 -60.751,674.857C-56.01,670.114 -54.809,667.63 -59.234,671.72C-61.851,674.139 -67.908,678.61 -73.22,682.044C-81.924,687.67 -84.232,688.67 -92.376,690.347C-98.541,691.616 -100.723,692.366 -100.903,693.276C-101.231,694.929 -100.039,694.844 -91.093,692.576Z" style="fill:none;stroke:rgb(217,165,103);stroke-width:1.28px;"/>
        </g>
        <g transform="matrix(1.33333,0,0,1.33333,431.714,81.9302)">
            <path d="M13.213,693.759C9.869,692.993 4.444,689.674 2.356,687.116C1.384,685.926 -0.899,682.875 -2.717,680.336C-4.698,677.57 -6.761,675.534 -7.862,675.258C-8.873,675.004 -12.279,675.031 -15.431,675.319C-25.981,676.282 -29.506,675.607 -34.726,671.626C-38.443,668.791 -42.764,662.526 -41.975,661.116C-41.432,660.144 -40.992,660.398 -39.444,662.573C-37.219,665.701 -32.372,669.349 -28.469,670.834C-26.763,671.483 -21.924,672.008 -16.141,672.171C-5.388,672.475 -5.35,672.492 -0.979,679.063C4.025,686.586 10.457,691.573 13.044,689.935C13.864,689.416 13.785,689.27 12.679,689.261C11.172,689.25 0.964,679.345 0.964,677.895C0.964,677.419 -0.207,675.6 -1.639,673.852C-4.703,670.113 -6.017,669.758 -18.155,669.394C-26.841,669.133 -28.897,668.548 -33.8,664.946C-36.248,663.148 -39.845,656.607 -39.073,655.358C-38.766,654.861 -38.07,655.558 -37.358,657.073C-35.773,660.45 -27.905,665.74 -23.481,666.404C-19.768,666.96 -15.299,666.24 -15.948,665.189C-16.183,664.81 -17.676,664.5 -19.268,664.5C-22.587,664.5 -28.289,662.248 -31.854,659.528C-34.185,657.75 -37.785,651.999 -37.035,651.25C-36.84,651.054 -35.138,652.437 -33.253,654.322C-31.368,656.208 -29.461,657.75 -29.016,657.75C-28.57,657.75 -26.964,658.594 -25.447,659.625C-22.977,661.304 -21.932,661.5 -15.479,661.5C-10.221,661.5 -7.089,661.906 -3.905,663.002C0.844,664.636 1.687,664.603 -0.344,662.862C-3.02,660.567 -8.271,659.172 -15.119,658.935C-22.323,658.686 -24.035,658.115 -29.478,654.15C-33.117,651.498 -34.826,646.919 -33.74,642.73C-33.079,640.178 -33.079,640.178 -30.693,643.647C-25.07,651.819 -20.238,653.975 -7.416,654.033C0.543,654.069 4.044,654.989 8.155,658.124C11.515,660.687 13.475,663.86 14.14,667.812C15.945,678.549 21.093,688.01 26.682,690.861C29.466,692.281 29.605,692.487 28.285,693.23C26.579,694.19 16.619,694.54 13.213,693.759L13.213,693.759Z" style="fill:none;stroke:rgb(217,165,103);stroke-width:1.28px;"/>
        </g>
        <g transform="matrix(1.33333,0,0,1.33333,431.714,81.9302)">
            <path d="M-245.492,690.741C-243.062,689.508 -240.427,688.5 -239.636,688.5C-238.845,688.5 -238.406,688.163 -238.661,687.75C-239.659,686.134 -244.759,686.962 -247.923,689.255C-250.749,691.302 -251.918,693.015 -250.473,692.991C-250.164,692.985 -247.923,691.973 -245.492,690.741Z" style="fill:none;stroke:rgb(217,165,103);stroke-width:1.28px;"/>
        </g>
        <g transform="matrix(1.33333,0,0,1.33333,431.714,81.9302)">
            <path d="M20.281,690.938C20.483,690.324 19.791,690 18.277,690C16.049,690 15.382,690.667 16.496,691.782C17.302,692.587 19.93,692.001 20.281,690.938Z" style="fill:none;stroke:rgb(217,165,103);stroke-width:1.28px;"/>
        </g>
        <g transform="matrix(1.33333,0,0,1.33333,431.714,81.9302)">
            <path d="M-134.223,689.812C-134.695,688.393 -137.036,688.192 -137.036,689.57C-137.036,690.266 -136.394,690.75 -135.473,690.75C-134.557,690.75 -134.04,690.363 -134.223,689.813L-134.223,689.812Z" style="fill:none;stroke:rgb(217,165,103);stroke-width:1.28px;"/>
        </g>
        <g transform="matrix(1.33333,0,0,1.33333,431.714,81.9302)">
            <path d="M-102.521,688.875C-102.517,688.451 -105.862,687.935 -110.212,687.689C-114.446,687.449 -120.545,686.652 -123.764,685.917C-133.456,683.705 -131.566,686.115 -121.661,688.599C-115.949,690.031 -102.534,690.225 -102.521,688.875L-102.521,688.875Z" style="fill:none;stroke:rgb(217,165,103);stroke-width:1.28px;"/>
        </g>
        <g transform="matrix(1.33333,0,0,1.33333,431.714,81.9302)">
            <path d="M-91.761,687.264C-86.821,685.678 -82.582,684.136 -79.326,682.741C-75.936,681.289 -63.129,671.645 -61.462,669.289C-60.746,668.277 -59.064,665.962 -57.723,664.144C-56.382,662.326 -55.585,660.654 -55.952,660.427C-56.319,660.2 -57.567,661.277 -58.726,662.82C-61.012,665.861 -69.531,674.25 -70.335,674.25C-70.607,674.25 -72.141,675.3 -73.745,676.584C-77.589,679.661 -84.585,683.026 -90.127,684.463C-94.47,685.589 -98.786,687.424 -98.786,688.144C-98.786,688.874 -95.49,688.461 -91.761,687.264Z" style="fill:none;stroke:rgb(217,165,103);stroke-width:1.28px;"/>
        </g>
        <g transform="matrix(1.33333,0,0,1.33333,431.714,81.9302)">
            <path d="M-141.536,686.685C-141.536,686.099 -142.477,685.413 -143.626,685.16C-144.776,684.907 -147.73,683.363 -150.189,681.728C-154.53,678.842 -156.536,678.096 -156.536,679.369C-156.536,680.585 -152.874,683.396 -148.553,685.498C-143.614,687.901 -141.536,688.252 -141.536,686.685Z" style="fill:none;stroke:rgb(217,165,103);stroke-width:1.28px;"/>
        </g>
        <g transform="matrix(1.33333,0,0,1.33333,431.714,81.9302)">
            <path d="M-222.205,684.494C-217.844,682.175 -216.06,680.25 -218.271,680.25C-218.882,680.25 -221.525,681.313 -224.145,682.613C-226.764,683.913 -230.342,685.138 -232.097,685.336C-234.256,685.579 -235.286,686.055 -235.286,686.809C-235.286,688.659 -227.419,687.266 -222.205,684.494Z" style="fill:none;stroke:rgb(217,165,103);stroke-width:1.28px;"/>
        </g>
        <g transform="matrix(1.33333,0,0,1.33333,431.714,81.9302)">
            <path d="M12.214,682.827C12.214,682.594 11.278,681.615 10.133,680.652C8.988,679.688 6.372,676.507 4.32,673.581C0.908,668.718 -1.486,666.701 -2.566,667.781C-2.796,668.01 -1.252,670.093 0.865,672.41C2.982,674.726 4.714,676.97 4.714,677.397C4.714,678.473 10.037,683.25 11.236,683.25C11.774,683.25 12.214,683.06 12.214,682.827Z" style="fill:none;stroke:rgb(217,165,103);stroke-width:1.28px;"/>
        </g>
        <g transform="matrix(1.33333,0,0,1.33333,431.714,81.9302)">
            <path d="M-205.286,681.75C-205.286,681.338 -205.792,681 -206.411,681C-207.029,681 -207.536,681.338 -207.536,681.75C-207.536,682.162 -207.029,682.5 -206.411,682.5C-205.792,682.5 -205.286,682.162 -205.286,681.75Z" style="fill:none;stroke:rgb(217,165,103);stroke-width:1.28px;"/>
        </g>
        <g transform="matrix(1.33333,0,0,1.33333,431.714,81.9302)">
            <path d="M-210.953,675.583C-209.605,673.658 -209.471,672.75 -210.536,672.75C-211.508,672.75 -214.286,675.527 -214.286,676.5C-214.286,677.867 -212.14,677.277 -210.953,675.583Z" style="fill:none;stroke:rgb(217,165,103);stroke-width:1.28px;"/>
        </g>
        <g transform="matrix(1.33333,0,0,1.33333,431.714,81.9302)">
            <path d="M-159.293,675.301C-159.582,674.549 -159.99,674.404 -160.47,674.884C-161.329,675.743 -160.497,677.469 -159.517,676.863C-159.151,676.637 -159.05,675.934 -159.293,675.301L-159.293,675.301Z" style="fill:none;stroke:rgb(217,165,103);stroke-width:1.28px;"/>
        </g>
        <g transform="matrix(1.33333,0,0,1.33333,431.714,81.9302)">
            <path d="M-107.223,674.527C-104.395,673.769 -105.338,672.75 -108.866,672.75C-112.041,672.75 -113.552,673.483 -112.515,674.52C-111.917,675.119 -109.444,675.122 -107.223,674.526L-107.223,674.527Z" style="fill:none;stroke:rgb(217,165,103);stroke-width:1.28px;"/>
        </g>
        <g transform="matrix(1.33333,0,0,1.33333,431.714,81.9302)">
            <path d="M-99.486,672.724C-98.689,672.297 -98.036,671.444 -98.036,670.829C-98.036,669.844 -98.296,669.846 -100.238,670.849C-101.449,671.476 -102.651,672.328 -102.907,672.743C-103.516,673.729 -101.342,673.715 -99.486,672.724L-99.486,672.724Z" style="fill:none;stroke:rgb(217,165,103);stroke-width:1.28px;"/>
        </g>
        <g transform="matrix(1.33333,0,0,1.33333,431.714,81.9302)">
            <path d="M-103.173,670.481C-101.667,670.063 -100.229,669.183 -99.977,668.527C-99.627,667.615 -99.831,667.462 -100.84,667.878C-104.139,669.24 -108.508,669.854 -112.473,669.513C-116.487,669.168 -118.156,669.63 -117.015,670.77C-116.256,671.53 -106.191,671.32 -103.173,670.481Z" style="fill:none;stroke:rgb(217,165,103);stroke-width:1.28px;"/>
        </g>
        <g transform="matrix(1.33333,0,0,1.33333,431.714,81.9302)">
            <path d="M-102.781,666.973C-100.629,665.988 -99.039,663.997 -99.799,663.237C-99.962,663.073 -101.261,663.626 -102.684,664.466C-106.42,666.67 -111.328,667.17 -114.837,665.704C-116.422,665.042 -118.015,664.5 -118.377,664.5C-119.582,664.5 -119.057,665.625 -117.348,666.707C-113.742,668.99 -107.443,669.105 -102.781,666.973L-102.781,666.973Z" style="fill:none;stroke:rgb(217,165,103);stroke-width:1.28px;"/>
        </g>
        <g transform="matrix(1.33333,0,0,1.33333,431.714,81.9302)">
            <path d="M6.537,667.585C7.219,666.482 4.784,664.881 3.848,665.817C3.406,666.258 3.272,666.986 3.549,667.435C4.156,668.418 5.966,668.509 6.537,667.585L6.537,667.585Z" style="fill:none;stroke:rgb(217,165,103);stroke-width:1.28px;"/>
        </g>
        <g transform="matrix(1.33333,0,0,1.33333,431.714,81.9302)">
            <path d="M-6.924,666.022C-6.382,665.145 -9.864,664.151 -11.005,664.856C-11.448,665.13 -11.616,665.668 -11.379,666.052C-10.809,666.973 -7.498,666.951 -6.924,666.022L-6.924,666.022Z" style="fill:none;stroke:rgb(217,165,103);stroke-width:1.28px;"/>
        </g>
        <g transform="matrix(1.33333,0,0,1.33333,431.714,81.9302)">
            <path d="M-51.3,664.1C-50.604,662.642 -50.049,660.87 -50.066,660.162C-50.108,658.391 -54.536,663.588 -54.536,665.409C-54.536,667.669 -52.635,666.9 -51.3,664.1Z" style="fill:none;stroke:rgb(217,165,103);stroke-width:1.28px;"/>
        </g>
        <g transform="matrix(1.33333,0,0,1.33333,431.714,81.9302)">
            <path d="M-106.871,664.467C-104.011,663.673 -99.536,660.43 -99.536,659.152C-99.536,658.759 -101.123,659.367 -103.063,660.504C-105.712,662.056 -107.581,662.571 -110.563,662.571C-114.682,662.571 -115.475,663.128 -113.223,664.44C-111.544,665.418 -110.315,665.423 -106.871,664.468L-106.871,664.467Z" style="fill:none;stroke:rgb(217,165,103);stroke-width:1.28px;"/>
        </g>
        <g transform="matrix(1.33333,0,0,1.33333,431.714,81.9302)">
            <path d="M-135.911,662.25C-135.656,661.837 -135.953,661.5 -136.572,661.5C-137.191,661.5 -137.906,661.837 -138.161,662.25C-138.416,662.662 -138.118,663 -137.499,663C-136.88,663 -136.166,662.662 -135.911,662.25Z" style="fill:none;stroke:rgb(217,165,103);stroke-width:1.28px;"/>
        </g>
        <g transform="matrix(1.33333,0,0,1.33333,431.714,81.9302)">
            <path d="M-119.036,661.125C-119.036,660.506 -119.522,660 -120.116,660C-121.566,660 -122.285,661.275 -121.103,661.752C-119.466,662.412 -119.036,662.281 -119.036,661.125Z" style="fill:none;stroke:rgb(217,165,103);stroke-width:1.28px;"/>
        </g>
        <g transform="matrix(1.33333,0,0,1.33333,431.714,81.9302)">
            <path d="M-131.223,659.527C-128.295,658.743 -129.39,657.921 -133.286,657.98C-136.873,658.034 -138.097,658.697 -136.098,659.503C-134.765,660.041 -133.171,660.049 -131.223,659.526L-131.223,659.527Z" style="fill:none;stroke:rgb(217,165,103);stroke-width:1.28px;"/>
        </g>
        <g transform="matrix(1.33333,0,0,1.33333,431.714,81.9302)">
            <path d="M-84.13,657.7C-83.858,657.26 -83.754,656.784 -83.898,656.641C-84.414,656.132 -88.286,657.188 -88.286,657.837C-88.286,658.779 -84.724,658.662 -84.13,657.7L-84.13,657.7Z" style="fill:none;stroke:rgb(217,165,103);stroke-width:1.28px;"/>
        </g>
        <g transform="matrix(1.33333,0,0,1.33333,431.714,81.9302)">
            <path d="M-46.286,655.408C-46.286,654.634 -46.582,654 -46.944,654C-48.149,654 -49.46,656.214 -48.986,657.45C-48.607,658.438 -48.306,658.493 -47.402,657.743C-46.788,657.233 -46.286,656.183 -46.286,655.408Z" style="fill:none;stroke:rgb(217,165,103);stroke-width:1.28px;"/>
        </g>
        <g transform="matrix(1.33333,0,0,1.33333,431.714,81.9302)">
            <path d="M-53.036,655.813C-53.036,655.159 -53.436,654.759 -53.926,654.922C-55.317,655.385 -55.548,657 -54.223,657C-53.57,657 -53.036,656.466 -53.036,655.813Z" style="fill:none;stroke:rgb(217,165,103);stroke-width:1.28px;"/>
        </g>
        <g transform="matrix(1.33333,0,0,1.33333,431.714,81.9302)">
            <path d="M-127.661,655.86C-121.996,654.492 -117.695,654.497 -115.286,655.874C-112.748,657.325 -106.741,657.273 -103.845,655.775C-101.97,654.806 -100.224,654.647 -95.444,655.01C-89.459,655.465 -86.036,655.099 -86.036,654.005C-86.036,653.693 -87.109,653.222 -88.42,652.96C-89.732,652.697 -92.35,651.491 -94.24,650.279C-98.837,647.328 -103.112,646.692 -107.383,648.324C-109.881,649.278 -111.078,649.395 -112.198,648.796C-115.08,647.254 -119.033,647.927 -125.125,650.999C-128.397,652.649 -132.059,653.999 -133.261,653.999C-135.913,653.999 -136.804,655.124 -134.989,656.18C-133.29,657.169 -133.04,657.158 -127.661,655.859L-127.661,655.86Z" style="fill:none;stroke:rgb(217,165,103);stroke-width:1.28px;"/>
        </g>
        <g transform="matrix(1.33333,0,0,1.33333,431.714,81.9302)">
            <path d="M-113.411,653.598C-114.648,653.031 -117.264,652.552 -119.223,652.534C-123.535,652.493 -123.823,651.548 -119.884,650.368C-117.478,649.647 -116.394,649.717 -113.536,650.776C-110.29,651.979 -109.934,651.979 -107.412,650.777C-104.323,649.304 -101.592,649.149 -99.397,650.324C-98.03,651.056 -98.434,651.346 -103.009,652.917C-108.901,654.941 -110.281,655.031 -113.411,653.598Z" style="fill:none;stroke:rgb(217,165,103);stroke-width:1.28px;"/>
        </g>
        <g transform="matrix(1.33333,0,0,1.33333,431.714,81.9302)">
            <path d="M-40.583,643.063C-36.747,631.925 -34.675,621.52 -35.37,616.883C-36.019,612.555 -37.286,613.211 -37.286,617.876C-37.286,622.535 -41.081,637.875 -44.04,645.174C-46.281,650.701 -46.434,652.924 -44.53,652.29C-44.052,652.13 -42.276,647.978 -40.583,643.063Z" style="fill:none;stroke:rgb(217,165,103);stroke-width:1.28px;"/>
        </g>
        <g transform="matrix(1.33333,0,0,1.33333,431.714,81.9302)">
            <path d="M-174.2,650.936C-174.442,650.545 -174.959,650.423 -175.35,650.665C-175.74,650.906 -175.863,651.423 -175.621,651.814C-175.38,652.205 -174.862,652.327 -174.472,652.085C-174.081,651.844 -173.959,651.327 -174.2,650.936L-174.2,650.936Z" style="fill:none;stroke:rgb(217,165,103);stroke-width:1.28px;"/>
        </g>
        <g transform="matrix(1.33333,0,0,1.33333,431.714,81.9302)">
            <path d="M-49.359,648.494C-47.587,645.626 -47.04,642.673 -48.204,642.256C-48.881,642.013 -52.286,648.85 -52.286,650.452C-52.286,651.797 -50.776,650.786 -49.359,648.494Z" style="fill:none;stroke:rgb(217,165,103);stroke-width:1.28px;"/>
        </g>
        <g transform="matrix(1.33333,0,0,1.33333,431.714,81.9302)">
            <path d="M-178.241,641.728C-179.528,638.728 -180.557,634.322 -182.521,623.407C-183.049,620.468 -184.286,622.404 -184.286,626.172C-184.286,630.291 -180.573,643.34 -178.546,646.347C-177.273,648.234 -177.162,648.268 -176.948,646.828C-176.822,645.978 -177.404,643.683 -178.241,641.728Z" style="fill:none;stroke:rgb(217,165,103);stroke-width:1.28px;"/>
        </g>
        <g transform="matrix(1.33333,0,0,1.33333,431.714,81.9302)">
            <path d="M-107.339,645.637C-105.911,644.024 -105.911,644.024 -108.721,644.465C-111.242,644.86 -111.578,644.717 -111.99,643.077C-112.242,642.072 -112.749,641.25 -113.117,641.25C-113.889,641.25 -114.034,646.001 -113.286,646.75C-112.208,647.827 -108.698,647.17 -107.339,645.637Z" style="fill:none;stroke:rgb(217,165,103);stroke-width:1.28px;"/>
        </g>
        <g transform="matrix(1.33333,0,0,1.33333,431.714,81.9302)">
            <path d="M-104.597,636.386C-104.047,635.403 -103.294,635.222 -101.302,635.596C-96.974,636.408 -95.786,635.619 -95.786,631.926C-95.786,628.51 -97.976,624.75 -99.965,624.75C-101.412,624.75 -101.329,625.148 -99.244,628.216C-97.259,631.138 -97.38,634.188 -99.447,633.332C-102.46,632.085 -103.374,632.191 -105.574,634.042C-108.543,636.541 -112.902,636.719 -114.976,634.427C-116.184,633.093 -116.939,632.927 -119.968,633.328C-123.228,633.761 -123.536,633.668 -123.536,632.249C-123.536,631.396 -122.979,629.848 -122.299,628.81C-121.412,627.457 -121.292,626.694 -121.874,626.111C-123.006,624.98 -125.779,629.669 -125.783,632.721C-125.787,635.996 -124.251,637.102 -121.127,636.073C-119.021,635.379 -118.148,635.521 -115.151,637.039C-112.275,638.497 -111.07,638.713 -108.476,638.239C-106.734,637.921 -104.989,637.087 -104.597,636.386L-104.597,636.386Z" style="fill:none;stroke:rgb(217,165,103);stroke-width:1.28px;"/>
        </g>
        <g transform="matrix(1.33333,0,0,1.33333,431.714,81.9302)">
            <path d="M-45.668,636.5C-45.525,635.76 -45.907,635.25 -46.606,635.25C-47.301,635.25 -47.786,635.891 -47.786,636.813C-47.786,638.64 -46.033,638.382 -45.668,636.5Z" style="fill:none;stroke:rgb(217,165,103);stroke-width:1.28px;"/>
        </g>
        <g transform="matrix(1.33333,0,0,1.33333,431.714,81.9302)">
            <path d="M-221.786,631.202C-223.642,630.682 -227.354,629.308 -230.036,628.149C-240.657,623.56 -246.823,623.211 -255.71,626.694C-263.235,629.642 -270.853,630.989 -277.58,630.56C-282.981,630.216 -284.416,629.779 -290.411,626.65C-298.456,622.451 -304.739,616.423 -306.687,611.032C-307.389,609.089 -307.835,607.5 -307.679,607.5C-307.521,607.5 -305.369,608.706 -302.895,610.18C-295.214,614.755 -286.757,616.018 -278.388,613.838C-274.194,612.745 -271.947,611.565 -262.617,605.555C-253.587,599.738 -251.802,599.056 -245.411,598.985C-239.751,598.921 -239.007,599.113 -232.286,602.364C-222.182,607.252 -220.339,607.725 -212.884,607.345C-205.89,606.989 -200.301,604.846 -196.106,600.912C-193.573,598.536 -193.103,598.902 -194.092,602.483C-194.937,605.544 -197.148,607 -204.536,609.364C-210.66,611.324 -211.029,612.26 -205.492,611.791C-202.649,611.55 -199.828,610.781 -198.279,609.823C-195.075,607.843 -194.786,607.857 -194.786,609.986C-194.786,612.159 -198.026,613.816 -204.653,615.031C-210.997,616.195 -219.253,615.388 -225.435,613C-238.07,608.119 -240.154,607.502 -243.833,607.553C-245.938,607.582 -248.336,607.896 -249.161,608.25C-250.933,609.012 -250.252,609.182 -246.081,609.02C-244.257,608.949 -241.071,609.685 -238.265,610.825C-235.659,611.884 -233.186,612.75 -232.768,612.75C-232.351,612.75 -230.531,613.466 -228.724,614.341C-226.84,615.253 -221.988,616.4 -217.35,617.03C-210.208,618.001 -208.613,617.998 -203.711,617.008C-200.658,616.391 -197.401,615.648 -196.473,615.355C-192.895,614.23 -194.995,616.391 -199.473,618.442C-203.716,620.385 -204.944,620.591 -212.411,620.607C-220.162,620.624 -221.104,620.455 -227.991,617.812C-235.669,614.866 -236.786,614.59 -236.786,615.638C-236.786,616.781 -226.574,621.019 -220.921,622.223C-214.051,623.685 -204.804,623.14 -198.88,620.923C-196.571,620.06 -194.457,619.578 -194.183,619.853C-193.354,620.681 -196.979,622.952 -201.912,624.693C-209.434,627.349 -213.613,627.457 -222.05,625.211C-230.406,622.987 -230.273,623.009 -229.7,623.936C-229.09,624.922 -219.707,628.368 -216.116,628.924C-212.124,629.542 -202.364,628.032 -198.067,626.131C-196.194,625.302 -194.506,624.779 -194.317,624.969C-193.857,625.429 -201.157,630.643 -203.518,631.54C-206.157,632.544 -217.769,632.328 -221.786,631.202L-221.786,631.202Z" style="fill:none;stroke:rgb(217,165,103);stroke-width:1.28px;"/>
        </g>
        <g transform="matrix(1.33333,0,0,1.33333,431.714,81.9302)">
            <path d="M-43.52,630.911C-41.631,629.71 -40.088,622.5 -41.719,622.5C-42.095,622.5 -43.059,624.525 -43.86,627C-45.302,631.452 -45.253,632.013 -43.52,630.911Z" style="fill:none;stroke:rgb(217,165,103);stroke-width:1.28px;"/>
        </g>
        <g transform="matrix(1.33333,0,0,1.33333,431.714,81.9302)">
            <path d="M-102.74,626.438C-103.039,625.188 -103.081,625.188 -103.625,626.438C-103.939,627.159 -103.939,628.341 -103.625,629.063C-103.081,630.313 -103.039,630.313 -102.74,629.063C-102.567,628.341 -102.567,627.159 -102.74,626.438Z" style="fill:none;stroke:rgb(217,165,103);stroke-width:1.28px;"/>
        </g>
        <g transform="matrix(1.33333,0,0,1.33333,431.714,81.9302)">
            <path d="M-47.036,627.044C-47.036,625.787 -48.366,625.476 -48.809,626.629C-49.07,627.31 -48.806,627.75 -48.137,627.75C-47.531,627.75 -47.036,627.432 -47.036,627.044Z" style="fill:none;stroke:rgb(217,165,103);stroke-width:1.28px;"/>
        </g>
        <g transform="matrix(1.33333,0,0,1.33333,431.714,81.9302)">
            <path d="M-187.081,625.548C-186.862,624.709 -187.141,623.928 -187.744,623.697C-188.46,623.422 -188.786,623.876 -188.786,625.149C-188.786,627.345 -187.622,627.618 -187.081,625.548Z" style="fill:none;stroke:rgb(217,165,103);stroke-width:1.28px;"/>
        </g>
        <g transform="matrix(1.33333,0,0,1.33333,431.714,81.9302)">
            <path d="M5.348,625.886C3.84,625.332 1.788,624.342 0.788,623.687C-0.212,623.031 -2.859,621.949 -5.095,621.281C-10.729,619.598 -22.699,620.211 -26.359,622.37C-28.468,623.615 -28.993,623.693 -29.33,622.816C-31.86,616.222 -9.916,615.099 2.897,621.166C7.785,623.481 8.573,623.625 16.339,623.625C24.589,623.625 24.589,623.625 30.751,620.133C34.14,618.212 39.709,615.708 43.126,614.569C49.284,612.515 49.406,612.506 56.839,613.477C60.964,614.016 66.027,614.417 68.089,614.367C76.748,614.159 77.961,612.247 69.402,612.299C66.205,612.319 60.833,611.857 57.463,611.273C48.744,609.764 44.197,610.742 32.464,616.652C23.089,621.375 23.089,621.375 16.339,621.323C10.771,621.28 8.736,620.914 4.714,619.235C2.033,618.115 -2.207,616.724 -4.709,616.143C-10.311,614.841 -24.175,614.53 -26.973,615.643C-28.869,616.397 -29.036,616.321 -29.036,614.709C-29.036,613.19 -28.568,612.89 -25.556,612.477C-16.257,611.203 -9.133,612.162 4.536,616.53C9.331,618.063 13.013,618.75 16.424,618.75C20.968,618.75 21.981,618.423 28.978,614.69C38.081,609.835 43.126,608.25 49.475,608.25C52.135,608.25 54.214,607.921 54.214,607.5C54.214,607.059 51.595,606.75 47.856,606.75C40.833,606.75 37.181,607.851 25.754,613.415C17.813,617.282 15.366,617.331 4.903,613.83C-4.36,610.731 -13.217,609.459 -22.473,609.9C-27.419,610.135 -29.036,609.979 -29.036,609.266C-29.036,607.941 -24.238,606.757 -18.911,606.767C-13.541,606.779 -3.969,608.28 4.464,610.435C11.795,612.308 22.396,612.572 24.632,610.936C26.673,609.444 25.714,608.885 22.665,609.79C20.074,610.56 12.461,610.084 9.514,608.968C8.647,608.641 3.584,607.454 -1.736,606.332C-11.893,604.189 -18.297,603.747 -25.473,604.694C-28.979,605.157 -29.786,605.063 -29.786,604.19C-29.786,600.296 -6.924,600.503 3.569,604.492C7.433,605.961 8.49,604.568 4.902,602.736C-1.045,599.7 -22.481,597.936 -27.987,600.029C-29.532,600.616 -30.187,600.57 -30.649,599.842C-32.18,597.43 -30.695,596.385 -22.315,593.973C-16.077,592.178 -13.161,591.75 -7.152,591.75C1.22,591.75 1.277,591.77 11.479,598.47C18.487,603.072 21.714,604.105 28.339,603.871C32.631,603.719 35.26,602.972 42.472,599.854C45.802,598.414 49.753,597.411 53.722,596.997C59.839,596.36 59.839,596.36 66.997,600.421C73.951,604.366 83.266,607.5 88.04,607.5C91.403,607.5 91.213,608.692 87.405,611.462C79.393,617.291 73.608,618.707 63.551,617.3C47.967,615.12 45.817,615.346 38.464,619.937C36.196,621.353 32.237,623.522 29.668,624.756C25.302,626.854 24.446,626.997 16.543,626.947C11.454,626.916 6.998,626.493 5.348,625.886L5.348,625.886Z" style="fill:none;stroke:rgb(217,165,103);stroke-width:1.28px;"/>
        </g>
        <g transform="matrix(1.33333,0,0,1.33333,431.714,81.9302)">
            <path d="M-232.286,623.4C-232.286,622.193 -234.134,621 -235.998,621.005C-237.911,621.011 -237.911,621.011 -235.661,622.5C-233.245,624.1 -232.286,624.356 -232.286,623.4Z" style="fill:none;stroke:rgb(217,165,103);stroke-width:1.28px;"/>
        </g>
        <g transform="matrix(1.33333,0,0,1.33333,431.714,81.9302)">
            <path d="M-103.758,616.313C-103.952,602.45 -98.631,592.538 -88.198,587.325C-80.028,583.242 -68.929,583.527 -62.187,587.992C-57.886,590.841 -55.927,591.013 -58.394,588.326C-59.366,587.268 -61.511,585.508 -63.161,584.417C-65.827,582.652 -67.042,582.399 -74.087,582.137C-81.615,581.858 -82.3,581.963 -87.704,584.212C-92.059,586.025 -94.302,587.54 -97.256,590.664C-102.875,596.606 -105.072,601.811 -105.413,609.994C-105.696,616.789 -105.094,623.25 -104.177,623.25C-103.893,623.25 -103.704,620.128 -103.758,616.313Z" style="fill:none;stroke:rgb(217,165,103);stroke-width:1.28px;"/>
        </g>
        <g transform="matrix(1.33333,0,0,1.33333,431.714,81.9302)">
            <path d="M-72.431,621.065C-70.254,619.299 -71.084,618.19 -73.693,619.378C-74.745,619.858 -78.189,620.25 -81.346,620.25C-84.787,620.25 -86.8,620.521 -86.373,620.927C-84.277,622.92 -74.834,623.013 -72.431,621.065L-72.431,621.065Z" style="fill:none;stroke:rgb(217,165,103);stroke-width:1.28px;"/>
        </g>
        <g transform="matrix(1.33333,0,0,1.33333,431.714,81.9302)">
            <path d="M-139.403,621.448C-137.532,620.291 -138.747,619.828 -143.598,619.851C-146.383,619.865 -149.743,619.706 -151.065,619.5C-154.985,618.889 -154.234,620.539 -150.161,621.488C-146.263,622.396 -140.905,622.376 -139.403,621.448L-139.403,621.448Z" style="fill:none;stroke:rgb(217,165,103);stroke-width:1.28px;"/>
        </g>
        <g transform="matrix(1.33333,0,0,1.33333,431.714,81.9302)">
            <path d="M-40.741,618.314C-39.907,616.141 -40.271,606.208 -41.403,600.254C-42.608,593.914 -46.392,585.536 -48.819,583.836C-49.644,583.258 -50.441,582.905 -50.588,583.053C-50.735,583.2 -49.679,585.47 -48.241,588.098C-44.223,595.439 -42.449,602.738 -42.479,611.813C-42.502,618.898 -41.871,621.258 -40.741,618.314Z" style="fill:none;stroke:rgb(217,165,103);stroke-width:1.28px;"/>
        </g>
        <g transform="matrix(1.33333,0,0,1.33333,431.714,81.9302)">
            <path d="M-158.196,617.854C-159.648,615.666 -161.036,615.28 -161.036,617.063C-161.036,618.885 -160.414,619.5 -158.569,619.5C-157.227,619.5 -157.196,619.36 -158.196,617.854Z" style="fill:none;stroke:rgb(217,165,103);stroke-width:1.28px;"/>
        </g>
        <g transform="matrix(1.33333,0,0,1.33333,431.714,81.9302)">
            <path d="M-64.418,617.75C-64.151,616.374 -64.859,616.174 -66.444,617.178C-67.626,617.926 -66.846,619.728 -65.529,619.29C-65.052,619.131 -64.552,618.438 -64.418,617.75Z" style="fill:none;stroke:rgb(217,165,103);stroke-width:1.28px;"/>
        </g>
        <g transform="matrix(1.33333,0,0,1.33333,431.714,81.9302)">
            <path d="M-178.286,618.044C-178.286,617.656 -178.623,617.13 -179.036,616.875C-179.448,616.62 -179.786,616.938 -179.786,617.581C-179.786,618.224 -179.448,618.75 -179.036,618.75C-178.623,618.75 -178.286,618.433 -178.286,618.044Z" style="fill:none;stroke:rgb(217,165,103);stroke-width:1.28px;"/>
        </g>
        <g transform="matrix(1.33333,0,0,1.33333,431.714,81.9302)">
            <path d="M-281.786,617.625C-281.786,617.006 -282.292,616.5 -282.911,616.5C-283.529,616.5 -284.036,617.006 -284.036,617.625C-284.036,618.244 -283.529,618.75 -282.911,618.75C-282.292,618.75 -281.786,618.244 -281.786,617.625Z" style="fill:none;stroke:rgb(217,165,103);stroke-width:1.28px;"/>
        </g>
        <g transform="matrix(1.33333,0,0,1.33333,431.714,81.9302)">
            <path d="M-273.972,617.545C-272.217,616.872 -272.533,615.749 -274.473,615.76C-277.121,615.777 -279.559,616.605 -279.108,617.335C-278.637,618.098 -275.723,618.217 -273.972,617.545L-273.972,617.545Z" style="fill:none;stroke:rgb(217,165,103);stroke-width:1.28px;"/>
        </g>
        <g transform="matrix(1.33333,0,0,1.33333,431.714,81.9302)">
            <path d="M-187.286,615.375C-187.286,614.393 -187.623,613.38 -188.036,613.125C-188.483,612.849 -188.786,613.757 -188.786,615.375C-188.786,616.993 -188.483,617.902 -188.036,617.625C-187.623,617.37 -187.286,616.358 -187.286,615.375Z" style="fill:none;stroke:rgb(217,165,103);stroke-width:1.28px;"/>
        </g>
        <g transform="matrix(1.33333,0,0,1.33333,431.714,81.9302)">
            <path d="M-182.57,611.063C-181.574,596.819 -176.267,583.795 -168.051,575.434C-162.611,569.898 -162.93,568.478 -168.491,573.478C-176.644,580.807 -181.163,589.166 -183.913,601.998C-185.211,608.055 -185.007,616.5 -183.564,616.5C-183.226,616.5 -182.779,614.053 -182.57,611.063Z" style="fill:none;stroke:rgb(217,165,103);stroke-width:1.28px;"/>
        </g>
        <g transform="matrix(1.33333,0,0,1.33333,431.714,81.9302)">
            <path d="M-240.536,614.625C-240.536,614.006 -241.042,613.5 -241.661,613.5C-242.279,613.5 -242.786,614.006 -242.786,614.625C-242.786,615.244 -242.279,615.75 -241.661,615.75C-241.042,615.75 -240.536,615.244 -240.536,614.625Z" style="fill:none;stroke:rgb(217,165,103);stroke-width:1.28px;"/>
        </g>
        <g transform="matrix(1.33333,0,0,1.33333,431.714,81.9302)">
            <path d="M-266.786,613.385C-266.579,613.116 -262.451,610.838 -257.612,608.323C-250.053,604.395 -248.248,603.75 -244.806,603.75C-241.025,603.75 -234.24,606.115 -226.615,610.091C-224.134,611.385 -221.036,611.625 -221.036,610.523C-221.036,609.594 -231.282,604.764 -237.161,602.922C-242.829,601.146 -245.262,601.145 -250.966,602.92C-257.387,604.919 -270.536,613.127 -270.536,615.137C-270.536,615.752 -267.519,614.343 -266.786,613.385Z" style="fill:none;stroke:rgb(217,165,103);stroke-width:1.28px;"/>
        </g>
        <g transform="matrix(1.33333,0,0,1.33333,431.714,81.9302)">
            <path d="M-135.503,612.511C-133.304,610.971 -135.215,610.453 -138.324,611.746C-141.138,612.917 -142.286,613.014 -142.286,612.081C-142.286,611.714 -141.523,611.221 -140.591,610.987C-138.556,610.477 -136.286,606.895 -136.286,604.197C-136.286,603.126 -135.978,602.25 -135.603,602.25C-135.228,602.25 -133.176,603.629 -131.043,605.315C-128.91,607.001 -127.011,608.226 -126.823,608.037C-126.147,607.361 -128.242,603.88 -130.183,602.455C-134.399,599.359 -138.892,598.264 -145.647,598.686C-152.449,599.11 -156.498,600.81 -160.234,604.809C-162.021,606.722 -162.028,606.784 -160.609,607.898C-158.05,609.905 -153.629,612.008 -153.251,611.396C-152.668,610.453 -153.716,609.31 -156.441,607.912C-159.325,606.434 -159.016,605.796 -154.098,603.079C-151.286,601.526 -151.286,601.526 -151.286,603.8C-151.286,607.34 -149.305,610.484 -146.753,610.994C-145.534,611.238 -144.536,611.756 -144.536,612.144C-144.536,612.533 -145.211,612.66 -146.036,612.426C-146.861,612.192 -148.211,611.809 -149.036,611.575C-149.861,611.34 -150.536,611.476 -150.536,611.875C-150.536,614.134 -138.544,614.642 -135.503,612.511L-135.503,612.511Z" style="fill:none;stroke:rgb(217,165,103);stroke-width:1.28px;"/>
        </g>
        <g transform="matrix(1.33333,0,0,1.33333,431.714,81.9302)">
            <path d="M-254.736,612.724C-253.938,612.297 -253.286,611.622 -253.286,611.224C-253.286,610.2 -255.81,610.324 -256.886,611.4C-258.817,613.332 -257.448,614.175 -254.736,612.724L-254.736,612.724Z" style="fill:none;stroke:rgb(217,165,103);stroke-width:1.28px;"/>
        </g>
        <g transform="matrix(1.33333,0,0,1.33333,431.714,81.9302)">
            <path d="M-73.609,612.389C-71.575,611.779 -68.431,609.995 -66.621,608.426C-62.211,604.601 -62.709,602.993 -69.265,599.896C-78.839,595.372 -88.501,596.436 -94.222,602.643C-97.029,605.688 -97.999,607.5 -96.823,607.5C-96.568,607.5 -94.965,606.066 -93.26,604.313C-90.161,601.125 -90.161,601.125 -89.917,603.75C-89.665,606.47 -87.266,609.75 -85.53,609.75C-84.983,609.75 -84.536,610.088 -84.536,610.5C-84.536,611.549 -86.069,611.436 -89.827,610.111C-91.752,609.431 -93.331,609.245 -93.735,609.649C-94.424,610.339 -89.629,612.423 -86.036,612.997C-81.824,613.669 -77.101,613.438 -73.609,612.389Z" style="fill:none;stroke:rgb(217,165,103);stroke-width:1.28px;"/>
        </g>
        <g transform="matrix(1.33333,0,0,1.33333,431.714,81.9302)">
            <path d="M82.278,612.295C82.93,612.045 83.464,611.515 83.464,611.118C83.464,610.075 80.265,610.698 79.898,611.813C79.562,612.834 80.421,613.008 82.278,612.295Z" style="fill:none;stroke:rgb(217,165,103);stroke-width:1.28px;"/>
        </g>
        <g transform="matrix(1.33333,0,0,1.33333,431.714,81.9302)">
            <path d="M-213.723,611.438C-213.528,610.853 -214.123,610.5 -215.304,610.5C-217.4,610.5 -218.578,611.652 -217.103,612.261C-215.649,612.86 -214.068,612.475 -213.723,611.438Z" style="fill:none;stroke:rgb(217,165,103);stroke-width:1.28px;"/>
        </g>
        <g transform="matrix(1.33333,0,0,1.33333,431.714,81.9302)">
            <path d="M-164.176,609.938C-164.313,609.216 -165.182,608.517 -166.106,608.386C-167.952,608.122 -168.282,608.954 -166.886,610.35C-165.542,611.694 -163.889,611.442 -164.176,609.938Z" style="fill:none;stroke:rgb(217,165,103);stroke-width:1.28px;"/>
        </g>
        <g transform="matrix(1.33333,0,0,1.33333,431.714,81.9302)">
            <path d="M-76.739,608.747C-74.163,606.318 -73.886,605.716 -74.265,603.381C-74.499,601.934 -74.533,600.75 -74.339,600.75C-73.381,600.75 -66.536,604.607 -66.536,605.147C-66.536,606.869 -72.173,610.083 -76.676,610.928L-76.739,608.747Z" style="fill:none;stroke:rgb(217,165,103);stroke-width:1.28px;"/>
        </g>
        <g transform="matrix(1.33333,0,0,1.33333,431.714,81.9302)">
            <path d="M-130.229,609.544C-130.322,608.647 -131.351,608.821 -131.673,609.788C-131.838,610.283 -131.568,610.553 -131.073,610.388C-130.578,610.223 -130.198,609.843 -130.229,609.544L-130.229,609.544Z" style="fill:none;stroke:rgb(217,165,103);stroke-width:1.28px;"/>
        </g>
        <g transform="matrix(1.33333,0,0,1.33333,431.714,81.9302)">
            <path d="M-168.269,604.734C-166.856,600.275 -166.755,599.25 -167.732,599.25C-168.731,599.25 -171.688,607.522 -171.17,608.87C-170.555,610.474 -169.704,609.26 -168.269,604.734Z" style="fill:none;stroke:rgb(217,165,103);stroke-width:1.28px;"/>
        </g>
        <g transform="matrix(1.33333,0,0,1.33333,431.714,81.9302)">
            <path d="M-35.928,607.688C-36.233,606.107 -37.564,606.206 -37.903,607.836C-38.045,608.515 -37.631,609 -36.911,609C-36.138,609 -35.77,608.509 -35.928,607.688L-35.928,607.688Z" style="fill:none;stroke:rgb(217,165,103);stroke-width:1.28px;"/>
        </g>
        <g transform="matrix(1.33333,0,0,1.33333,431.714,81.9302)">
            <path d="M-147.794,607.629C-149.156,606.125 -149.478,601.862 -148.286,601.125C-147.834,600.846 -147.536,601.848 -147.536,603.646C-147.536,606.362 -147.33,606.676 -145.255,607.132C-142.8,607.671 -140.786,606.586 -140.786,604.724C-140.786,603.9 -141.339,603.753 -143.036,604.125C-145.07,604.572 -145.286,604.439 -145.286,602.735C-145.286,600.59 -143.253,599.595 -140.357,600.322C-138.826,600.706 -138.536,601.236 -138.536,603.648C-138.536,605.476 -139.034,606.968 -139.907,607.759C-141.761,609.436 -146.225,609.363 -147.794,607.629L-147.794,607.629Z" style="fill:none;stroke:rgb(217,165,103);stroke-width:1.28px;"/>
        </g>
        <g transform="matrix(1.33333,0,0,1.33333,431.714,81.9302)">
            <path d="M61.274,608.547C62.937,607.908 61.984,606.75 59.795,606.75C57.869,606.75 57.305,607.859 58.902,608.503C59.417,608.711 59.896,608.908 59.965,608.941L61.274,608.547Z" style="fill:none;stroke:rgb(217,165,103);stroke-width:1.28px;"/>
        </g>
        <g transform="matrix(1.33333,0,0,1.33333,431.714,81.9302)">
            <path d="M-84.659,607.4C-85.758,606.998 -86.81,606.265 -86.997,605.772C-87.498,604.452 -86.712,599.957 -86.052,600.365C-85.741,600.557 -85.644,601.536 -85.836,602.541C-86.266,604.793 -83.203,607.142 -80.822,606.387C-78.597,605.681 -78.936,603.89 -81.348,603.613C-84.277,603.275 -84.656,600.381 -81.863,599.68C-77.673,598.629 -75.132,604.582 -78.703,607.083C-80.577,608.396 -81.767,608.459 -84.659,607.4L-84.659,607.4Z" style="fill:none;stroke:rgb(217,165,103);stroke-width:1.28px;"/>
        </g>
        <g transform="matrix(1.33333,0,0,1.33333,431.714,81.9302)">
            <path d="M-54.536,604.539C-54.536,603.372 -55.234,601.62 -56.088,600.646C-57.64,598.875 -57.64,598.875 -57.095,601.125C-56.795,602.363 -56.462,604.219 -56.354,605.25C-56.094,607.737 -56.141,607.654 -55.286,607.125C-54.873,606.87 -54.536,605.706 -54.536,604.539Z" style="fill:none;stroke:rgb(217,165,103);stroke-width:1.28px;"/>
        </g>
        <g transform="matrix(1.33333,0,0,1.33333,431.714,81.9302)">
            <path d="M-50.036,605.206C-50.036,604.357 -50.373,603.87 -50.786,604.125C-51.198,604.38 -51.536,605.075 -51.536,605.669C-51.536,606.264 -51.198,606.75 -50.786,606.75C-50.373,606.75 -50.036,606.055 -50.036,605.206Z" style="fill:none;stroke:rgb(217,165,103);stroke-width:1.28px;"/>
        </g>
        <g transform="matrix(1.33333,0,0,1.33333,431.714,81.9302)">
            <path d="M-119.786,604.919C-119.786,604.325 -120.1,603.645 -120.484,603.407C-121.376,602.856 -122.272,604.261 -121.661,605.25C-120.971,606.366 -119.786,606.157 -119.786,604.919Z" style="fill:none;stroke:rgb(217,165,103);stroke-width:1.28px;"/>
        </g>
        <g transform="matrix(1.33333,0,0,1.33333,431.714,81.9302)">
            <path d="M13.191,604.885C13.273,604.478 12.749,604.032 12.027,603.893C11.206,603.735 10.714,604.103 10.714,604.875C10.714,606.18 12.931,606.189 13.191,604.886L13.191,604.885Z" style="fill:none;stroke:rgb(217,165,103);stroke-width:1.28px;"/>
        </g>
        <g transform="matrix(1.33333,0,0,1.33333,431.714,81.9302)">
            <path d="M-58.774,604.101C-59.006,603.496 -59.498,603 -59.866,603C-60.636,603 -60.771,604.765 -60.056,605.48C-59.256,606.28 -58.323,605.277 -58.774,604.101Z" style="fill:none;stroke:rgb(217,165,103);stroke-width:1.28px;"/>
        </g>
        <g transform="matrix(1.33333,0,0,1.33333,431.714,81.9302)">
            <path d="M-96.986,600.938C-94.692,596.458 -89.673,591.613 -85.286,589.642C-82.496,588.389 -82.236,588.117 -83.786,588.071C-88.788,587.922 -96.863,594.01 -99.255,599.734C-101.58,605.301 -99.725,606.285 -96.986,600.938Z" style="fill:none;stroke:rgb(217,165,103);stroke-width:1.28px;"/>
        </g>
        <g transform="matrix(1.33333,0,0,1.33333,431.714,81.9302)">
            <path d="M-171.888,600.199C-171.385,598.495 -170.252,596.183 -169.369,595.061C-167.743,592.994 -167.713,591.903 -169.309,592.89C-170.903,593.875 -174.536,600.265 -174.536,602.085C-174.536,604.838 -172.918,603.686 -171.889,600.199L-171.888,600.199Z" style="fill:none;stroke:rgb(217,165,103);stroke-width:1.28px;"/>
        </g>
        <g transform="matrix(1.33333,0,0,1.33333,431.714,81.9302)">
            <path d="M-50.468,599.813C-51.254,597.327 -53.057,594.792 -54.642,593.943C-56.501,592.948 -56.408,593.492 -53.973,597.826C-51.837,601.631 -49.469,602.972 -50.468,599.813Z" style="fill:none;stroke:rgb(217,165,103);stroke-width:1.28px;"/>
        </g>
        <g transform="matrix(1.33333,0,0,1.33333,431.714,81.9302)">
            <path d="M-126.304,596.715C-128.95,592.939 -135.321,588.987 -139.859,588.306C-144.178,587.659 -155.166,589.483 -155.641,590.926C-155.902,591.721 -155.55,591.846 -154.199,591.44C-153.215,591.145 -149.373,590.728 -145.661,590.514C-139.329,590.149 -138.655,590.256 -134.786,592.25C-131.941,593.715 -129.729,595.633 -127.661,598.425C-125.432,601.434 -124.594,602.132 -124.399,601.14C-124.256,600.406 -125.113,598.415 -126.304,596.715Z" style="fill:none;stroke:rgb(217,165,103);stroke-width:1.28px;"/>
        </g>
        <g transform="matrix(1.33333,0,0,1.33333,431.714,81.9302)">
            <path d="M-36.536,599.956C-36.536,599.568 -37.042,599.25 -37.661,599.25C-38.82,599.25 -39.151,600.135 -38.306,600.98C-37.707,601.579 -36.536,600.901 -36.536,599.956Z" style="fill:none;stroke:rgb(217,165,103);stroke-width:1.28px;"/>
        </g>
        <g transform="matrix(1.33333,0,0,1.33333,431.714,81.9302)">
            <path d="M-121.321,594.665C-121.82,593.46 -123.62,591.391 -125.32,590.069C-127.02,588.746 -128.579,587.452 -128.786,587.193C-128.992,586.935 -131.429,585.974 -134.2,585.058C-140.031,583.132 -148.189,582.788 -154.146,584.217C-159.02,585.386 -166.286,589.255 -166.286,590.681C-166.286,592.258 -165.227,592.008 -161.069,589.449C-158.817,588.064 -154.99,586.665 -151.448,585.932C-145.704,584.745 -145.395,584.757 -138.248,586.479C-131.818,588.028 -130.484,588.642 -127.272,591.53C-125.261,593.338 -123.387,595.562 -123.109,596.471C-122.83,597.381 -122.222,598.603 -121.756,599.186C-120.49,600.775 -120.169,597.445 -121.321,594.665Z" style="fill:none;stroke:rgb(217,165,103);stroke-width:1.28px;"/>
        </g>
        <g transform="matrix(1.33333,0,0,1.33333,431.714,81.9302)">
            <path d="M-153.87,596.935C-153.097,595.684 -154.836,594.25 -155.87,595.285C-156.736,596.15 -156.194,597.75 -155.036,597.75C-154.672,597.75 -154.147,597.383 -153.87,596.935Z" style="fill:none;stroke:rgb(217,165,103);stroke-width:1.28px;"/>
        </g>
        <g transform="matrix(1.33333,0,0,1.33333,431.714,81.9302)">
            <path d="M-38.884,590.603C-41.106,582.518 -49.702,569.25 -52.719,569.25C-54.373,569.25 -53.997,570.367 -51.419,573.108C-48.089,576.648 -44.603,582.354 -42.548,587.625C-40.048,594.04 -39.491,595.005 -38.731,594.246C-38.344,593.858 -38.407,592.336 -38.884,590.603L-38.884,590.603Z" style="fill:none;stroke:rgb(217,165,103);stroke-width:1.28px;"/>
        </g>
        <g transform="matrix(1.33333,0,0,1.33333,431.714,81.9302)">
            <path d="M-77.036,588C-77.036,587.588 -77.373,587.25 -77.786,587.25C-78.198,587.25 -78.536,587.588 -78.536,588C-78.536,588.413 -78.198,588.75 -77.786,588.75C-77.373,588.75 -77.036,588.413 -77.036,588Z" style="fill:none;stroke:rgb(217,165,103);stroke-width:1.28px;"/>
        </g>
        <g transform="matrix(1.33333,0,0,1.33333,431.714,81.9302)">
            <path d="M-163.979,581.044C-164.072,580.147 -165.101,580.321 -165.423,581.288C-165.588,581.783 -165.318,582.053 -164.823,581.888C-164.328,581.723 -163.948,581.343 -163.979,581.044L-163.979,581.044Z" style="fill:none;stroke:rgb(217,165,103);stroke-width:1.28px;"/>
        </g>
        <g transform="matrix(1.33333,0,0,1.33333,431.714,81.9302)">
            <path d="M-195.161,581.315C-196.811,581.042 -200.239,579.406 -202.778,577.679C-206.363,575.241 -208.125,573.329 -210.653,569.132C-213.082,565.101 -214.827,563.166 -217.512,561.526C-220.919,559.444 -221.745,559.291 -232.887,558.673C-244.053,558.054 -244.912,557.894 -249.528,555.573C-255.485,552.577 -259.531,548.484 -263.608,541.326C-268.471,532.789 -268.469,532.757 -263.289,535.372C-253.132,540.499 -244.862,541.082 -234.944,537.37C-232.451,536.437 -227.93,535.428 -224.899,535.128C-219.51,534.595 -219.259,534.648 -213.68,537.479C-206.841,540.95 -203.343,544.251 -200.662,549.765C-199.117,552.942 -197.5,554.742 -193.537,557.695C-187.887,561.905 -185.651,562.909 -180.348,563.617C-178.389,563.878 -176.786,564.452 -176.786,564.893C-176.786,566.167 -183.844,564.926 -188.651,562.807C-195.625,559.733 -198.379,557.379 -202.14,551.279C-204.077,548.14 -206.351,544.697 -207.195,543.629C-209.037,541.298 -219.618,536.25 -222.663,536.25C-223.854,536.25 -227.902,537.262 -231.657,538.5C-235.412,539.738 -239.03,540.762 -239.697,540.777C-240.365,540.791 -241.754,541.285 -242.786,541.875C-244.601,542.913 -244.541,542.948 -240.911,542.973C-238.788,542.987 -235.371,542.298 -233.036,541.383C-230.287,540.306 -227.159,539.75 -223.661,539.717C-219.156,539.674 -217.749,540.009 -213.747,542.082C-210.033,544.005 -208.544,545.341 -206.435,548.638C-204.978,550.916 -203.786,553.083 -203.786,553.454C-203.786,553.825 -202.119,555.953 -200.081,558.183C-196.061,562.581 -188.221,566.816 -182.739,567.551C-180.234,567.887 -179.911,568.122 -180.68,569.048C-181.65,570.217 -182.738,570.123 -190.473,568.205C-192.845,567.617 -194.786,567.375 -194.786,567.668C-194.786,568.412 -188.912,571.188 -185.973,571.834C-184.503,572.157 -183.536,572.83 -183.536,573.53C-183.536,574.453 -184.114,574.599 -186.348,574.239C-193.911,573.022 -197.324,571.405 -201.797,566.918C-205.804,562.899 -207.536,561.705 -207.536,562.963C-207.536,563.218 -206.5,564.653 -205.234,566.151C-199.327,573.14 -198.679,573.574 -191.036,575.66C-188.354,576.392 -186.039,577.086 -185.891,577.202C-185.743,577.318 -186.357,578.446 -187.255,579.707C-188.953,582.092 -189.635,582.231 -195.161,581.315Z" style="fill:none;stroke:rgb(217,165,103);stroke-width:1.28px;"/>
        </g>
        <g transform="matrix(1.33333,0,0,1.33333,431.714,81.9302)">
            <path d="M-53.786,579.044C-53.786,578.159 -55.248,577.213 -55.786,577.75C-56.323,578.287 -55.376,579.75 -54.491,579.75C-54.103,579.75 -53.786,579.433 -53.786,579.044Z" style="fill:none;stroke:rgb(217,165,103);stroke-width:1.28px;"/>
        </g>
        <g transform="matrix(1.33333,0,0,1.33333,431.714,81.9302)">
            <path d="M-39.086,573.563C-39.48,572.16 -38.485,570.839 -33.187,565.732C-25.599,558.42 -19.303,555 -13.427,555C-9.338,555 -7.286,554.472 -7.286,553.42C-7.286,552.413 -13.004,552.637 -18.832,553.872C-22.348,554.617 -25.322,555.873 -28.124,557.796C-32.788,560.997 -38.912,566.63 -40.168,568.875C-40.89,570.163 -41.114,570.216 -41.76,569.25C-42.174,568.631 -42.518,567.895 -42.524,567.614C-42.543,566.773 -35.488,560.36 -30.792,556.95C-25.446,553.067 -23.18,552.247 -15.009,551.231C-11.507,550.796 -7.153,549.74 -5.334,548.885C-1.024,546.859 3.573,541.5 1.002,541.5C0.61,541.5 0.019,541.945 -0.311,542.489C-0.641,543.033 -2.779,544.535 -5.062,545.826C-8.135,547.565 -10.569,548.299 -14.437,548.652C-20.527,549.209 -27.666,551.397 -31.015,553.733C-32.31,554.636 -35.778,557.484 -38.722,560.063C-41.666,562.641 -44.414,564.75 -44.828,564.75C-45.243,564.75 -45.803,564.177 -46.071,563.477C-46.429,562.546 -45.167,560.925 -41.36,557.428C-35.869,552.383 -28.006,547.965 -23.022,547.123C-18.728,546.397 -19.211,544.974 -23.598,545.425C-29.848,546.068 -38.771,550.896 -45.35,557.196C-48.503,560.215 -49.362,560.674 -50.233,559.803C-51.527,558.508 -37.901,543.757 -33.161,541.322C-29.401,539.39 -20.72,537.179 -15.02,536.701C-7.023,536.029 -6.283,535.636 2.33,527.467C7.231,522.819 10.119,521.337 16.258,520.321C20.471,519.623 21.382,519.744 27.589,521.831C32.773,523.574 33.991,524.229 32.839,524.654C32.014,524.958 28.625,526.456 25.306,527.982C20.035,530.407 18.828,531.351 15.744,535.453C13.803,538.036 12.214,540.941 12.214,541.91C12.214,544.571 5.467,552.189 0.838,554.753C-3.492,557.152 -9.189,559.053 -10.191,558.434C-11.46,557.649 -20.474,559.645 -23.776,561.442C-28.777,564.164 -34.126,568.997 -35.827,572.33C-37.523,575.655 -38.403,575.988 -39.086,573.563Z" style="fill:none;stroke:rgb(217,165,103);stroke-width:1.28px;"/>
        </g>
        <g transform="matrix(1.33333,0,0,1.33333,431.714,81.9302)">
            <path d="M-196.732,566.365C-196.516,566.015 -197.37,564.75 -198.631,563.552C-199.892,562.355 -201.614,560.025 -202.458,558.375C-205.704,552.034 -210.485,546.183 -213.359,545.036C-219.112,542.741 -221.854,542.302 -225.785,543.047C-231.248,544.083 -231.593,545.029 -226.371,544.651C-217.413,544.003 -210.746,548.184 -205.984,557.437C-204.763,559.809 -202.504,562.922 -200.963,564.354C-198.015,567.095 -197.372,567.401 -196.732,566.365Z" style="fill:none;stroke:rgb(217,165,103);stroke-width:1.28px;"/>
        </g>
        <g transform="matrix(1.33333,0,0,1.33333,431.714,81.9302)">
            <path d="M-208.311,559.312C-208.391,556.3 -217.201,547.621 -217.937,549.83C-218.105,550.332 -217.348,551.395 -216.255,552.191C-215.162,552.987 -213.396,555.126 -212.331,556.944C-210.506,560.057 -208.256,561.383 -208.311,559.312Z" style="fill:none;stroke:rgb(217,165,103);stroke-width:1.28px;"/>
        </g>
        <g transform="matrix(1.33333,0,0,1.33333,431.714,81.9302)">
            <path d="M-154.377,554.322C-152.719,553.272 -154.091,551.843 -155.852,552.786C-156.664,553.22 -157.13,553.896 -156.887,554.288C-156.346,555.164 -155.719,555.172 -154.377,554.322L-154.377,554.322Z" style="fill:none;stroke:rgb(217,165,103);stroke-width:1.28px;"/>
        </g>
        <g transform="matrix(1.33333,0,0,1.33333,431.714,81.9302)">
            <path d="M-1.286,550.818C-1.286,550.219 -1.75,549.975 -2.411,550.229C-3.029,550.466 -3.536,551.12 -3.536,551.682C-3.536,552.281 -3.071,552.525 -2.411,552.271C-1.792,552.034 -1.286,551.38 -1.286,550.818Z" style="fill:none;stroke:rgb(217,165,103);stroke-width:1.28px;"/>
        </g>
        <g transform="matrix(1.33333,0,0,1.33333,431.714,81.9302)">
            <path d="M-168.161,548.984C-176.303,542.946 -178.13,538.365 -178.248,523.683C-178.291,518.28 -179.225,517.088 -185.99,513.787C-191.522,511.089 -193.494,507.515 -192.84,501.375C-192.576,498.9 -191.821,495.862 -191.162,494.625C-190.342,493.086 -189.956,490.361 -189.939,486C-189.908,477.918 -191.489,473.53 -195.782,469.79C-198.911,467.064 -198.911,467.064 -194.354,467.449C-188.552,467.939 -179.163,472.142 -177.028,475.205C-174.829,478.359 -173.786,481.945 -173.786,486.351C-173.786,488.483 -173.272,491.959 -172.643,494.075C-171.317,498.542 -169.523,500.072 -162.077,503.087C-155.151,505.892 -154.103,507.968 -153.694,519.699C-153.416,527.64 -153.199,528.725 -151.128,532.5C-149.884,534.769 -148.204,537.349 -147.395,538.233C-146.292,539.439 -146.155,539.985 -146.85,540.415C-149.038,541.767 -155.786,530.672 -155.786,525.722C-155.786,524.239 -156.871,523.722 -157.579,524.868C-158.915,527.03 -153.406,540.271 -150.747,541.292C-149.725,541.684 -149.751,541.87 -150.949,542.746C-152.901,544.173 -153.099,544.085 -155.4,540.765C-158.611,536.132 -160.24,528.923 -159.799,521.297C-159.321,513.032 -160.511,510.789 -166.413,508.84C-171.597,507.128 -175.002,504.494 -176.953,500.686C-178.9,496.889 -179.649,498.429 -177.98,502.797C-176.58,506.465 -174.527,508.171 -167.994,511.096C-165.023,512.427 -163.141,513.765 -162.813,514.78C-162.529,515.657 -162.253,519.919 -162.199,524.25C-162.091,532.856 -160.421,538.692 -156.852,542.932C-154.786,545.388 -154.62,546 -156.02,546C-157.691,546 -160.861,542.085 -162.87,537.541C-164.436,533.998 -164.786,532.039 -164.786,526.804C-164.786,520.147 -165.548,517.5 -167.463,517.5C-168.357,517.5 -168.423,517.809 -167.783,519.005C-167.324,519.862 -167.071,523.493 -167.194,527.442C-167.389,533.682 -167.205,534.813 -165.36,538.753C-164.232,541.161 -162.441,544.163 -161.38,545.423C-160.028,547.03 -159.688,547.952 -160.242,548.506C-161.48,549.744 -166.049,544.82 -168.583,539.518C-170.202,536.133 -170.786,533.807 -170.786,530.75C-170.786,528.461 -171.124,526.38 -171.537,526.124C-172.547,525.5 -173.786,528.946 -173.786,532.382C-173.786,536.222 -169.392,545.093 -166.026,548.049C-164.519,549.372 -163.286,550.633 -163.286,550.852C-163.286,551.838 -165.409,551.024 -168.161,548.984L-168.161,548.984Z" style="fill:none;stroke:rgb(217,165,103);stroke-width:1.28px;"/>
        </g>
        <g transform="matrix(1.33333,0,0,1.33333,431.714,81.9302)">
            <path d="M-222.643,549.832C-221.934,549.383 -221.877,549.032 -222.456,548.674C-223.407,548.087 -224.786,548.749 -224.786,549.794C-224.786,550.666 -223.982,550.681 -222.643,549.832L-222.643,549.832Z" style="fill:none;stroke:rgb(217,165,103);stroke-width:1.28px;"/>
        </g>
        <g transform="matrix(1.33333,0,0,1.33333,431.714,81.9302)">
            <path d="M-146.021,549.357C-145.499,548.728 -145.26,548.026 -145.49,547.796C-146.159,547.127 -149.123,549.002 -148.637,549.788C-148.003,550.814 -147.107,550.667 -146.021,549.357Z" style="fill:none;stroke:rgb(217,165,103);stroke-width:1.28px;"/>
        </g>
        <g transform="matrix(1.33333,0,0,1.33333,431.714,81.9302)">
            <path d="M4.849,546.187C5.902,545.053 8.132,541.762 9.804,538.875C13.422,532.625 17.359,528.638 21.964,526.558C25.339,525.033 25.339,525.033 22.704,525.016C17.981,524.987 13.142,529.056 8.214,537.201C5.845,541.116 3.245,544.918 2.436,545.651C1.627,546.383 0.964,547.268 0.964,547.616C0.964,548.926 3.002,548.177 4.849,546.187Z" style="fill:none;stroke:rgb(217,165,103);stroke-width:1.28px;"/>
        </g>
        <g transform="matrix(1.33333,0,0,1.33333,431.714,81.9302)">
            <path d="M-13.286,544.456C-13.286,544.068 -13.792,543.75 -14.411,543.75C-15.57,543.75 -15.901,544.635 -15.056,545.48C-14.457,546.079 -13.286,545.401 -13.286,544.456Z" style="fill:none;stroke:rgb(217,165,103);stroke-width:1.28px;"/>
        </g>
        <g transform="matrix(1.33333,0,0,1.33333,431.714,81.9302)">
            <path d="M-66.963,543.4C-68.457,541.121 -67.943,537.267 -65.21,530.25C-62.972,524.504 -60.947,521.588 -55.312,515.997C-48.471,509.21 -47.786,507.921 -47.786,501.83C-47.786,495.463 -46.071,490.451 -42.324,485.862C-38.815,481.567 -35.783,475.742 -35.797,473.326C-35.806,471.791 -35.964,471.615 -36.536,472.5C-36.936,473.119 -37.268,474.242 -37.274,474.996C-37.28,475.751 -39.232,478.788 -41.611,481.746C-47.705,489.324 -49.156,492.683 -49.767,500.622C-50.322,507.851 -49.967,507.206 -58.041,515.663C-63.418,521.295 -66.795,527.21 -68.51,534C-69.69,538.667 -70.473,540.445 -71.435,540.638C-72.606,540.872 -72.692,540.466 -72.222,536.888C-71.486,531.283 -66.322,519.811 -63.55,517.62C-61.436,515.95 -58.587,511.484 -59.656,511.515C-59.933,511.523 -61.902,513.177 -64.03,515.19C-68.491,519.41 -72.806,527.464 -74.186,534.143C-74.739,536.82 -75.471,538.5 -76.084,538.5C-79.719,538.5 -76.733,527.983 -70.655,519.375C-68.639,516.521 -67.132,513 -67.926,513C-68.91,513 -74.834,521.309 -76.732,525.351C-77.694,527.4 -78.894,530.69 -79.4,532.663C-79.91,534.654 -80.757,536.25 -81.302,536.25C-82.607,536.25 -82.548,535.489 -80.853,530.414C-79.055,525.029 -78.752,523.189 -79.616,522.888C-80.372,522.626 -83.786,531.147 -83.786,533.297C-83.786,534.047 -84.165,534.896 -84.63,535.183C-85.602,535.784 -85.332,533.456 -83.504,525.466C-81.875,518.346 -79.846,515.338 -73.093,510.032C-69.821,507.461 -66.141,503.745 -64.685,501.543C-62.355,498.017 -59.786,490.637 -59.786,487.471C-59.786,484.798 -55.167,479.343 -50.341,476.318C-47.651,474.63 -45.215,473.243 -44.93,473.235C-43.764,473.202 -36.693,465.821 -35.718,463.619C-35.141,462.316 -34.441,461.25 -34.162,461.25C-33.883,461.25 -33.419,463.455 -33.13,466.151C-32.287,474.026 -34.27,479.72 -40.305,486.75C-45.347,492.623 -45.684,493.538 -45.603,501.114C-45.516,509.291 -46.033,510.425 -53.363,518.124C-56.375,521.287 -59.559,525.299 -60.44,527.039C-62.341,530.793 -64.259,538.496 -64.275,542.438C-64.287,545.692 -65.239,546.032 -66.963,543.4Z" style="fill:none;stroke:rgb(217,165,103);stroke-width:1.28px;"/>
        </g>
        <g transform="matrix(1.33333,0,0,1.33333,431.714,81.9302)">
            <path d="M-247.286,542.625C-247.286,542.006 -247.772,541.5 -248.366,541.5C-249.619,541.5 -250.465,542.57 -249.765,543.27C-248.869,544.167 -247.286,543.755 -247.286,542.625Z" style="fill:none;stroke:rgb(217,165,103);stroke-width:1.28px;"/>
        </g>
        <g transform="matrix(1.33333,0,0,1.33333,431.714,81.9302)">
            <path d="M-6.88,542.2C-6.063,540.878 -6.924,540.693 -8.465,541.859C-9.734,542.819 -9.756,542.955 -8.642,542.976C-7.945,542.99 -7.152,542.64 -6.88,542.2Z" style="fill:none;stroke:rgb(217,165,103);stroke-width:1.28px;"/>
        </g>
        <g transform="matrix(1.33333,0,0,1.33333,431.714,81.9302)">
            <path d="M5.464,536.17C5.464,535.801 4.958,535.5 4.339,535.5C3.721,535.5 3.214,535.996 3.214,536.601C3.214,537.272 3.654,537.534 4.339,537.271C4.958,537.034 5.464,536.538 5.464,536.17Z" style="fill:none;stroke:rgb(217,165,103);stroke-width:1.28px;"/>
        </g>
        <g transform="matrix(1.33333,0,0,1.33333,431.714,81.9302)">
            <path d="M-128.41,534.751C-128.699,534.283 -128.76,533.725 -128.546,533.51C-128.331,533.295 -128.685,531.377 -129.333,529.247C-130.102,526.72 -130.483,522.769 -130.429,517.875C-130.353,511.067 -130.01,509.338 -126.7,499.125C-122.26,485.425 -122.127,482.197 -125.671,474.206C-127.945,469.078 -128.048,468.453 -127.596,462.581C-127.151,456.795 -126.775,455.716 -122.046,446.625C-115.973,434.951 -114.809,429.811 -115.608,418.206C-116.08,411.351 -116.022,410.828 -114.895,411.763C-111.083,414.927 -104.997,432.378 -104.327,442.067C-103.899,448.254 -104.045,449.422 -105.935,454.875C-107.466,459.295 -108.003,462.257 -107.976,466.125C-107.942,470.801 -107.561,472.149 -104.487,478.446C-100.44,486.736 -100.024,491.145 -102.597,498.445C-105.019,505.312 -105.521,511.226 -104.422,519.94C-103.89,524.167 -103.079,528.575 -102.62,529.736C-101.555,532.431 -101.563,532.5 -102.929,532.5C-104.405,532.5 -105.169,530.403 -106.409,522.945C-107.591,515.843 -107.168,509.079 -104.881,498.49C-104.004,494.428 -103.286,490.123 -103.286,488.924C-103.286,487.724 -104.658,483.453 -106.334,479.434C-110.87,468.56 -111.153,466.226 -108.904,458.225C-107.218,452.229 -106.239,445.899 -107.748,450.75C-108.069,451.781 -109.234,454.755 -110.337,457.358C-113.457,464.719 -113.182,468.269 -108.612,479.58C-106.508,484.79 -104.786,489.583 -104.786,490.23C-104.786,490.878 -105.641,494.213 -106.687,497.641C-109.237,506.002 -110.266,517.904 -108.919,523.463C-107.263,530.296 -106.903,533.25 -107.725,533.25C-108.967,533.25 -109.825,530.941 -110.705,525.231C-111.932,517.263 -111.741,513.622 -109.547,503.25C-107.276,492.51 -107.172,488.483 -109.068,484.663C-110.965,480.84 -112.766,480.399 -111.203,484.14C-109.513,488.185 -109.765,494.281 -111.995,503.25C-113.699,510.104 -113.904,512.195 -113.576,519.375C-113.369,523.913 -112.812,528.608 -112.34,529.81C-111.746,531.318 -111.721,532.235 -112.258,532.772C-113.782,534.297 -114.51,532.037 -115.418,522.957C-116.223,514.908 -116.18,513.19 -115.06,508.355C-113.381,501.112 -112.688,492.865 -113.457,489.274C-114.057,486.47 -114.095,486.547 -114.599,491.625C-114.886,494.512 -115.863,500.756 -116.771,505.5C-118.401,514.017 -118.487,521.196 -117.073,530.625C-116.382,535.225 -117.911,532.89 -119.036,527.625C-120.702,519.832 -120.712,517.165 -119.103,509.399C-116.171,495.253 -117.49,492.943 -120.807,506.415C-123.384,516.887 -123.337,519.762 -120.376,532.51C-120.258,533.02 -120.545,533.58 -121.015,533.754C-122.668,534.365 -124.516,523.083 -124.077,515.063C-123.857,511.041 -123.967,507.75 -124.321,507.75C-126.552,507.75 -127.413,526.075 -125.444,531.656C-124.844,533.358 -124.647,534.75 -125.008,534.75C-125.368,534.75 -126.163,534.942 -126.773,535.176C-127.384,535.411 -128.121,535.219 -128.41,534.751L-128.41,534.751Z" style="fill:none;stroke:rgb(217,165,103);stroke-width:1.28px;"/>
        </g>
        <g transform="matrix(1.33333,0,0,1.33333,431.714,81.9302)">
            <path d="M-171.536,520.875C-171.536,519.708 -171.961,519 -172.661,519C-174.756,519 -174.002,521.971 -171.723,522.691C-171.62,522.723 -171.536,521.906 -171.536,520.875L-171.536,520.875Z" style="fill:none;stroke:rgb(217,165,103);stroke-width:1.28px;"/>
        </g>
        <g transform="matrix(1.33333,0,0,1.33333,431.714,81.9302)">
            <path d="M-156.238,520.057C-155.728,518.728 -156.253,517.5 -157.33,517.5C-157.718,517.5 -158.036,518.344 -158.036,519.375C-158.036,521.473 -156.941,521.889 -156.238,520.057Z" style="fill:none;stroke:rgb(217,165,103);stroke-width:1.28px;"/>
        </g>
        <g transform="matrix(1.33333,0,0,1.33333,431.714,81.9302)">
            <path d="M-75.536,517.456C-75.536,517.068 -75.873,516.75 -76.286,516.75C-76.698,516.75 -77.036,517.276 -77.036,517.919C-77.036,518.562 -76.698,518.88 -76.286,518.625C-75.873,518.37 -75.536,517.844 -75.536,517.456Z" style="fill:none;stroke:rgb(217,165,103);stroke-width:1.28px;"/>
        </g>
        <g transform="matrix(1.33333,0,0,1.33333,431.714,81.9302)">
            <path d="M-168.309,514.125C-168.227,513.713 -169.089,513.268 -170.223,513.138C-171.358,513.007 -172.286,513.232 -172.286,513.638C-172.286,515.149 -168.6,515.601 -168.309,514.125Z" style="fill:none;stroke:rgb(217,165,103);stroke-width:1.28px;"/>
        </g>
        <g transform="matrix(1.33333,0,0,1.33333,431.714,81.9302)">
            <path d="M-157.148,511.796C-157.617,507.517 -159.657,505.216 -163.799,504.297C-165.897,503.831 -168.492,502.814 -169.564,502.037C-173.208,499.398 -176.036,491.184 -176.036,483.235C-176.036,481.415 -176.548,478.935 -177.173,477.725C-178.57,475.025 -182.317,472.913 -184.02,473.866C-185.002,474.416 -184.789,474.689 -182.853,475.364C-179.853,476.41 -178.607,479.314 -177.966,486.75C-177.699,489.844 -177.112,493.81 -176.661,495.563C-175.674,499.399 -170.552,505.193 -167.598,505.815C-166.464,506.054 -164.718,506.419 -163.718,506.625C-162.434,506.89 -161.387,508.092 -160.155,510.716C-158.266,514.74 -156.767,515.279 -157.148,511.796Z" style="fill:none;stroke:rgb(217,165,103);stroke-width:1.28px;"/>
        </g>
        <g transform="matrix(1.33333,0,0,1.33333,431.714,81.9302)">
            <path d="M-53.812,507.049C-52.82,505.196 -52.802,501 -53.786,501C-54.198,501 -54.536,501.779 -54.536,502.732C-54.536,503.684 -55.031,505.118 -55.637,505.919C-57.047,507.784 -57.061,508.5 -55.687,508.5C-55.083,508.5 -54.239,507.847 -53.812,507.049L-53.812,507.049Z" style="fill:none;stroke:rgb(217,165,103);stroke-width:1.28px;"/>
        </g>
        <g transform="matrix(1.33333,0,0,1.33333,431.714,81.9302)">
            <path d="M-122.786,502.831C-122.786,502.188 -123.123,501.87 -123.536,502.125C-123.948,502.38 -124.286,502.906 -124.286,503.294C-124.286,503.682 -123.948,504 -123.536,504C-123.123,504 -122.786,503.474 -122.786,502.831Z" style="fill:none;stroke:rgb(217,165,103);stroke-width:1.28px;"/>
        </g>
        <g transform="matrix(1.33333,0,0,1.33333,431.714,81.9302)">
            <path d="M-53.036,496.5C-53.036,496.088 -53.373,495.75 -53.786,495.75C-54.198,495.75 -54.536,496.088 -54.536,496.5C-54.536,496.913 -54.198,497.25 -53.786,497.25C-53.373,497.25 -53.036,496.913 -53.036,496.5Z" style="fill:none;stroke:rgb(217,165,103);stroke-width:1.28px;"/>
        </g>
        <g transform="matrix(1.33333,0,0,1.33333,431.714,81.9302)">
            <path d="M-179.786,492.375C-179.786,491.756 -180.103,491.25 -180.491,491.25C-181.437,491.25 -182.114,492.421 -181.515,493.02C-180.671,493.865 -179.786,493.535 -179.786,492.375Z" style="fill:none;stroke:rgb(217,165,103);stroke-width:1.28px;"/>
        </g>
        <g transform="matrix(1.33333,0,0,1.33333,431.714,81.9302)">
            <path d="M-117.536,490.831C-117.536,490.188 -117.873,489.87 -118.286,490.125C-118.698,490.38 -119.036,490.906 -119.036,491.294C-119.036,491.682 -118.698,492 -118.286,492C-117.873,492 -117.536,491.474 -117.536,490.831Z" style="fill:none;stroke:rgb(217,165,103);stroke-width:1.28px;"/>
        </g>
        <g transform="matrix(1.33333,0,0,1.33333,431.714,81.9302)">
            <path d="M-112.711,475.612C-113.001,474.932 -113.446,473.264 -113.699,471.905C-114.23,469.066 -115.661,468.953 -115.661,471.75C-115.661,474.292 -113.903,477.911 -112.953,477.324C-112.53,477.062 -112.421,476.292 -112.711,475.612L-112.711,475.612Z" style="fill:none;stroke:rgb(217,165,103);stroke-width:1.28px;"/>
        </g>
        <g transform="matrix(1.33333,0,0,1.33333,431.714,81.9302)">
            <path d="M-187.661,471.75C-187.406,471.338 -187.723,471 -188.366,471C-189.01,471 -189.536,471.338 -189.536,471.75C-189.536,472.163 -189.218,472.5 -188.83,472.5C-188.442,472.5 -187.916,472.163 -187.661,471.75Z" style="fill:none;stroke:rgb(217,165,103);stroke-width:1.28px;"/>
        </g>
        <g transform="matrix(1.33333,0,0,1.33333,431.714,81.9302)">
            <path d="M-115.286,464.25C-115.286,463.837 -115.435,463.5 -115.616,463.5C-115.798,463.5 -116.156,463.837 -116.411,464.25C-116.666,464.663 -116.517,465 -116.08,465C-115.643,465 -115.286,464.663 -115.286,464.25Z" style="fill:none;stroke:rgb(217,165,103);stroke-width:1.28px;"/>
        </g>
        <g transform="matrix(1.33333,0,0,1.33333,431.714,81.9302)">
            <path d="M-107.036,442.125C-107.036,439.945 -108.203,439.05 -108.849,440.735C-109.451,442.304 -108.645,444.906 -107.732,444.342C-107.349,444.105 -107.036,443.108 -107.036,442.125Z" style="fill:none;stroke:rgb(217,165,103);stroke-width:1.28px;"/>
        </g>
        <g transform="matrix(1.33333,0,0,1.33333,431.714,81.9302)">
            <path d="M-109.59,427.546C-110.931,422.312 -112.896,417.361 -113.424,417.888C-113.956,418.42 -110.782,433.593 -109.766,435.375C-108.981,436.752 -108.891,436.676 -108.677,434.45C-108.548,433.116 -108.959,430.01 -109.59,427.546Z" style="fill:none;stroke:rgb(217,165,103);stroke-width:1.28px;"/>
        </g>
    </g>
</svg>
