<svg width="100%" height="100%" viewBox="0 0 16 16" version="1.1" xmlns="http://www.w3.org/2000/svg" xmlns:xlink="http://www.w3.org/1999/xlink" xml:space="preserve" xmlns:serif="http://www.serif.com/" fill-rule="evenodd" clip-rule="evenodd" stroke-linejoin="round" stroke-miterlimit="2">

    <g>

        <g transform="matrix(1,0,0,1,-1.857,2.23702)">

            <path d="M6.132,7.804L8.256,7.804C8.467,7.804 8.629,7.847 8.74,7.934C8.851,8.021 8.907,8.139 8.907,8.288C8.907,8.421 8.863,8.533 8.775,8.626C8.686,8.718 8.553,8.764 8.374,8.764L5.379,8.764C5.176,8.764 5.017,8.708 4.903,8.595C4.789,8.482 4.732,8.35 4.732,8.198C4.732,8.101 4.769,7.971 4.842,7.81C4.915,7.648 4.995,7.521 5.082,7.429C5.443,7.055 5.768,6.734 6.059,6.467C6.349,6.2 6.556,6.024 6.681,5.94C6.904,5.783 7.089,5.625 7.237,5.466C7.384,5.307 7.497,5.144 7.574,4.978C7.652,4.811 7.69,4.647 7.69,4.487C7.69,4.314 7.649,4.158 7.566,4.021C7.483,3.884 7.371,3.778 7.228,3.702C7.086,3.626 6.931,3.588 6.763,3.588C6.407,3.588 6.128,3.744 5.924,4.056C5.897,4.097 5.852,4.208 5.788,4.39C5.724,4.571 5.652,4.711 5.572,4.809C5.492,4.906 5.375,4.955 5.22,4.955C5.085,4.955 4.972,4.911 4.883,4.821C4.793,4.731 4.748,4.609 4.748,4.455C4.748,4.268 4.79,4.072 4.875,3.869C4.959,3.665 5.084,3.481 5.251,3.315C5.418,3.15 5.629,3.016 5.886,2.915C6.142,2.813 6.442,2.762 6.787,2.762C7.202,2.762 7.556,2.827 7.849,2.957C8.039,3.044 8.206,3.164 8.349,3.315C8.493,3.467 8.605,3.643 8.685,3.842C8.765,4.042 8.805,4.249 8.805,4.463C8.805,4.799 8.722,5.105 8.555,5.38C8.388,5.656 8.218,5.871 8.044,6.027C7.871,6.183 7.58,6.428 7.171,6.762C6.763,7.096 6.483,7.355 6.331,7.539C6.266,7.612 6.2,7.701 6.132,7.804Z" fill-rule="nonzero" />

            <path d="M10.624,2.799L12.199,2.799C12.608,2.799 12.96,2.837 13.253,2.913C13.546,2.989 13.811,3.131 14.05,3.34C14.671,3.872 14.982,4.68 14.982,5.765C14.982,6.123 14.951,6.45 14.888,6.746C14.826,7.041 14.73,7.308 14.599,7.545C14.469,7.783 14.302,7.995 14.099,8.182C13.939,8.326 13.764,8.441 13.574,8.528C13.384,8.615 13.18,8.676 12.962,8.711C12.743,8.746 12.497,8.764 12.223,8.764L10.648,8.764C10.429,8.764 10.263,8.731 10.152,8.664C10.041,8.598 9.968,8.504 9.934,8.383C9.9,8.263 9.883,8.106 9.883,7.913L9.883,3.539C9.883,3.279 9.942,3.09 10.058,2.974C10.175,2.857 10.364,2.799 10.624,2.799ZM11.092,3.755L11.092,7.804L12.007,7.804C12.208,7.804 12.366,7.798 12.479,7.787C12.593,7.776 12.711,7.749 12.833,7.706C12.956,7.663 13.061,7.601 13.151,7.523C13.555,7.181 13.757,6.592 13.757,5.757C13.757,5.168 13.668,4.727 13.491,4.434C13.313,4.141 13.094,3.955 12.833,3.875C12.573,3.795 12.258,3.755 11.889,3.755L11.092,3.755Z" fill-rule="nonzero" />

        </g>

        <path d="M16,4.101C16,2.941 15.059,2 13.899,2L2.101,2C0.941,2 -0,2.941 -0,4.101L-0,11.899C-0,13.059 0.941,14 2.101,14L13.899,14C15.059,14 16,13.059 16,11.899L16,4.101ZM15,4.143C15,3.512 14.488,3 13.857,3L2.143,3C1.512,3 1,3.512 1,4.143L1,11.857C1,12.488 1.512,13 2.143,13L13.857,13C14.488,13 15,12.488 15,11.857L15,4.143Z" />

    </g>

</svg>
