<svg width="100%" height="100%" viewBox="0 0 16 16" version="1.1" xmlns="http://www.w3.org/2000/svg" xmlns:xlink="http://www.w3.org/1999/xlink" xml:space="preserve" xmlns:serif="http://www.serif.com/" fill-rule="evenodd" clip-rule="evenodd" stroke-linejoin="round" stroke-miterlimit="2">

    <g>

        <g transform="matrix(1,0,0,1,-1.83055,2.18209)">

            <path d="M6.555,5.163C6.805,5.163 7.02,5.09 7.2,4.943C7.38,4.797 7.471,4.586 7.471,4.312C7.471,4.104 7.399,3.924 7.255,3.773C7.111,3.623 6.917,3.547 6.673,3.547C6.508,3.547 6.371,3.57 6.264,3.617C6.157,3.663 6.072,3.724 6.01,3.8C5.947,3.876 5.888,3.973 5.833,4.093C5.777,4.212 5.726,4.325 5.68,4.43C5.653,4.487 5.604,4.532 5.534,4.565C5.463,4.597 5.382,4.613 5.29,4.613C5.181,4.613 5.081,4.569 4.99,4.481C4.9,4.393 4.854,4.276 4.854,4.129C4.854,3.988 4.897,3.84 4.982,3.684C5.068,3.528 5.193,3.379 5.357,3.238C5.521,3.097 5.725,2.984 5.969,2.898C6.213,2.813 6.486,2.77 6.787,2.77C7.05,2.77 7.29,2.806 7.507,2.878C7.724,2.95 7.913,3.054 8.073,3.189C8.233,3.325 8.354,3.482 8.435,3.661C8.516,3.84 8.557,4.033 8.557,4.239C8.557,4.51 8.498,4.743 8.38,4.937C8.262,5.131 8.093,5.32 7.873,5.505C8.085,5.619 8.263,5.749 8.408,5.895C8.554,6.042 8.663,6.204 8.736,6.381C8.809,6.559 8.846,6.751 8.846,6.957C8.846,7.204 8.796,7.443 8.697,7.673C8.598,7.904 8.453,8.109 8.26,8.29C8.067,8.47 7.839,8.611 7.574,8.713C7.31,8.815 7.018,8.866 6.697,8.866C6.372,8.866 6.08,8.807 5.823,8.691C5.565,8.574 5.353,8.428 5.186,8.253C5.019,8.078 4.893,7.897 4.807,7.71C4.722,7.523 4.679,7.368 4.679,7.246C4.679,7.089 4.73,6.962 4.832,6.866C4.934,6.769 5.06,6.721 5.212,6.721C5.288,6.721 5.361,6.744 5.432,6.788C5.502,6.833 5.549,6.887 5.57,6.949C5.711,7.326 5.863,7.606 6.024,7.789C6.185,7.972 6.413,8.064 6.706,8.064C6.874,8.064 7.036,8.023 7.192,7.94C7.348,7.857 7.477,7.734 7.578,7.572C7.68,7.409 7.731,7.22 7.731,7.006C7.731,6.689 7.644,6.44 7.471,6.259C7.297,6.079 7.055,5.989 6.746,5.989C6.692,5.989 6.608,5.994 6.494,6.005C6.38,6.016 6.307,6.021 6.274,6.021C6.125,6.021 6.01,5.984 5.928,5.909C5.847,5.835 5.806,5.731 5.806,5.598C5.806,5.468 5.855,5.363 5.953,5.283C6.05,5.203 6.196,5.163 6.388,5.163L6.555,5.163Z" fill-rule="nonzero" />

            <path d="M10.624,2.799L12.199,2.799C12.608,2.799 12.96,2.837 13.253,2.913C13.546,2.989 13.811,3.131 14.05,3.34C14.671,3.872 14.982,4.68 14.982,5.765C14.982,6.123 14.951,6.45 14.888,6.746C14.826,7.041 14.73,7.308 14.599,7.545C14.469,7.783 14.302,7.995 14.099,8.182C13.939,8.326 13.764,8.441 13.574,8.528C13.384,8.615 13.18,8.676 12.962,8.711C12.743,8.746 12.497,8.764 12.223,8.764L10.648,8.764C10.429,8.764 10.263,8.731 10.152,8.664C10.041,8.598 9.968,8.504 9.934,8.383C9.9,8.263 9.883,8.106 9.883,7.913L9.883,3.539C9.883,3.279 9.942,3.09 10.058,2.974C10.175,2.857 10.364,2.799 10.624,2.799ZM11.092,3.755L11.092,7.804L12.007,7.804C12.208,7.804 12.366,7.798 12.479,7.787C12.593,7.776 12.711,7.749 12.833,7.706C12.956,7.663 13.061,7.601 13.151,7.523C13.555,7.181 13.757,6.592 13.757,5.757C13.757,5.168 13.668,4.727 13.491,4.434C13.313,4.141 13.094,3.955 12.833,3.875C12.573,3.795 12.258,3.755 11.889,3.755L11.092,3.755Z" fill-rule="nonzero" />

        </g>

        <path d="M16,4.101C16,2.941 15.059,2 13.899,2L2.101,2C0.941,2 -0,2.941 -0,4.101L-0,11.899C-0,13.059 0.941,14 2.101,14L13.899,14C15.059,14 16,13.059 16,11.899L16,4.101ZM15,4.143C15,3.512 14.488,3 13.857,3L2.143,3C1.512,3 1,3.512 1,4.143L1,11.857C1,12.488 1.512,13 2.143,13L13.857,13C14.488,13 15,12.488 15,11.857L15,4.143Z"/>

    </g>

</svg>
