<svg width="20%" height="20%" viewBox="0 0 128 128" version="1.1" xmlns='http://www.w3.org/2000/svg' fill-rule="evenodd" clip-rule="evenodd" stroke-linejoin="round" stroke-miterlimit="2">
    <path d="M112.167,20C112.167,17.699 110.301,15.833 108,15.833L20,15.833C17.699,15.833 15.833,17.699 15.833,20L15.833,108C15.833,110.301 17.699,112.167 20,112.167L108,112.167C110.301,112.167 112.167,110.301 112.167,108L112.167,20ZM108,20L20,20L20,108L108,108L108,20Z" fill="white" />
    <g transform="matrix(-1,0,0,-1,128,128)">
        <rect x="20" y="20" width="88" height="88" fill="url(#_Linear1)" />
    </g>
    <defs>
        <linearGradient id="_Linear1" x1="0" y1="0" x2="1" y2="0" gradientUnits="userSpaceOnUse" gradientTransform="matrix(88,88,-88,88,20,20)"><stop offset="0" stop-color="white" stop-opacity="1"/><stop offset="1" stop-color="rgb(179,179,179)" stop-opacity="0"/></linearGradient>
    </defs>
</svg>
