<?xml version="1.0" encoding="UTF-8" standalone="no"?>
<!DOCTYPE svg PUBLIC "-//W3C//DTD SVG 1.1//EN" "http://www.w3.org/Graphics/SVG/1.1/DTD/svg11.dtd">
<svg width="100%" height="100%" viewBox="0 0 128 128" version="1.1" xmlns="http://www.w3.org/2000/svg" xmlns:xlink="http://www.w3.org/1999/xlink" xml:space="preserve" xmlns:serif="http://www.serif.com/" style="fill-rule:evenodd;clip-rule:evenodd;stroke-linecap:round;stroke-linejoin:round;stroke-miterlimit:1;">
    <g transform="matrix(1.11364,0,0,1.10112,-7.27273,-7.02247)">
        <path d="M108,31.281C108,25.055 103.002,20 96.846,20L31.154,20C24.998,20 20,25.055 20,31.281L20,97.719C20,103.945 24.998,109 31.154,109L96.846,109C103.002,109 108,103.945 108,97.719L108,31.281Z" style="fill:none;stroke:white;stroke-opacity:0.5;stroke-width:5.64px;"/>
    </g>
    <g transform="matrix(0.806452,0,0,0.806452,12.3871,11.5806)">
        <g transform="matrix(1.15942,0,0,0.898551,-28.1739,7.04348)">
            <path d="M79.5,30C79.5,30 64,61.341 64,79C64,90.038 70.945,99 79.5,99C88.055,99 95,90.038 95,79C95,61.341 79.5,30 79.5,30Z" style="fill:none;stroke:white;stroke-width:7.47px;"/>
        </g>
        <g transform="matrix(-1.75,0,0,0.8,162.313,34.6372)">
            <path d="M61.571,56C60.605,62.106 59.262,64.349 57,66" style="fill:none;stroke:white;stroke-width:5.7px;"/>
        </g>
    </g>
</svg>
